<?xml version="1.0" encoding="utf-8"?>
<!-- Generator: Adobe Illustrator 28.1.0, SVG Export Plug-In . SVG Version: 6.00 Build 0)  -->
<svg version="1.1" id="Layer_1" xmlns="http://www.w3.org/2000/svg" xmlns:xlink="http://www.w3.org/1999/xlink" x="0px" y="0px"
	 viewBox="0 0 25.2 41.7" style="enable-background:new 0 0 25.2 41.7;" xml:space="preserve">
<g>
	<g>
		<path d="M3.8,39.9c-1.9-1.4-3-3.6-3.5-6.6c-0.6-4.2-0.3-8.7,1.1-13.6C2.8,14.9,5,10.7,7.8,6.9c2.8-3.7,6.2-5.8,10-6.3
			c1.1-0.2,1.9-0.1,2.6,0.3c0.6,0.4,1.1,0.8,1.4,1.4s0.5,1.1,0.6,1.7l0.1,0.9c-0.1,0.3-0.2,0.5-0.4,0.5c-0.3,0-0.4-0.1-0.5-0.4
			c0-0.2,0-0.3,0.1-0.5c0-0.1,0-0.2,0-0.4c0-0.2,0-0.4,0-0.7c-0.1-0.9-0.6-1.5-1.4-2C19.7,1.1,19,1,17.9,1.1C15.8,1.5,13.8,2.4,12,4
			s-3.4,3.6-4.8,6c-1.4,2.4-2.6,5-3.5,7.7s-1.5,5.5-1.9,8.2c-0.4,2.7-0.4,5.1-0.1,7.2c0.4,2.7,1.4,4.7,2.9,6.2
			c1.5,1.5,3.3,2,5.3,1.7c2.4-0.4,4.5-1.5,6.4-3.4c3.2-3.4,5.6-7.5,7.2-12.2l0.9-2.7c0-0.1,0.1-0.1,0.2-0.1c0.2,0,0.3,0.1,0.4,0.3
			c-1.2,3.5-2.4,6.4-3.6,8.7c-1.2,2.3-2.8,4.5-4.6,6.4c-1.9,1.9-4.1,3.1-6.7,3.5C7.8,41.9,5.7,41.3,3.8,39.9z"/>
		<g>
			<path d="M3.8,39.9C0,37-0.1,31.6,0,27.2C0.8,18.3,4.5,8.3,11.6,2.7c4-2.9,11.1-5,11.3,2.3c-0.2,1.2-1.9,1.3-2.1,0.1
				c0-0.2,0-0.6,0.1-0.8L21,4.4C21,4.2,21,4,21,3.9c0.1-0.7-0.3-1.5-1.1-1.9c-0.4-0.3-1.1-0.3-1.9-0.2c-2.3,0.4-4.3,1.5-6,3.2
				c-6.4,6.6-9.8,17.1-9.8,26.2c0.3,10.5,9.1,12.3,15.2,4.3c3.2-3.7,5.2-8.2,6.7-12.9c0.2-0.3,0.7-0.3,0.9,0
				c0.1,0.1,0.1,0.3,0.1,0.4c-0.9,2.5-1.9,4.9-3.1,7.3C19.2,37.1,11.4,45.5,3.8,39.9L3.8,39.9z M3.8,39.9c4.4,3.5,10.7,1.1,13.9-3
				c3.5-3.8,5.5-9.6,7-13.9c0-0.1,0,0,0,0c0,0-0.1,0-0.1,0l0-0.1c-1,3.1-2,6.2-3.7,9.1c-1.7,2.8-3.6,5.7-6.2,7.7
				C7.2,44.8,1,39.4,0.8,31.3C0.7,21.4,4,11,11,3.9c2.2-2.1,6.6-4.7,9.6-3c0.6,0.3,1.6,1.5,1.6,2.5c0,0.6,0,1-0.2,1.5l0,0
				c0,0.1,0,0,0,0c-0.1-0.1-0.2,0-0.1,0c-0.1,0-0.1,0.1-0.1,0.1c0,0,0-0.1,0.1-0.1l0,0.2c0-1-0.2-2.1-0.9-2.9c-2-2.3-6.8,0-8.9,1.4
				C4.8,8.8,1,18.3,0.2,27.2C0,31.6,0,37,3.8,39.9L3.8,39.9z"/>
		</g>
	</g>
</g>
</svg>
