<?xml version="1.0" encoding="utf-8"?>
<!-- Generator: Adobe Illustrator 28.1.0, SVG Export Plug-In . SVG Version: 6.00 Build 0)  -->
<svg version="1.1" id="Layer_1" xmlns="http://www.w3.org/2000/svg" xmlns:xlink="http://www.w3.org/1999/xlink" x="0px" y="0px"
	 viewBox="0 0 216 216" style="enable-background:new 0 0 216 216;" xml:space="preserve">
<style type="text/css">
	.st0{display:none;}
	.st1{display:inline;}
	.st2{display:inline;fill:#FFFFFF;}
	.st3{display:inline;fill:none;}
</style>
<g class="st0">
	<path class="st1" d="M1028.92,262.37c-5.23,5.13-13.1,8.25-15.86,16.68c-2.66,8.13-6.48,15.57-13.2,21.2
		c-8.82,7.39-19.1,10.92-30.43,9.78c-4.58-0.46-8.91-3.41-13.35-5.23c-9.66-3.95-19.57-7.41-28.85-12.1
		c-3.82-1.93-7.12-6.05-9.26-9.94c-10.21-18.58-21.53-36.39-36.01-51.89c-6.55-7.01-14.71-12.49-21.65-19.17
		c-2.81-2.71-4.37-6.74-6.36-10.25c-0.55-0.97-0.49-2.28-0.86-3.38c-2.97-8.81-2.5-17.3,0.58-26.19c2.24-6.48,2.72-13.62,3.51-20.52
		c0.19-1.67-1.05-4.25-2.45-5.22c-8.07-5.57-16.08-11.32-24.68-15.97c-14.07-7.61-21.07-19.04-24.86-34.55
		c-3.22-13.15-4.33-26.03-4.6-39.34c-0.21-10.25-2.88-20.49-2.73-30.71c0.29-19.84,3.59-39.02,16.43-55.43
		c6.2-7.93,10-18.16,17.23-24.8c14.93-13.71,29.32-28.78,49.88-34.62c4.22-1.2,8.34-2.75,11.7-3.87
		c-3.95-4.76-8.21-8.75-11.01-13.59c-2.91-5.02-1.37-7.78,3.37-11.43c1.87-1.44,3.11-3.69,4.63-5.58c-0.47-0.41-0.94-0.82-1.41-1.23
		c-2.08,1.99-4.46,3.75-6.15,6.02c-2.19,2.94-4.28,2.37-6.83,0.81c-8.84-5.41-11.18-18.48-4.9-27.6c-10.83-4-16.06,0.36-22.84,19.34
		c-7.06-4.83-11.43-11.45-11.93-19.59c-0.37-6.14,0.37-12.79,2.46-18.54c2.71-7.48,10.56-9.06,17.44-10.94
		c3.93-1.07,8.1-1.27,13.45-2.04c-6.63-5.48-12.08-10.84-18.34-14.95c-9.97-6.55-20.46-12.3-30.77-18.33
		c-3.45-2.02-6.86-1.68-10.43,0.12c-3.85,1.94-7.95,3.37-11.89,5.14c-3.53,1.59-4.94-0.24-5.57-3.3
		c-2.17-10.56,2.35-20.21,14.84-20.89c21.22-1.16,41.76,2.53,62.21,7.37c2.37,0.56,4.71,1.22,7.24,1.34
		c-10.31-9.61-22.58-15.12-36.47-17.34c0.04-0.5,0.08-1,0.13-1.49c9.17-1.34,18.35-2.69,28.44-4.17
		c-14.12-10.87-28.49-19.67-44.3-25.72c-15.81-6.05-31.95-11.24-48.23-16.91c12.25-4.62,24.96-6.05,37.75-5.32
		c12.71,0.73,25.36,2.71,38.46,4.19c-7.03-3.95-14.07-7.91-21.11-11.86c0.1-0.34,0.19-0.69,0.29-1.03
		c10.17,1.42,20.34,2.84,31.85,4.44c-33.55-57.3-80.66-96.3-142.12-118.67c12.81-5.88,70.26,11.4,97.78,23.9
		c31.03,14.1,57.67,34.38,78.83,61.56c0.42-0.28,0.85-0.56,1.27-0.85c-3-9.6-5.81-19.27-9.03-28.79
		c-11.51-34.06-27.74-65.8-47.2-95.99c-12-18.6-23.55-37.49-35.29-56.26c-0.51-0.81-0.93-1.67-0.99-2.89
		c22.33,17.26,43.08,36.24,62.89,56.25c19.92,20.11,37.39,42.23,53.47,65.75c1.9-16.53,6.21-32.76,2.08-49.56
		c13.58,12.06,21.49,27.86,30.01,44.73c2.02-8.5,3.6-15.86,5.53-23.13c9-33.91,20.19-66.9,40.71-95.94
		c6.49-9.19,14.35-16.93,24.04-23.63c3.06,53.05-2.83,105.41-11.56,157c4.17-3.73,8.67-7.45,12.83-11.53
		c8.07-7.93,15.97-16.02,23.84-24.15c1.06-1.1,1.49-2.8,2.39-4.59c2.5-1.58,5.64-3.37,8.59-5.45c10.17-7.19,20.1-14.73,30.49-21.58
		c3.39-2.24,7.92-2.76,11.92-4.07c0.29,0.43,0.59,0.87,0.88,1.3c-20.24,33.09-40.48,66.18-60.72,99.27c0.23,0.21,0.47,0.41,0.7,0.62
		c12.08-6.87,24.17-13.74,36.25-20.61c0.4,0.46,0.8,0.93,1.2,1.39c-10.97,15.73-21.94,31.46-32.91,47.19
		c0.37,0.41,0.73,0.82,1.1,1.23c14.16-8.31,28.32-16.62,42.49-24.93c-0.21-0.29-0.42-0.58-0.64-0.87c1.93-0.48,3.99-0.68,5.76-1.49
		c16.16-7.42,32.37-14.7,51.07-18.77c-2.48,2.76-4.08,4.96-6.08,6.68c-16.92,14.51-33.63,29.29-50.97,43.28
		c-18.7,15.08-34.64,32.47-47.68,52.58c-0.43,0.66-0.72,1.42-1.66,3.3c3.89-0.89,6.83-1.43,9.69-2.24
		c14.09-3.95,28.39-6.5,42.77-2.56c4.21,1.16,8.32,4.77,11.19,8.3c4.97,6.09,7.02,18.38,5.24,27.7c-3.22-3.65-5.5-6.96-8.45-9.47
		c-13.46-11.42-20.49-11.71-35.4-2.36c-9.83,6.16-17.37,14.61-25.38,23.85c15.3,4.15,29.76,8.63,39.64,20.91
		c3.21,3.99,4.88,9.23,6.77,14.4c-20.06-12.36-39.89-12.06-61.15-1.19c4.86,1.98,8.76,3.25,12.35,5.1
		c5.78,2.99,10.55,7.1,11.61,14.03c1.35,8.88-2.27,14.78-12.31,20.26c-6.52-5.27-12.08-12.48-21.18-13.59
		c-0.31,0.48-0.62,0.96-0.93,1.44c1.82,1.15,3.8,2.1,5.42,3.48c2.21,1.89,5.13,3.79,5.95,6.27c1.06,3.2,3.02,3.85,5.56,5.16
		c10.11,5.19,17.84,12.9,21.08,24.02c1.98,6.8-1.68,11.8-9.3,13.73c-2.3-11.96-11.86-13.92-22.89-15.86
		c1.51,1.43,2.19,2.05,2.84,2.69c6.08,5.96,5.85,11.48-1.21,16.49c-2.91,2.07-6.51,3.22-9.87,4.59c-1.68,0.69-3.53,0.97-5.32,1.37
		c-2.73,0.61-4.97,2.2-4.29,4.99c0.35,1.45,2.77,2.86,4.53,3.43c19.44,6.28,34.2,18.79,45.22,35.45
		c8.55,12.91,14.4,27.21,16.23,42.88c0.96,8.23,1.39,16.65,3.55,24.58c2.19,8.04,5.13,16.32,9.73,23.15
		c5.38,7.98,7.92,15.96,6.96,25.28c-0.87,8.52-4.03,16.25-8.71,23.33c-1.88,2.84-2.22,5.36-1.4,8.82c0.88,3.73,0.49,7.9-0.04,11.79
		c-1.33,9.81-5.39,18.56-10.45,27.08c-5.54,9.34-10.95,18.7-8.7,30.79c1.64,8.84-4.15,14.05-13,16.24
		c-10.11,2.51-19.97,6.1-29.87,9.41c-3.03,1.01-5.11,3.15-4.56,6.81c0.05,0.32-0.04,0.67-0.13,0.98c-2.84,9.73,2.15,16.26,9.2,21.68
		c8.3,6.4,7.72,15.12,6.89,24.03C1030.05,249.6,1029.5,255.86,1028.92,262.37z M1036.52,118.31c0.3-0.16,0.6-0.33,0.91-0.49
		c2.1,3.13,4.57,6.07,6.2,9.42c2.16,4.42,3.51,9.24,5.54,13.73c0.6,1.31,2.35,2.1,3.57,3.13c0.37-0.29,0.74-0.58,1.1-0.88
		c-1.89-6.27-3.85-12.52-5.63-18.81c-1.39-4.9-0.43-8.94,3.59-13.52c-4.29,11.28,3.58,17.62,7.04,25.8c0.88-0.68,1.47-0.9,1.61-1.27
		c4.12-11.17,8.38-22.3,12.21-33.57c1.48-4.35-0.55-7.58-4.85-9.56c-3.6-1.66-6.84-4.14-10.49-5.66c-8.11-3.39-10.68-9.09-8.5-17.45
		c1.39-5.34-0.66-9.34-4.76-13.12c-4.45-4.11-8.13-9.09-11.93-13.86c-2.77-3.48-6.22-3.74-9.83-2.31c-4.24,1.68-6.95,4.77-7.82,9.55
		c-1.47,8.06-4.65,15.51-10.31,21.49c-4.51,4.77-9.66,8.94-14.38,13.24c0.39,0.11,1.32,0.37,2.24,0.62
		c0.04,0.47,0.08,0.94,0.11,1.42c-7.24,1.62-14.41,3.75-21.74,4.71c-6.88,0.9-14.07,1.56-20.85,0.52
		c-11.39-1.74-20.25-13.32-22.05-27.28c-0.71-5.52-0.75-11.12-1.1-16.7c-5.13,0.75-5.83,0.88-5.86,5.8
		c-0.04,9.05-4.89,13.71-12.39,17.84c-9.08,5-17.94,4.82-27.47,2.75c-2.71-0.59-6.49-0.57-8.55,0.9
		c-10.05,7.15-20.59,12.15-34.4,10.07c0,3.2,0,5.67,0,8.14c1.41-0.18,2.83-0.37,4.86-0.63c0.39,0.33,1.35,1.85,2.53,2.04
		c9.12,1.5,18.11,4.41,27.58,1.06c2.89-1.02,6.87-0.5,9.87,0.62c12.15,4.5,24.03,9.7,36.19,14.17c2.67,0.98,6.47,0.98,9.02-0.18
		c6.48-2.94,12.48-6.92,18.81-10.24c2.87-1.51,6.05-2.42,9.1-3.6c0.2,0.44,0.39,0.88,0.59,1.32c-3.57,3.2-7.14,6.4-11.12,9.97
		c14.62,2.13,23.02,10.88,29.21,22.43c-4.36-3.42-8.72-6.83-14.12-11.06c-0.49,10.04-0.9,18.56-1.37,28.37
		c-2-8.12-3.52-14.89-5.43-21.54c-0.42-1.46-2.19-2.52-3.81-4.26c-0.25,1.4-0.44,1.86-0.39,2.29c1.17,9.99,1.83,19.84-3.53,29.12
		c-1.05,1.82-0.47,4.58-0.66,7.04c3.98-0.76,7.14-1.03,10.07-2.01c2.89-0.96,5.44-2.95,8.34-3.87c2.3-0.73,4.92-0.35,7.35-0.75
		c5.3-0.88,10.58-1.91,15.84-2.98c0.54-0.11,0.94-0.9,1.4-1.39c2.29-2.47,4.57-4.95,6.87-7.43c1.66,3.62,3.07,6.69,4.55,9.9
		c2.21-3.32,3.55-7.61,6.06-8.47c2.54-0.87,6.25,1.65,9.66,2.76c4.3-6.65,5.93-7.21,10.92-4.02c3.03-1.11,5.93-3.26,7.86-2.6
		c2.43,0.84,4.07,3.98,5.76,5.81c5.57-2.34,3.5-6.22,2.09-10.18C1039.91,129.27,1038.28,123.77,1036.52,118.31z M934.2,240.16
		c2.72,1.42,5.37,3.01,8.18,4.21c10.19,4.35,20.43,8.57,30.66,12.82c0.61,0.25,1.29,0.3,1.93,0.47c4.64,1.29,9.29,2.58,13.93,3.88
		c1.74,0.49,3.47,1.42,5.2,1.4c6.47-0.09,12.97-0.22,19.4-0.86c5.75-0.57,8.7-5.05,7.14-9.18c-4.3,0.58-8.46,1.24-12.64,1.65
		c-1.86,0.18-3.89-0.61-5.62-0.16c-4.04,1.06-7.22,0.82-8.24-2.98c-3.44,0.38-6.98,1.85-9.16,0.71c-2.22-1.16-3.1-4.89-3.93-6.37
		c-3.82,0.92-7.48,2.7-11,2.46c-5.64-0.39-1.33-7.33-5.13-9.44c-10.46,2.64-10.46,2.64-12.79-5.26c-2.19-0.48-4.5-0.5-6.31-1.47
		c-6.2-3.33-12.22-6.98-18.3-10.52c-2.27-1.32-5.92-2.21-6.5-4.06c-1.13-3.6-3.61-4.89-6.33-6.3c-3.71-1.93-5.65-4.51-4.07-8.85
		c1.78-4.9,0.06-8.7-3.16-12.63c-5.66-6.93-9.02-15.12-10.62-23.92c-0.78-4.26-1.05-8.61-1.66-13.82
		c-8.35,12.52,1.96,22.04,3.26,32.64c-2.78-4.34-5.87-8.57-7.56-13.31c-1.55-4.35-3.06-9.61-1.99-13.81
		c2.02-7.96,5.25-15.8,9.16-23.05c5.33-9.87,5.46-13.56-2.53-21.39c-1.32-1.29-4.27-2.69-5.36-2.07c-2.55,1.44-6.62,4.66-6.22,6.13
		c2.1,7.84-4.72,12.46-5.91,18.95c-0.13,0.68-1.95,1.06-3.65,1.91c-0.12-4.65,2.12-8.85-2.84-11.58c-5.18-2.85-6.71-7.72-5.84-13.67
		c0.3-2.02-1.42-6.21-1.91-6.17c-3.29,0.31-6.58,1.31-9.67,2.56c-0.59,0.24-0.77,2.8-0.33,3.99c1.51,4.03,3.2,8.02,5.15,11.86
		c5.89,11.6,6.8,23.84,5.05,36.47c-1.23,8.86-2.8,17.69-3.54,26.59c-0.51,6.15,5.1,13.83,10.82,16.04
		c-0.53-3.9-1.04-7.63-1.45-10.62c4.65,5,9.18,10.34,14.2,15.16c5.16,4.95,11.03,9.16,16.15,14.14c3.03,2.95,5.22,6.78,7.79,10.21
		c-0.41,0.33-0.82,0.66-1.23,0.99c-3.42-2.02-6.84-4.03-10.26-6.05c10.86,17.89,22.34,34.88,33.95,51.78
		c0.96,1.39,2.72,2.46,4.34,3.11c8.29,3.35,17.08,5.72,24.89,9.93c11.94,6.43,21.92,3.6,31.66-4.08c0.48-0.38,1.08-0.62,1.68-0.95
		c0.45,1.06,0.82,1.93,1.16,2.75c7.48-1.85,9.57-7.33,10.22-14.24c-4.92,0.53-9.61,1.03-14.3,1.53c-0.08-0.51-0.16-1.03-0.24-1.54
		c1.65-0.54,3.34-0.98,4.95-1.64c1.52-0.63,2.94-1.48,4.41-2.23c-0.04-0.42-0.08-0.83-0.12-1.25
		C974.87,266.15,953.02,256.32,934.2,240.16z M973.99-394.31c0.36,0.07,0.72,0.13,1.07,0.2c-4.84,26.92-9.69,53.84-14.53,80.76
		c5.21-4.95,8.47-10.47,9.4-17.35c1.02-7.57,2.25-15.17,4.1-22.57c9.18-36.62,18.56-73.18,27.96-109.74
		c1.39-5.39,3.24-10.66,4.87-15.98c-3.95,23.3-9.09,46.29-13.88,69.35c-4.79,23.07-9.22,46.22-13.81,69.33
		c0.62,0.4,1.24,0.81,1.86,1.22c3.04-3.85,6.08-7.69,9.45-11.95c2.41,3.7,3.93,6.04,5.54,8.5c7.91-16.31,24.57-164.21,19.45-174.94
		c-4.22,6.53-8.38,12.69-12.26,19.02c-12.17,19.82-21.11,41.18-27.57,63.36c-7.06,24.24-13.1,48.83-18.35,73.53
		c-1.92,9.05-0.31,18.86-0.31,28.32c0.66,0.04,1.33,0.07,1.99,0.11C963.98-353.54,968.99-373.92,973.99-394.31z M961.58-6.75
		c-0.45,0.38-0.89,0.76-1.34,1.14c-7.44-7.32-16.2-12.14-26.47-13.85c-1.93-0.32-4.5-0.13-6,0.93
		c-9.03,6.39-15.64,15.02-21.66,24.02c6.56,5.39,12.74,10.65,19.2,15.56c0.9,0.69,3.34-0.01,4.74-0.72
		c5.3-2.65,10.17-6.82,15.74-8.16c15.36-3.68,31.02-3.06,46.54-0.36c9.42,1.64,18.78,3.64,29.21,5.69
		c-3.12-10.45-6.51-19.27-15.9-24.61c-10.32-5.87-18.78,0.11-27.8,3.9c1.38-1.98,2.96-3.38,4.58-4.75
		c4.55-3.86,9.28-7.53,13.53-11.69c1.05-1.03,1.31-4,0.63-5.48c-4.15-9.05-11.46-14.96-20.52-18.58
		c-6.37-2.55-12.64-1.54-17.58,3.38c-4.9,4.87-9.31,10.23-13.73,15.15C950.8-18.56,956.19-12.66,961.58-6.75z M853.95-458.66
		c8.36,16.18,17.03,32.21,25.01,48.57c15.5,31.79,28.99,64.38,34.9,99.5c1.26,7.49,5.91,10.35,12.25,13.77
		c-1.09-14.16-4.42-27-8.63-39.55c-4.17-12.44-8.91-24.73-13.98-36.84c-5.02-11.99-10.77-23.67-16.2-35.49
		c0.4-0.2,0.79-0.4,1.19-0.59c7.46,14.42,15.48,28.58,22.26,43.3c10.39,22.57,18.82,45.89,21.58,70.82
		c0.67,6.1,4.62,9.43,8.65,13.16c-1.94-29.73-11.1-57.42-23.29-84.3c0.48-0.19,0.96-0.38,1.44-0.57c4.89,9.87,9.78,19.73,14.67,29.6
		C921.53-387.22,890.94-425.13,853.95-458.66z M898.38-312.08c-5.2-22.07-78.48-76.78-105.1-78.21c4.34,3.06,8.21,5.6,11.86,8.42
		c29.63,22.88,52.33,51.44,69.21,84.74c4.76,9.4,11.18,17.3,20.15,22.97c1.1,0.7,2.39,1.1,3.59,1.65c0.45-0.43,0.9-0.85,1.34-1.28
		c-10.71-19.61-21.43-39.22-32.19-58.92c18.42,21.95,30.17,47.98,45.2,72.01c0.65-20.86-7.45-38.09-21.63-53.24
		C893.29-313.33,895.75-312.73,898.38-312.08z M830.46,76.16c-4.47-4.82-8.12-9.11-12.18-12.96c-1.65-1.56-4.21-2.17-6.35-3.21
		c-0.44,2.16-1.4,4.36-1.22,6.47c1.2,13.56,4.72,26.57,9.87,39.14c3.48,8.51,17.78,13.6,25.66,9.1c0.95-0.54,2.12-2.07,1.98-2.95
		c-0.77-4.64-1.17-8.93,5.88-10.79c-3.42-0.91-5.18-1.36-6.93-1.84c-5.52-1.52-10.9-4.99-16.05,1.74c-1.24,1.62-6.33,0.3-9.64,0.33
		c0.62-2.58,0.71-5.46,1.97-7.68c5.26-9.33,10.89-18.45,16.31-27.69c0.65-1.11,0.64-2.59,1.19-3.78c1.72-3.68,3.28-7.49,5.46-10.89
		c1.77-2.77,4.54-4.88,6.48-7.57c0.73-1.02,1.03-3.54,0.36-4.18c-4.28-4.12-8.52-8.45-13.47-11.64c-4.75-3.06-10.41-2.49-14.08,2.08
		c-4.95,6.16-9.17,12.93-13.44,19.61c-0.47,0.74,0.39,3.37,1.25,3.76c6.69,3.02,11.04,8.35,14.93,14.23
		c0.12,0.18,0.5,0.18,0.81,0.28c0.71-1.16,1.41-2.31,2.11-3.45c0.22,0.1,0.44,0.2,0.67,0.3C831.54,68.17,831.06,71.76,830.46,76.16z
		 M1003.71-341.67c4.37-5.34,8.22-10.05,12.07-14.76c0.21,1.71-0.34,2.87-0.91,4.02c-4.27,8.65-8.69,17.23-12.72,25.99
		c-1.16,2.52-1.2,5.56-1.76,8.37c0.42,0.05,0.83,0.1,1.25,0.15c12.2-20.4,24.39-40.8,36.59-61.2c0.5,0.29,0.99,0.57,1.49,0.86
		c-7.29,13.33-14.49,26.71-21.89,39.97c-7.45,13.35-12.52,27.48-15.28,41.37c25.22-43.87,50.86-88.46,76.51-133.05
		c-7.58,6.31-14.69,13.13-21.82,19.91c-13.47,12.82-26.46,26.21-40.61,38.23C1007.14-363.75,1003.47-354.34,1003.71-341.67z
		 M1003.2-255.92c3.17,3.75,4.27,4.09,7.17,1.66c2.01-1.68,3.64-3.85,5.36-5.87c9.58-11.28,19.02-22.69,28.77-33.83
		c3.22-3.68,7.21-6.7,9.52-8.81c-10.56,14.01-22.18,29.42-33.8,44.83c0.68,0.56,1.36,1.13,2.05,1.69
		c5.34-5.98,11.24-11.56,15.93-18.01c11.87-16.34,24.77-31.62,40.26-44.68c8.48-7.15,16.62-14.72,24.91-22.1
		c-0.24-0.4-0.48-0.8-0.72-1.2c-3.93,1.92-7.82,3.93-11.79,5.75c-28.44,13-53.12,31.36-75.62,52.86c-2.24,2.14-2.82,3.81-1.24,6.82
		c3.4,6.48,1.93,11.59-4.01,16.1C1007.87-259.11,1005.66-257.65,1003.2-255.92z M981.34-279.57c3.14-0.45,5.08-1,6.99-0.94
		c4.55,0.14,6-1.93,5.81-6.34c-0.42-9.78-0.14-19.6-0.78-29.37c-0.43-6.59-1.95-13.11-2.98-19.66c-0.54-0.02-1.09-0.04-1.63-0.06
		c-3.32,4.13-7,8.02-9.87,12.44c-7.41,11.39-15.08,22.68-21.47,34.64c-5.31,9.96-2.74,20.42,1.1,30.93
		c5.21-4.03,8.07-8.23,8.62-14.25c0.59-6.44,2.07-12.8,3.22-19.19c0.32-1.77,0.84-3.51,1.26-5.26c0.26,0.07,0.53,0.13,0.79,0.2
		c-0.91,8.24-1.82,16.49-2.82,25.6c4.95-2.83,7.11-5.73,7.32-10.24c0.2-4.31,0.87-8.62,1.71-12.86c1.48-7.41,3.25-14.75,4.9-22.12
		c0.25,0.07,0.5,0.14,0.75,0.22C983.32-304.01,982.37-292.18,981.34-279.57z M881.39-202.81c2.25,0.63,3.75,0.77,4.96,1.44
		c7.25,4,14.21,8.62,21.72,12.05c6.41,2.93,13.42,4.56,20.17,6.76c-10.4-18.74-73.9-42.23-97.29-37.1
		c13.32,3.85,25.95,9.12,37.05,17.65c-11.18-4.31-22.09-9.44-34.59-9.46c16.79,9.37,33.78,18.31,51.09,26.57
		c5.9,2.81,12.63,3.64,19.8,1.06C899.35-193.46,889.45-196.29,881.39-202.81z M827.07-30.45c0.83,1.11,1.43,2.54,2.5,3.27
		c6.85,4.67,13.78,9.21,20.72,13.74c4.41,2.88,11.65,0.33,14.18-4.17c3.64-6.48,7.6-12.84,12.06-18.77c2.25-3,2.42-4.81-0.45-6.92
		c-5.75-4.22-11.48-8.46-17.3-12.57c-4.06-2.87-8.63-2.79-11.97,0.55c-6.28,6.28-12.02,13.12-17.82,19.87
		C827.98-34.3,827.8-32.44,827.07-30.45z M870.15,36.1c4.65,2.88,9.89,4.78,13.13,8.44c5.57,6.29,10.91,5.84,18.23,3.66
		c8.35-2.49,15.51-5.23,18.37-14.28c0.34-1.07,1.57-1.94,1.71-2.99c0.2-1.54,0.39-3.68-0.46-4.66c-3.26-3.75-6.58-7.62-10.54-10.54
		c-5.96-4.39-12.71-8.14-20.28-4.14C880.17,16.95,874,25.81,870.15,36.1z M919.69-21.38c-3.41-6.51-8.85-11.72-15.28-16
		c-6.06-4.03-11.99-3.9-18.1,0.19c-7.46,5-10.77,12.65-14.46,20.34c-2.18,4.55-0.8,6.24,2.87,8.57c4.38,2.79,8.34,6.3,12.24,9.76
		c2.97,2.63,12.62,2.5,15.14-0.65C907.94-6.44,913.69-13.79,919.69-21.38z M961.21-51.5c-7.84-5.89-14.1-11.03-20.81-15.47
		c-4.36-2.89-9.27-1.91-13.81,0.48c-8.62,4.52-14.21,11.9-18.76,20.17c-0.51,0.94-0.27,3.02,0.46,3.78
		c4.55,4.82,9.24,9.54,14.08,14.07c4.04,3.78,13.83,2.25,17.41-1.91c4.96-5.78,10.37-11.17,15.68-16.65
		C956.7-48.33,958.3-49.28,961.21-51.5z M859.16-63.8c7.79,5.65,15.39,11.23,23.09,16.65c1.11,0.78,2.88,1.3,4.18,1.06
		c8.55-1.57,17.4-2.61,21.93-11.86c1.07-2.18,3.52-3.68,4.57-5.86c0.85-1.76,1.32-4.36,0.64-6.08c-2.14-5.48-6.97-8.03-12.18-10.29
		c-7.93-3.45-14.65,0.75-21.59,2.93C871.64-74.67,864.35-70.42,859.16-63.8z M991.54-209.94c9.37-8.12,18.74-16.23,28.1-24.35
		c0.29,0.33,0.59,0.67,0.88,1c-5.94,6.88-11.88,13.75-18.61,21.55c6.99-1.36,12.3-2.94,17.69-3.27c3.95-0.24,6.42-1.67,8.71-4.63
		c11.57-14.93,25.39-27.27,42.12-36.23c0.92-0.49,1.67-1.3,2.51-1.96c-0.14-0.44-0.28-0.87-0.43-1.31
		c-3.13,0.57-6.63,0.44-9.32,1.86c-6.3,3.33-12.44,7.09-18.22,11.26c-5.53,4-10.53,8.74-15.76,13.16c-0.33-0.37-0.65-0.74-0.98-1.11
		c8.63-7.79,17.27-15.57,26.7-24.09c-14.29,3.4-25.74,10.52-37.84,16.28C1003.3-235.23,997.53-222.75,991.54-209.94z M1001.21-15.24
		c11.8,3.19,19.28,10.57,24.69,21.56c6.61-10.38,16.45-9.74,26.35-9.18c-0.69-10.18-4.88-18.07-10.72-25.32
		c-3.96-4.91-8.93-6.77-15.01-5.57C1015.5-31.6,1007.39-25.4,1001.21-15.24z M883.08,6.33c-5.7-4.06-10.91-8.46-16.75-11.73
		c-5.43-3.04-10.9-1.86-15.49,2.73c-6.12,6.12-9.95,13.54-13,21.57c7.23,4.86,14.3,9.47,21.19,14.32c2.29,1.62,3.49,1.08,4.77-1.02
		c1.82-2.97,3.58-6,5.68-8.77C873.56,18.05,877.86,12.85,883.08,6.33z M981.69-218.92c1.81-3.49,4.52-6.49,4.82-9.72
		c1.04-10.99,2.36-21.85,7.09-31.94c2.06-4.38-0.44-6.35-3.29-8.66c-3.18-2.58-5.79-1.79-8.26,0.9c-3.49,3.8-6.95,7.62-11.41,12.51
		c1.53-3.92,2.54-6.49,3.54-9.05c-0.5-0.34-1.01-0.67-1.51-1.01c-6.23,7.7-12.96,15.05-18.51,23.2c-4.17,6.12-1.53,10.25,5.56,10.62
		c0.5,0.03,1,0.06,1.5,0.08c8.17,0.34,8.02,0.26,11.49-7.22c2.94-6.33,6.3-12.47,9.47-18.69c0.39,0.2,0.78,0.41,1.17,0.61
		c-2.66,7.45-5.38,14.87-7.93,22.36c-0.46,1.33-0.77,3.15-0.23,4.31C976.92-226.96,979.09-223.51,981.69-218.92z M846.71-7.34
		c-5.99-6.41-13.22-12.07-22.34-14.78c-1.35-0.4-3.54,0.3-4.68,1.26c-6.63,5.61-8.4,13.55-10.18,21.58
		c-0.87,3.95,0.42,6.13,3.37,8.41c4.04,3.13,7.85,6.6,11.48,10.2c1.93,1.92,3.52,2.4,5.43,0.41c1.48-1.53,3.07-3.06,4.14-4.86
		C838.21,7.67,842.31,0.34,846.71-7.34z M936.6-232.3c5.59-1.67,8.28-4.62,8.05-9.65c-0.25-5.65-0.34-11.34-1.2-16.91
		c-2.82-18.47-16.28-28.23-30.76-37.69c-0.24,1.08-0.46,1.45-0.36,1.68c7.31,17.49,11.61,35.62,12.17,54.65
		c0.12,4.11,3.1,6.67,8.57,7.39c-0.87-7.58-1.21-14.71-2.61-21.62c-1.43-7.06-3.9-13.91-5.92-20.85
		C931.54-262.01,935.47-247.83,936.6-232.3z M969.03-55.33c0.16-0.46,0.32-0.92,0.48-1.38c4.13,4.17,8.41,4.45,11.91,0.89
		c3.63-3.7,7.46-7.21,10.94-11.05c0.83-0.91,1.33-3.17,0.78-4.11c-4.78-8.27-11.4-14.45-21.36-15.21c-3.2-0.25-7.03,0.74-9.71,2.48
		c-3.97,2.58-7.15,6.35-10.7,9.58c-1.84,1.67-2.01,3.1-0.01,4.93c4.38,4.01,8.49,8.33,12.94,12.27
		C965.44-55.92,967.42-55.84,969.03-55.33z M1004.04-31.16c7.76-3.5,15.53-7.01,23.66-10.68c-3.33-8.79-8.91-16.18-17.7-20.74
		c-1.92-0.99-4.7-1.53-6.7-0.95c-8.26,2.42-14.36,7.66-17.92,14.37C992.06-42.71,998.21-36.78,1004.04-31.16z M941.39-394.62
		c2.85,11.16,5.69,22.32,8.54,33.48c2.11-6.83,5.47-13.48,2.05-20.66c-4.85-10.2-9.77-20.36-14.72-30.51
		c-0.45-0.91-1.37-1.59-2.3-2.64c-0.39,1.12-0.76,1.74-0.8,2.37c-0.94,13.78-2.27,27.55-2.52,41.34c-0.08,4.36,2.75,8.78,4.24,13.17
		c0.45-0.14,0.9-0.28,1.36-0.42c0.18-1.77,0.36-3.53,0.54-5.3c0.23-0.01,0.46-0.02,0.69-0.02c2.1,7.58,4.19,15.17,6.29,22.75
		C948.73-359.41,941.9-376.6,941.39-394.62z M818.03-283.37c0.04,0.29,0.08,0.58,0.12,0.87c17.77,6.85,36.3,12.25,53.11,20.96
		c16.86,8.74,32,20.79,47.9,31.39c-5.08-10.48-11.23-19.81-21.11-26.03c-18.16-11.44-37.59-19.91-58.61-24.36
		C832.42-282.03,825.18-282.46,818.03-283.37z M1010.52-193.88c18.7,0.05,35.08-12.26,55.53-7.4c-6.9-6.39-15.04-10.64-21.71-10.53
		c-13.96,0.22-27.92,1.14-41.26,5.79c-5.17,1.8-9.54,4.89-12.77,9.57c11.79,7.5,20.72-4.3,31.97-3.35
		C1017.99-197.64,1014.25-195.76,1010.52-193.88z M991.46,73.44c2.93-3.11,5.47-5.25,7.23-7.9c0.92-1.38,1.11-3.89,0.54-5.5
		c-3.93-11.07-8.33-21.97-12.22-33.06c-3.41-9.73-6.02-11.4-17.06-9.19C977.01,36.04,984.03,54.2,991.46,73.44z M892.69,58.79
		c-2.11-0.13-5.52-1.23-8.3-0.35c-11.51,3.65-22.87,7.77-34.19,11.96c-5.33,1.97-8.08,6.37-9.91,12.25c1.85,0,3.24,0.36,4.33-0.06
		c6.14-2.36,13.15-3.72,18.07-7.67c7.96-6.39,16.5-7.6,25.72-6.28c9.64,1.38,16.46-3.46,23.5-8.56c-5.51-7.29-7.15-7.91-15.16-5.02
		C895.23,55.61,894.16,57.4,892.69,58.79z M927.26-201.07c-1.12-9.65-7.66-21.01-14.97-24.64c-10.51-5.22-22.04-6.75-34.47-8.56
		c7.44,7.78,13.89,15.08,20.96,21.72c4.09,3.84,9.38,6.03,16.95,5.69c-4.52-4.75-8.13-8.54-11.74-12.34c4.38,2.21,8.23,5,11.88,8.04
		C919.68-208.02,923.28-204.63,927.26-201.07z M951.43-161.31c0.2,0.25,0.36,0.67,0.62,0.74c11.77,3.21,21.44,9.46,28.67,19.44
		c0.62,0.86,3.04,1.3,4.1,0.82c5.78-2.65,10.06-6.91,12.62-12.87c1.47-3.44,0.47-6.12-2.61-7.47c-3.35-1.47-7.07-2.11-10.91-3.2
		c0.33,11.71,0.33,11.71-1.02,13.03C981.8-162.43,965.24-165.69,951.43-161.31z M939.67-218.3c-1.04,5.99-1.38,11.54-3.03,16.67
		c-2.24,6.95,0.34,11.82,5.08,16.29c1.08,1.02,2.08,2.39,3.38,2.87c2.12,0.77,4.9,1.89,6.6,1.11c1.8-0.82,3.48-3.59,3.75-5.7
		c0.59-4.76,0.36-9.62,0.32-14.45c-0.07-7.26-0.91-8.28-8.4-10.58c-0.9,3.76-1.8,7.51-2.88,12.01
		C941.9-206.39,948.22-213.65,939.67-218.3z M1066.42,28.02c-5.23-11.39-12.11-19.03-21.26-22.41c-2.5-0.92-6.61-0.65-8.61,0.88
		c-3.8,2.91-6.61,7.12-10.49,11.54C1040.27,21.54,1053.18,24.74,1066.42,28.02z M954.02-88.47c-16.11-1.33-31.16-3.28-46.19,3.52
		C922.29-71.14,940.27-71.31,954.02-88.47z M971.36-118.98c-3.73-12.87-12.06-15.99-23.96-8.21c8.95,5.41,17.48,11.09,16.57,23.17
		c9.51-2.07,15.48-8.26,16.39-16.47c0.7-6.32-1.91-9.34-7.78-8.76C972.17-125.85,971.77-122.41,971.36-118.98z M936.16-173.54
		c0.03-0.54,0.07-1.09,0.1-1.63c-5.17-0.55-10.63-2.38-15.43-1.29c-4.57,1.04-8.45,5.13-12.24,7.63c0.17-1.47,0.47-4,0.77-6.6
		c-5.91,0.34-9.1,2.1-9.78,5.79c-1.51,8.22,3.43,13.27,8.61,17.63c4.01-4.68,7.24-9.91,11.81-13.39
		C924.71-169.01,930.72-170.9,936.16-173.54z M1053.38-343.89c-18.86,5.2-36.48,31.54-32.92,48.47
		C1031.71-311.99,1042.54-327.94,1053.38-343.89z M844.53,63.83c13.68-3.91,26.03-7.45,38.38-10.98c0.03-0.5,0.05-0.99,0.08-1.49
		c-3.41-2.29-6.65-4.88-10.26-6.78c-4.32-2.28-9.13-2.67-13.29,0.21C852.94,49.29,848.09,55.28,844.53,63.83z M954.49,18.55
		c1.54,4.16,2.89,7.91,4.32,11.63c5.72,14.9,11.41,29.81,17.25,44.66c0.8,2.02,1.12,5.61,4.86,4.04c3.89-1.63,1.13-4.26,0.38-6.26
		c-6.51-17.27-13.24-34.45-19.68-51.75C960.16,16.93,958.11,16.6,954.49,18.55z M999.6-173.25c0.99,0.6,1.25,0.86,1.54,0.91
		c1.48,0.24,2.96,0.42,4.44,0.61c10.88,1.45,20.99,4.74,29.58,11.94c1.43,1.2,4.53,2.8,4.99,2.34c1.83-1.83,3.91-4.32,4.11-6.71
		c0.55-6.72-7.69-13.12-16.92-12.63c3.34,2.75,5.98,4.94,8.63,7.12c-0.28,0.36-0.56,0.73-0.84,1.09
		C1024.26-175.8,1013-179.99,999.6-173.25z M923.89-146.74c-4.27-0.11-7.69,1.21-9.5,5.02c-2.91,6.11-1.24,11.81,5.06,17.93
		c8.12-10.26,19.24-16.47,30.71-22.35c-11.01-1.68-20.68,1.03-30.1,7.29C921.29-141.38,922.52-143.91,923.89-146.74z M1024.26-60.55
		c3.07,5.32,6.04,10.42,8.97,15.55c3.61,6.34,7.47,7.5,14.49,4.88c3.54-1.32,3.86-3.63,2.21-6.12c-2.63-3.98-5.48-7.91-8.8-11.31
		C1034.41-64.41,1033.11-64.45,1024.26-60.55z M1075.81,78.15c3.74-6.65,6.16-11.99,2.81-18.4c-1.98-3.8-3.34-7.95-4.76-12.02
		c-2.18-6.23-6.21-10.04-13.79-10.76C1065.28,50.62,1070.32,63.81,1075.81,78.15z M1026.11-68.01c-7.68-7.82-24.93-15.35-33.82-14.4
		c6.57,3.01,5.86,12.89,14.78,12.41C1013.38-70.33,1018.7-61.6,1026.11-68.01z M808.49,41.55c3.86-5.09,6.47-9.13,9.7-12.61
		c3.09-3.33,2.55-6.22-0.01-9.17c-1.4-1.61-3.07-3.07-4.85-4.23c-3.79-2.47-6.46-1.05-6.51,3.5c-0.04,3.89,0.21,7.8,0.49,11.68
		C807.53,33.97,808,37.18,808.49,41.55z M1050.85,35.02c-0.51,0.53-1.02,1.06-1.53,1.59c6.56,16.29,11.82,33.12,20.61,48.63
		c0.96-1.67,1.13-3.15,0.71-4.43c-1.17-3.6-2.55-7.14-3.9-10.68c-4.06-10.68-8.06-21.38-12.3-31.98
		C1053.92,36.82,1052.08,36.04,1050.85,35.02z M845.45-142.29c6.11-10.53,13.8-19.1,24.29-25.05c-2.78-0.04-5.75-0.34-7.78,0.89
		c-4.21,2.57-7.92,5.96-12.47,9.49c2.04-3.35,3.74-6.16,5.67-9.34C844.97-164.55,840.42-153.25,845.45-142.29z M1010.43-134.05
		c13.91,3.17,26.78,5.43,37.38,15.1C1045.93-133.93,1030.73-140.04,1010.43-134.05z M967.57-211.1c-6.19,1.61-7.48,4.38-6.78,8.72
		c0.69,4.25,0.86,8.59,1.26,12.89c0.4,4.36,1.73,8.23,5.32,10.91c0.61-0.08,1.22-0.17,1.83-0.25
		C968.67-189.41,968.13-200,967.57-211.1z M990.87-116.19c3.33,0.98,5.63,1.41,7.73,2.31c3.61,1.55,8,2.57,10.41,5.28
		c3.67,4.12,6.5,2.85,9.67,0.39c1.28-1,3.06-3.32,2.68-4.08c-0.73-1.48-2.69-2.72-4.4-3.27c-2.79-0.9-5.91-0.81-8.67-1.78
		C1002.66-119.31,997.31-118.78,990.87-116.19z M969.04,236.43c0.33,2.27,0.45,4.6,1.09,6.77c0.35,1.18,1.51,2.83,2.47,2.95
		c1.13,0.14,2.91-0.82,3.6-1.85c2-3,4.1-6.1,5.25-9.48c2.18-6.38,0.21-8.13-6.38-6.82C970.2,228.99,968.09,231.43,969.04,236.43z
		 M944.52,218.9c-4.57-2.29-5.7-0.4-6.45,2.75c-0.73,3.07,0.29,4.29,3.26,4.66c1.06,0.13,2.28,0.83,2.97,1.65
		c1.82,2.18,4.46,3.9,5.97,1.08c1.79-3.34,3.31-8.01,2.28-11.27c-0.65-2.07-6.15-2.61-9.47-3.84c-0.22,0.5-0.43,1-0.65,1.49
		C942.9,216.2,943.37,216.98,944.52,218.9z M857.87-263.78c16.89,14.99,26.47,20.2,35.5,19.42
		C882.57-253.3,870.73-259.48,857.87-263.78z M944.76-225.46c-0.13,0.48-0.26,0.96-0.4,1.44c4.91,3.3,9.17,8.41,15.98,7.18
		c3.84-0.69,7.45-2.76,8.7-8.62C960.61-225.46,952.68-225.46,944.76-225.46z M984.47,245.19c0.43,1.17,1.15,3.08,1.86,5
		c1.86-0.84,4.08-1.3,5.5-2.62c1.88-1.75,3.41-4.03,4.6-6.33c1.71-3.33,1.16-6.13-2.93-7.37c-4.53-1.38-6.83-0.3-7.89,3.97
		C985.1,239.92,984.94,242.09,984.47,245.19z M1006.49,146.08c-3.04,5.12-4.49,10.64-3.45,16.42c0.69,3.89,3.96,4.49,7.04,1.87
		C1015.75,159.56,1014.18,150.41,1006.49,146.08z M993.15-276.11c4.24,3.76,8.52,7.55,12.8,11.33c-0.74,1.3,0.71,0.95,1.17,0.07
		c1.38-2.61,3.4-5.46,3.29-8.14c-0.16-3.7-3.88-3.99-6.99-3.88C999.62-276.57,995.82-276.27,993.15-276.11z M975.01-182.95
		c4.61-12.19,3.42-22.96-1.11-35.16c-1.73,3.01-4.06,5.16-3.82,6.98C971.26-202.19,973.12-193.34,975.01-182.95z M1034.34,162.47
		c4.51-0.18,6.89-0.92,5.41-5.12c-1.26-3.59-2.01-7.37-3.46-10.87c-0.56-1.35-2.43-2.16-3.71-3.22c-1.01,1.35-2.91,2.73-2.87,4.05
		c0.12,4.25,0.7,8.53,1.66,12.67C1031.67,161.23,1033.8,162.04,1034.34,162.47z M938.89,209.83c-6.54-3.34-6.54-3.33-11.07-0.07
		c-0.09,0.07-0.32-0.07-0.48-0.07c-3.8,0.1-4.75,3.33-3.21,5.2c2.14,2.59,5.77,3.98,8.86,5.72c0.15,0.09,1.32-1.27,1.74-2.09
		C936.15,215.74,937.43,212.9,938.89,209.83z M1022.11,149.65c0.85-1.27,1.81-2.22,2.06-3.33c0.11-0.48-1.42-1.95-1.92-1.83
		c-1.15,0.29-2.73,1.06-3.07,2.02c-1.1,3.05-1.72,6.28-2.52,9.44c-1.31,5.17,2.19,6.12,5.84,5.88c1.73-0.11,4.48-1.86,4.8-3.3
		C1028.28,154.04,1025.48,149.76,1022.11,149.65z M995.07,148.61c-7.28,2.65-5.44,7.85-5.67,12.2c-0.16,2.99,0.19,5.84,4.32,5.61
		c3.64-0.2,6.4-1.86,5.58-5.75C998.43,156.54,996.52,152.61,995.07,148.61z M973.71,160.85c0.96-4.83-2.94-4.6-6.2-4.68
		c-4.29-0.1-6.75,3.1-6.83,8.3c-0.04,2.49,0.51,4.12,3.58,4.03C971.83,168.29,973.73,166.95,973.71,160.85z M894.69-113.92
		c-0.34-0.19-0.68-0.38-1.02-0.57c-1.31,1.43-3.51,2.75-3.7,4.31c-0.24,2.03,0.59,4.76,1.98,6.21c0.96,1,4.25,1.14,5.47,0.26
		c4.36-3.15,8.28-6.91,12.16-10.26c-4.91-1.88-4.91-1.88-15.63,5.58C894.22-110.46,894.46-112.19,894.69-113.92z M955.83,225.6
		c-0.26,2.54-0.99,4.93-0.55,7.07c0.36,1.77,2.11,3.27,3.25,4.88c2.4-2,5.79-3.59,6.85-6.14c0.78-1.89-1.38-5.09-2.5-7.58
		c-0.19-0.41-1.78-0.19-2.72-0.26c0.08,0.99,0.16,1.97,0.25,3.06C958.83,226.28,957.43,225.96,955.83,225.6z M997.89,247.78
		c0.79,1.47,1.16,3.12,2.16,3.71c0.72,0.42,2.67-0.21,3.38-1c1.95-2.18,3.91-4.52,5.12-7.15c0.6-1.31-0.42-3.37-0.7-5.09
		c-2.11,0.4-5.03,0.1-6.16,1.38C999.84,241.72,999.17,244.84,997.89,247.78z M893.91-138.86c-7.6-3.65-10.64,4.52-15.88,6.77
		c1.16-2.74,2.22-5.23,3.27-7.73c-0.59-0.4-1.18-0.79-1.77-1.19c-1.44,1.45-3.8,2.72-4.13,4.4c-0.71,3.56-0.02,7.2,3.22,9.15
		C883.78-131.3,888.72-134.99,893.91-138.86z M925.12-115.07c-1.72,4.71-4.86,7.32-3.22,11.1c7.92-2.38,15.26-4.58,22.59-6.79
		c-0.14-0.71-0.29-1.43-0.43-2.14c-4.07,0.46-8.17,0.72-12.18,1.46C929.15-110.94,926.39-109.18,925.12-115.07z M1055.29-18.94
		c3.67-4.66,4.16-9.69-0.1-13.83c-1.62-1.58-5.66-0.67-9.48-0.96C1049.49-27.9,1052.41-23.4,1055.29-18.94z M948.27,171.8
		c7.15,0.11,10.39-2.34,10.03-6.91c-0.6-7.61-6.2,0.17-8.44-2.61c-1.02,1.3-2.77,2.54-2.89,3.91
		C946.82,168.16,947.86,170.21,948.27,171.8z M986.58,163.04c-0.47-2.24-0.45-3.89-1.17-5.1c-0.92-1.54-2.44-2.73-3.7-4.07
		c-1.35,1.49-3.08,2.79-3.95,4.53c-1.1,2.18,1.29,5.01-0.87,7.27c-0.1,0.11,0.43,1.17,0.64,1.16c2.26-0.09,4.64,0.07,6.71-0.64
		C985.38,165.79,986,163.88,986.58,163.04z M1006.9,217.57c-1.85,0.41-3.39,0.75-4.92,1.1c0.52,1.76,0.96,3.56,1.6,5.27
		c0.2,0.55,0.89,0.97,1.44,1.32c6.11,3.84,3.82-6.97,8.83-5.08c0.12-0.86,0.67-2.07,0.29-2.53c-2.07-2.5-4.16-5.33-8.28-3.21
		C1006.28,215.71,1006.66,216.85,1006.9,217.57z M1014.1,178.64c2.88-0.48,5.38-0.62,7.66-1.41c1-0.34,2.15-2,2.17-3.08
		c0.03-2.32-0.28-4.8-1.23-6.86c-0.26-0.56-3.67-0.44-4.97,0.4C1014.09,170.02,1012.78,173.57,1014.1,178.64z M1045.99,145.75
		c-6.14,6.01-2.96,11.27-2.1,16.2c0.2,1.14,2.74,1.87,4.2,2.79c0.45-0.35,0.9-0.7,1.35-1.05
		C1048.36,158.07,1047.28,152.45,1045.99,145.75z M926.07,202.08c-2.69-1.4-5.67-2.95-8.65-4.5c-0.22,0.32-0.45,0.63-0.67,0.95
		c0.47,0.87,0.94,1.74,1.68,3.09c-1.85-0.42-3.17-0.72-4.9-1.11c0,2.08,0,3.66,0,4.84C918.69,208.16,923.51,209.98,926.07,202.08z
		 M995.83,217.3c3.32-2.53,5.77-4.15,7.88-6.13c0.7-0.66,1.13-2.73,0.66-3.32c-1.8-2.22-3.78-4.79-7.53-2.77
		c0.37,1.34,0.7,2.55,0.91,3.32c-1.63,0.72-4.22,1.54-4.16,1.89C994,212.61,994.98,214.85,995.83,217.3z M1027.87,174.19
		c3.63-0.86,5.53-1.56,7.47-1.7c1.92-0.14,3.88,0.28,7.36,0.59c-1.46-2.53-2.14-5.25-3.36-5.52c-3.05-0.68-6.46-0.73-9.46,0.02
		C1028.88,167.83,1028.68,171.3,1027.87,174.19z M1026.8,25.94c-0.51,0.45-1.02,0.9-1.53,1.36c0.97,1.39,1.64,3.46,2.97,4.05
		c7.98,3.55,8.67,3.33,13.15-2.26C1036.42,28.01,1031.61,26.97,1026.8,25.94z M1021.4,226.03c-3.82-4.76-3.8-4.74-7-0.43
		c-0.33,0.44-1.57,0.39-1.68,0.77c-0.42,1.44-1.01,3.09-0.66,4.43c0.32,1.21,1.79,2.11,2.75,3.15c0.97-0.93,2.06-1.77,2.9-2.81
		C1018.96,229.61,1020.03,227.94,1021.4,226.03z M1007.02,22.12c-0.23,0.5-0.47,1-0.7,1.5c3.76,2.41,7.43,4.99,11.36,7.06
		c0.76,0.4,3.47-0.97,3.66-1.87c0.27-1.3-0.63-3.96-1.55-4.22C1015.63,23.43,1011.29,22.89,1007.02,22.12z M1061.02-18.42
		c-0.54,0.06-1.07,0.11-1.61,0.17c-3.56,6.5-0.23,12.26,1.66,18.17c0.63-0.07,1.25-0.13,1.88-0.2
		C1062.31-6.33,1061.67-12.37,1061.02-18.42z M1017.88,238.59c-3.82,0.92-8.42,7.68-8.65,12.71
		C1015,249.46,1018.73,243.98,1017.88,238.59z M1053.06,166.17c0.9-0.16,1.8-0.32,2.7-0.47c-0.83-4.57-1.66-9.13-2.5-13.7
		c-0.71,0.12-1.43,0.24-2.14,0.37C1051.77,156.97,1052.41,161.57,1053.06,166.17z M1018.64,247.3c4.78-1.98,6.2-5.37,5.81-9.48
		c-0.47-0.19-0.94-0.39-1.4-0.58C1021.57,240.59,1020.1,243.95,1018.64,247.3z"/>
	<g class="st1">
		<path d="M636.46-302.25c16.56,3.42,32.17,6.65,47.78,9.86c11.89,2.45,23.76,4.95,35.68,7.27l10.84,2.07
			c16.44,3.53,32.91,6.9,49.37,10.3c9.94,2.05,19.97,3.73,29.77,6.3c3.06,0.8,5.48,4,8.2,6.1c-0.34,0.62-0.68,1.24-1.02,1.86
			c-56.29-11.48-112.58-22.96-170.06-34.69c12.16,31.7,23.94,62.41,35.73,93.12c11.91,31.02,23.84,62.04,35.74,93.07
			c11.9,31.02,23.78,62.05,35.68,93.07c11.95,31.15,23.9,62.3,35.88,93.44c11.92,30.97,23.91,61.91,35.81,92.89
			c11.89,30.95,23.58,61.97,35.57,92.87c11.91,30.68,23.24,61.61,36.63,91.62c0.19,1.79,0,3.72,0.62,5.35
			c6.64,17.55,13.4,35.06,20.13,52.58c10.97,28.57,21.93,57.14,32.91,85.7c0.46,1.2,1.12,2.34,2.28,4.74
			c25.31-72.59,50.23-144.08,75.41-216.28l1.66-5.14c7.13-19.97,13.99-40.04,20.95-60.08c8.44-24.29,16.93-48.57,25.36-72.86
			c8.09-23.31,16.13-46.63,24.21-69.94c12.03-34.69,24.08-69.38,36.14-104.06c7.76-22.3,15.64-44.55,23.31-66.88
			c5.6-16.32,10.85-32.76,16.42-49.08c2.19-6.43,4.96-12.67,7.24-19.08c2.66-7.48,5.07-15.04,7.82-23.27
			c-7.95-1.67-15.53-3.29-23.13-4.86c-18.07-3.73-36.14-7.43-54.22-11.14c-5.81-1.19-11.63-2.36-17.44-3.56
			c-5.09-1.06-5.3-1.41-4.44-7.58c35.94,7.26,71.85,14.52,108.52,21.94c-5,14.22-9.9,28.07-14.73,41.94
			c-4.88,13.99-9.68,28.01-14.54,42c-4.91,14.14-9.86,28.27-14.77,42.41c-4.86,13.98-9.72,27.97-14.56,41.95
			c-4.85,13.99-9.67,28-14.53,41.99c-4.86,13.98-9.79,27.95-14.66,41.93c-4.87,13.98-9.69,27.97-14.55,41.95
			c-4.86,13.99-9.76,27.96-14.63,41.95c-4.91,14.11-9.74,28.24-14.7,42.33c-4.78,13.59-8.87,27.39-14.07,40.85
			c-5.29,13.69-9.74,27.7-14.53,41.58c-4.79,13.87-9.5,27.77-14.32,41.63c-4.86,13.96-10.02,27.82-14.65,41.85
			c-4.52,13.7-9.56,27.21-14.19,40.86c-4.79,14.12-9.78,28.17-14.68,42.26c-4.85,13.94-9.7,27.88-14.53,41.82
			c-4.82,13.91-9.6,27.84-14.88,43.15C848.12,249.19,742.48-26.02,636.46-302.25z"/>
		<path d="M857.95,363.32c-2.9-7.14-5.93-14.31-8.73-21.56c-11.09-28.69-22.1-57.4-33.15-86.1c-6.14-15.95-12.29-31.9-18.46-47.85
			c-14.46-37.36-28.93-74.71-43.4-112.06c-8.78-22.66-17.55-45.33-26.44-67.95c-0.73-1.86-2.36-3.37-3.29-4.65
			c-0.17-1.87,0.06-3.7-0.53-5.23c-5.87-15.35-11.88-30.65-17.84-45.98c-0.17-0.44-0.18-0.95-0.36-2c1.73-0.67,3.5-1.35,5.69-2.19
			c1.65,3.89,3.29,7.48,4.71,11.15c11.96,31,23.81,62.05,35.83,93.03c11.29,29.09,22.82,58.08,34.09,87.17
			c14.14,36.5,28.1,73.07,42.18,109.59c11.3,29.3,22.67,58.57,34.01,87.85C864.42,362.12,864.41,362.12,857.95,363.32z"/>
		<path d="M1247.86-212.45c-20.03,61-39.85,121.34-59.78,182.03c-2.23-0.76-3.9-1.32-6.28-2.13
			c18.99-58.25,37.91-116.26,56.82-174.27l-35.26-7.62c-25.75-5.34-51.53-10.51-77.3-15.75c-1.1-0.22-2.13-0.76-3.48-1.25
			c0.61-1.9,1.15-3.59,1.92-5.99C1165.58-229.1,1206.39-220.84,1247.86-212.45z"/>
	</g>
	<path class="st2" d="M1036.52,118.31c1.76,5.46,3.39,10.96,5.31,16.36c1.41,3.96,3.48,7.84-2.09,10.18
		c-1.68-1.83-3.32-4.97-5.76-5.81c-1.92-0.67-4.83,1.49-7.86,2.6c-4.98-3.19-6.62-2.63-10.92,4.02c-3.42-1.11-7.12-3.63-9.66-2.76
		c-2.51,0.86-3.85,5.15-6.06,8.47c-1.47-3.21-2.89-6.28-4.55-9.9c-2.29,2.48-4.58,4.96-6.87,7.43c-0.45,0.49-0.86,1.28-1.4,1.39
		c-5.27,1.07-10.54,2.1-15.84,2.98c-2.43,0.4-5.05,0.03-7.35,0.75c-2.9,0.92-5.45,2.91-8.34,3.87c-2.93,0.97-6.09,1.25-10.07,2.01
		c0.18-2.46-0.39-5.22,0.66-7.04c5.36-9.29,4.71-19.14,3.53-29.12c-0.05-0.43,0.14-0.89,0.39-2.29c1.61,1.74,3.39,2.81,3.81,4.26
		c1.9,6.65,3.42,13.42,5.43,21.54c0.48-9.82,0.89-18.33,1.37-28.37c5.4,4.23,9.76,7.65,14.12,11.06
		c-6.2-11.54-14.59-20.3-29.21-22.43c3.98-3.57,7.55-6.77,11.12-9.97c-0.2-0.44-0.39-0.88-0.59-1.32c-3.04,1.18-6.22,2.1-9.1,3.6
		c-6.32,3.31-12.33,7.29-18.81,10.24c-2.55,1.16-6.35,1.16-9.02,0.18c-12.16-4.47-24.04-9.67-36.19-14.17
		c-3-1.11-6.98-1.64-9.87-0.62c-9.47,3.36-18.46,0.44-27.58-1.06c-1.18-0.19-2.15-1.71-2.53-2.04c-2.03,0.26-3.45,0.45-4.86,0.63
		c0-2.47,0-4.94,0-8.14c13.81,2.07,24.35-2.92,34.4-10.07c2.06-1.47,5.84-1.48,8.55-0.9c9.53,2.07,18.39,2.25,27.47-2.75
		c7.5-4.13,12.35-8.79,12.39-17.84c0.02-4.93,0.73-5.05,5.86-5.8c0.35,5.58,0.39,11.18,1.1,16.7c1.8,13.96,10.66,25.55,22.05,27.28
		c6.78,1.03,13.97,0.37,20.85-0.52c7.33-0.96,14.5-3.09,21.74-4.71c-0.04-0.47-0.08-0.94-0.11-1.42c-0.92-0.26-1.84-0.51-2.24-0.62
		c4.72-4.3,9.87-8.47,14.38-13.24c5.66-5.98,8.84-13.43,10.31-21.49c0.87-4.77,3.58-7.87,7.82-9.55c3.61-1.43,7.06-1.17,9.83,2.31
		c3.8,4.77,7.47,9.75,11.93,13.86c4.1,3.78,6.16,7.78,4.76,13.12c-2.18,8.36,0.39,14.06,8.5,17.45c3.65,1.52,6.89,4,10.49,5.66
		c4.3,1.98,6.32,5.21,4.85,9.56c-3.83,11.27-8.08,22.4-12.21,33.57c-0.14,0.38-0.72,0.59-1.61,1.27
		c-3.47-8.18-11.33-14.52-7.04-25.8c-4.02,4.57-4.98,8.62-3.59,13.52c1.79,6.3,3.75,12.55,5.63,18.81c-0.37,0.29-0.74,0.58-1.1,0.88
		c-1.22-1.03-2.98-1.82-3.57-3.13c-2.04-4.49-3.38-9.31-5.54-13.73c-1.63-3.35-4.1-6.3-6.2-9.42
		C1037.13,117.98,1036.82,118.15,1036.52,118.31z M1031.6,57.39c-22.34,13.08-21.92,13.93-25.21,32.01
		c-1.74,9.54,6.9,18.44,16.78,17.83c1.21-0.08,3.07-1.45,3.34-2.53c0.74-3.01,0.38-6.31,1.22-9.28c1.38-4.88,3.38-9.59,5.11-14.37
		c0.53,0.18,1.07,0.36,1.6,0.54c-0.48,3.27-1.14,6.52-1.41,9.81c-0.38,4.62-0.67,9.26-0.54,13.88c0.03,0.88,2.37,2.56,3.36,2.38
		c2.98-0.56,7.66-7.82,7.79-10.85c0.32-7.52,0.26-15.12,1.33-22.55c1.87-12.92-2.23-19.76-15.12-23.26
		C1030.43,53.09,1030.99,55.13,1031.6,57.39z M992.99,112.59c-2.6-5.92-7.67-8.59-13.15-10.57c-1.06-0.39-2.92-0.3-3.56,0.37
		c-0.57,0.61-0.38,2.59,0.2,3.5c4.51,7.04,9.19,13.97,14.09,21.33c-0.11-1.16,0-2.02-0.29-2.69c-1.68-3.94-3.55-7.8-5.14-11.77
		c-0.42-1.05-0.11-2.39-0.13-3.6c1.19,0.2,2.48,0.17,3.54,0.66C990.12,110.56,991.52,111.65,992.99,112.59z M1063.48,104.74
		c-0.74-0.12-1.49-0.24-2.23-0.36c-0.57,3.63-1.13,7.26-1.7,10.89c0.68,0.11,1.37,0.22,2.05,0.33
		C1062.23,111.98,1062.86,108.36,1063.48,104.74z"/>
	<path class="st2" d="M934.2,240.16c18.82,16.16,40.68,25.99,64.88,30.89c0.04,0.42,0.08,0.83,0.12,1.25
		c-1.47,0.75-2.89,1.61-4.41,2.23c-1.6,0.66-3.29,1.1-4.95,1.64c0.08,0.51,0.16,1.03,0.24,1.54c4.69-0.5,9.38-1,14.3-1.53
		c-0.66,6.91-2.74,12.39-10.22,14.24c-0.34-0.82-0.71-1.69-1.16-2.75c-0.6,0.33-1.19,0.57-1.68,0.95
		c-9.74,7.68-19.72,10.51-31.66,4.08c-7.81-4.21-16.6-6.58-24.89-9.93c-1.62-0.65-3.38-1.72-4.34-3.11
		c-11.62-16.9-23.1-33.89-33.95-51.78c3.42,2.02,6.84,4.03,10.26,6.05c0.41-0.33,0.82-0.66,1.23-0.99
		c-2.57-3.43-4.75-7.25-7.79-10.21c-5.12-4.98-10.99-9.19-16.15-14.14c-5.03-4.82-9.56-10.16-14.2-15.16
		c0.41,2.99,0.92,6.72,1.45,10.62c-5.72-2.21-11.33-9.89-10.82-16.04c0.73-8.9,2.31-17.73,3.54-26.59
		c1.75-12.63,0.84-24.87-5.05-36.47c-1.95-3.84-3.64-7.82-5.15-11.86c-0.44-1.19-0.26-3.75,0.33-3.99c3.09-1.26,6.38-2.25,9.67-2.56
		c0.49-0.05,2.2,4.15,1.91,6.17c-0.88,5.96,0.66,10.82,5.84,13.67c4.96,2.73,2.72,6.93,2.84,11.58c1.71-0.85,3.53-1.22,3.65-1.91
		c1.19-6.49,8.01-11.11,5.91-18.95c-0.39-1.47,3.67-4.68,6.22-6.13c1.09-0.62,4.05,0.78,5.36,2.07c8,7.83,7.86,11.53,2.53,21.39
		c-3.91,7.25-7.14,15.09-9.16,23.05c-1.07,4.2,0.44,9.46,1.99,13.81c1.69,4.74,4.78,8.97,7.56,13.31
		c-1.3-10.6-11.61-20.13-3.26-32.64c0.61,5.21,0.88,9.56,1.66,13.82c1.61,8.8,4.97,16.99,10.62,23.92
		c3.21,3.94,4.94,7.73,3.16,12.63c-1.58,4.34,0.36,6.92,4.07,8.85c2.72,1.41,5.21,2.7,6.33,6.3c0.58,1.85,4.23,2.74,6.5,4.06
		c6.09,3.53,12.11,7.19,18.3,10.52c1.81,0.97,4.12,0.99,6.31,1.47c2.33,7.91,2.33,7.91,12.79,5.26c3.8,2.1-0.51,9.05,5.13,9.44
		c3.52,0.24,7.17-1.53,11-2.46c0.83,1.48,1.71,5.21,3.93,6.37c2.18,1.14,5.72-0.33,9.16-0.71c1.02,3.8,4.2,4.04,8.24,2.98
		c1.74-0.46,3.77,0.34,5.62,0.16c4.18-0.41,8.34-1.07,12.64-1.65c1.56,4.13-1.39,8.61-7.14,9.18c-6.43,0.64-12.93,0.77-19.4,0.86
		c-1.73,0.02-3.47-0.91-5.2-1.4c-4.64-1.3-9.28-2.59-13.93-3.88c-0.64-0.18-1.33-0.22-1.93-0.47c-10.23-4.25-20.47-8.47-30.66-12.82
		C939.57,243.17,936.92,241.58,934.2,240.16z M920.02,248.81c3.69,6.58,7.19,13.29,11.15,19.71c2.53,4.1,12.52,8.34,18.71,8.01
		C935.89,270.64,929.36,258.53,920.02,248.81z"/>
	<path class="st2" d="M973.99-394.31c-5,20.39-10.01,40.77-15.01,61.16c-0.66-0.04-1.33-0.07-1.99-0.11
		c0-9.46-1.61-19.27,0.31-28.32c5.25-24.7,11.29-49.29,18.35-73.53c6.46-22.18,15.41-43.54,27.57-63.36
		c3.88-6.33,8.04-12.48,12.26-19.02c5.12,10.74-11.54,158.63-19.45,174.94c-1.61-2.46-3.13-4.8-5.54-8.5
		c-3.37,4.26-6.41,8.11-9.45,11.95c-0.62-0.4-1.24-0.81-1.86-1.22c4.59-23.11,9.02-46.26,13.81-69.33
		c4.78-23.06,9.92-46.05,13.88-69.35c-1.64,5.32-3.49,10.59-4.87,15.98c-9.4,36.56-18.79,73.12-27.96,109.74
		c-1.86,7.4-3.08,15-4.1,22.57c-0.93,6.88-4.19,12.4-9.4,17.35c4.84-26.92,9.69-53.84,14.53-80.76
		C974.71-394.17,974.35-394.24,973.99-394.31z"/>
	<path class="st2" d="M961.58-6.75c-5.39-5.9-10.78-11.8-16.84-18.43c4.41-4.91,8.83-10.27,13.73-15.15
		c4.95-4.92,11.21-5.92,17.58-3.38c9.06,3.62,16.37,9.52,20.52,18.58c0.68,1.48,0.42,4.45-0.63,5.48
		c-4.25,4.16-8.98,7.83-13.53,11.69c-1.61,1.37-3.2,2.77-4.58,4.75c9.02-3.79,17.49-9.77,27.8-3.9c9.39,5.34,12.78,14.17,15.9,24.61
		c-10.43-2.04-19.79-4.05-29.21-5.69c-15.52-2.7-31.18-3.33-46.54,0.36c-5.57,1.34-10.44,5.5-15.74,8.16
		c-1.4,0.7-3.84,1.4-4.74,0.72c-6.45-4.9-12.64-10.17-19.2-15.56c6.02-8.99,12.62-17.63,21.66-24.02c1.5-1.06,4.08-1.26,6-0.93
		c10.27,1.71,19.03,6.54,26.47,13.85C960.69-6,961.14-6.37,961.58-6.75z"/>
	<path class="st2" d="M853.95-458.66c36.99,33.53,67.58,71.44,79.84,121.38c-4.89-9.87-9.78-19.73-14.67-29.6
		c-0.48,0.19-0.96,0.38-1.44,0.57c12.19,26.88,21.35,54.57,23.29,84.3c-4.03-3.72-7.98-7.05-8.65-13.16
		c-2.76-24.92-11.19-48.25-21.58-70.82c-6.78-14.73-14.79-28.89-22.26-43.3c-0.4,0.2-0.79,0.4-1.19,0.59
		c5.43,11.82,11.18,23.5,16.2,35.49c5.07,12.11,9.8,24.39,13.98,36.84c4.21,12.55,7.55,25.39,8.63,39.55
		c-6.34-3.42-10.99-6.28-12.25-13.77c-5.91-35.12-19.39-67.71-34.9-99.5C870.98-426.45,862.31-442.48,853.95-458.66z"/>
	<path class="st2" d="M898.38-312.08c-2.62-0.65-5.09-1.25-7.55-1.86c14.17,15.14,22.28,32.37,21.63,53.24
		c-15.03-24.03-26.79-50.05-45.2-72.01c10.76,19.7,21.47,39.31,32.19,58.92c-0.45,0.43-0.9,0.85-1.34,1.28
		c-1.2-0.54-2.48-0.95-3.59-1.65c-8.97-5.67-15.39-13.58-20.15-22.97c-16.88-33.29-39.59-61.86-69.21-84.74
		c-3.65-2.82-7.53-5.35-11.86-8.42C819.9-388.86,893.18-334.15,898.38-312.08z"/>
	<path class="st2" d="M830.46,76.16c0.59-4.4,1.08-7.99,1.57-11.59c-0.22-0.1-0.44-0.2-0.67-0.3c-0.7,1.14-1.4,2.29-2.11,3.45
		c-0.31-0.1-0.7-0.1-0.81-0.28c-3.89-5.88-8.24-11.2-14.93-14.23c-0.86-0.39-1.72-3.02-1.25-3.76c4.27-6.67,8.49-13.44,13.44-19.61
		c3.67-4.57,9.32-5.14,14.08-2.08c4.95,3.19,9.19,7.52,13.47,11.64c0.66,0.64,0.37,3.16-0.36,4.18c-1.93,2.69-4.7,4.8-6.48,7.57
		c-2.18,3.4-3.74,7.21-5.46,10.89c-0.56,1.19-0.54,2.67-1.19,3.78c-5.41,9.25-11.05,18.36-16.31,27.69
		c-1.25,2.22-1.34,5.1-1.97,7.68c3.32-0.03,8.4,1.29,9.64-0.33c5.15-6.73,10.52-3.26,16.05-1.74c1.75,0.48,3.51,0.93,6.93,1.84
		c-7.05,1.85-6.65,6.15-5.88,10.79c0.14,0.87-1.03,2.4-1.98,2.95c-7.88,4.5-22.17-0.58-25.66-9.1c-5.15-12.57-8.67-25.59-9.87-39.14
		c-0.19-2.1,0.78-4.31,1.22-6.47c2.15,1.04,4.7,1.64,6.35,3.21C822.35,67.05,825.99,71.34,830.46,76.16z"/>
	<path class="st2" d="M1003.71-341.67c-0.24-12.67,3.43-22.08,12.92-30.14c14.15-12.03,27.14-25.41,40.61-38.23
		c7.13-6.79,14.24-13.6,21.82-19.91c-25.64,44.59-51.28,89.18-76.51,133.05c2.77-13.89,7.83-28.02,15.28-41.37
		c7.41-13.26,14.6-26.64,21.89-39.97c-0.5-0.29-0.99-0.57-1.49-0.86c-12.2,20.4-24.39,40.8-36.59,61.2
		c-0.42-0.05-0.83-0.1-1.25-0.15c0.55-2.8,0.59-5.84,1.76-8.37c4.03-8.76,8.45-17.34,12.72-25.99c0.57-1.15,1.11-2.31,0.91-4.02
		C1011.93-351.73,1008.08-347.02,1003.71-341.67z"/>
	<path class="st2" d="M1003.2-255.92c2.46-1.73,4.67-3.19,6.77-4.79c5.93-4.51,7.41-9.62,4.01-16.1c-1.58-3.01-1-4.68,1.24-6.82
		c22.5-21.5,47.19-39.86,75.62-52.86c3.98-1.82,7.86-3.83,11.79-5.75c0.24,0.4,0.48,0.8,0.72,1.2c-8.29,7.38-16.42,14.95-24.91,22.1
		c-15.49,13.06-28.39,28.35-40.26,44.68c-4.69,6.45-10.58,12.04-15.93,18.01c-0.68-0.56-1.36-1.13-2.05-1.69
		c11.62-15.41,23.24-30.82,33.8-44.83c-2.31,2.11-6.29,5.13-9.52,8.81c-9.74,11.14-19.18,22.55-28.77,33.83
		c-1.72,2.02-3.34,4.19-5.36,5.87C1007.47-251.83,1006.38-252.17,1003.2-255.92z"/>
	<path class="st2" d="M981.34-279.57c1.02-12.6,1.98-24.44,2.94-36.27c-0.25-0.07-0.5-0.14-0.75-0.22
		c-1.65,7.37-3.42,14.72-4.9,22.12c-0.85,4.24-1.51,8.55-1.71,12.86c-0.21,4.52-2.36,7.41-7.32,10.24c1-9.11,1.91-17.36,2.82-25.6
		c-0.26-0.07-0.53-0.13-0.79-0.2c-0.43,1.75-0.94,3.49-1.26,5.26c-1.15,6.39-2.64,12.75-3.22,19.19
		c-0.55,6.02-3.41,10.22-8.62,14.25c-3.84-10.51-6.42-20.97-1.1-30.93c6.38-11.96,14.06-23.25,21.47-34.64
		c2.87-4.42,6.56-8.31,9.87-12.44c0.54,0.02,1.09,0.04,1.63,0.06c1.03,6.55,2.54,13.07,2.98,19.66c0.64,9.76,0.36,19.58,0.78,29.37
		c0.19,4.41-1.26,6.48-5.81,6.34C986.42-280.58,984.49-280.02,981.34-279.57z"/>
	<path class="st2" d="M881.39-202.81c8.06,6.53,17.96,9.35,22.91,18.98c-7.17,2.57-13.9,1.75-19.8-1.06
		c-17.31-8.26-34.3-17.2-51.09-26.57c12.5,0.01,23.41,5.14,34.59,9.46c-11.1-8.52-23.73-13.8-37.05-17.65
		c23.39-5.14,86.9,18.36,97.29,37.1c-6.75-2.2-13.76-3.83-20.17-6.76c-7.51-3.43-14.47-8.05-21.72-12.05
		C885.15-202.04,883.65-202.18,881.39-202.81z"/>
	<path class="st2" d="M827.07-30.45c0.73-1.99,0.91-3.85,1.91-5.01c5.8-6.75,11.53-13.59,17.82-19.87
		c3.34-3.34,7.91-3.42,11.97-0.55c5.82,4.11,11.56,8.35,17.3,12.57c2.87,2.11,2.71,3.93,0.45,6.92
		c-4.46,5.93-8.42,12.29-12.06,18.77c-2.53,4.5-9.77,7.05-14.18,4.17c-6.94-4.53-13.87-9.07-20.72-13.74
		C828.5-27.92,827.9-29.34,827.07-30.45z"/>
	<path class="st2" d="M870.15,36.1c3.85-10.3,10.02-19.16,20.15-24.51c7.58-4,14.32-0.25,20.28,4.14
		c3.96,2.92,7.28,6.79,10.54,10.54c0.85,0.98,0.66,3.12,0.46,4.66c-0.14,1.05-1.37,1.92-1.71,2.99
		c-2.86,9.05-10.01,11.79-18.37,14.28c-7.32,2.18-12.66,2.63-18.23-3.66C880.04,40.88,874.8,38.99,870.15,36.1z"/>
	<path class="st2" d="M919.69-21.38c-6,7.59-11.75,14.94-17.59,22.22c-2.53,3.15-12.17,3.28-15.14,0.65
		c-3.9-3.46-7.86-6.98-12.24-9.76c-3.67-2.33-5.05-4.03-2.87-8.57c3.69-7.69,7-15.34,14.46-20.34c6.11-4.09,12.04-4.22,18.1-0.19
		C910.84-33.1,916.28-27.9,919.69-21.38z"/>
	<path class="st2" d="M961.21-51.5c-2.9,2.23-4.51,3.18-5.76,4.47c-5.31,5.47-10.71,10.87-15.68,16.65
		c-3.57,4.16-13.37,5.68-17.41,1.91c-4.84-4.53-9.53-9.24-14.08-14.07c-0.72-0.77-0.97-2.85-0.46-3.78
		c4.54-8.28,10.14-15.65,18.76-20.17c4.54-2.39,9.45-3.37,13.81-0.48C947.11-62.53,953.36-57.39,961.21-51.5z"/>
	<path class="st2" d="M859.16-63.8c5.19-6.62,12.48-10.87,20.65-13.43c6.95-2.18,13.67-6.38,21.59-2.93
		c5.21,2.26,10.03,4.81,12.18,10.29c0.67,1.72,0.21,4.32-0.64,6.08c-1.06,2.18-3.51,3.68-4.57,5.86
		c-4.53,9.25-13.38,10.29-21.93,11.86c-1.3,0.24-3.06-0.28-4.18-1.06C874.55-52.57,866.95-58.15,859.16-63.8z"/>
	<path class="st2" d="M991.54-209.94c5.98-12.81,11.76-25.28,25.55-31.85c12.1-5.76,23.56-12.87,37.84-16.28
		c-9.44,8.51-18.07,16.3-26.7,24.09c0.33,0.37,0.65,0.74,0.98,1.11c5.23-4.42,10.23-9.16,15.76-13.16
		c5.78-4.17,11.91-7.93,18.22-11.26c2.68-1.42,6.19-1.28,9.32-1.86c0.14,0.44,0.28,0.87,0.43,1.31c-0.83,0.66-1.58,1.47-2.51,1.96
		c-16.73,8.96-30.55,21.3-42.12,36.23c-2.3,2.96-4.76,4.39-8.71,4.63c-5.39,0.33-10.69,1.91-17.69,3.27
		c6.73-7.8,12.67-14.67,18.61-21.55c-0.29-0.33-0.59-0.67-0.88-1C1010.28-226.18,1000.91-218.06,991.54-209.94z"/>
	<path class="st2" d="M1001.21-15.24c6.18-10.16,14.29-16.36,25.3-18.52c6.08-1.19,11.06,0.66,15.01,5.57
		c5.84,7.26,10.04,15.14,10.72,25.32c-9.9-0.56-19.74-1.19-26.35,9.18C1020.49-4.67,1013.01-12.05,1001.21-15.24z"/>
	<path class="st2" d="M883.08,6.33c-5.21,6.52-9.52,11.72-13.61,17.1c-2.1,2.76-3.86,5.8-5.68,8.77c-1.28,2.1-2.48,2.64-4.77,1.02
		c-6.89-4.86-13.96-9.46-21.19-14.32c3.05-8.03,6.88-15.44,13-21.57c4.59-4.6,10.07-5.77,15.49-2.73
		C872.17-2.13,877.38,2.27,883.08,6.33z"/>
	<path class="st2" d="M981.69-218.92c-2.59-4.58-4.76-8.04-6.49-11.7c-0.55-1.16-0.23-2.98,0.23-4.31
		c2.55-7.48,5.27-14.91,7.93-22.36c-0.39-0.2-0.78-0.41-1.17-0.61c-3.17,6.22-6.53,12.36-9.47,18.69
		c-3.48,7.48-3.32,7.55-11.49,7.22c-0.5-0.02-1-0.05-1.5-0.08c-7.1-0.38-9.73-4.5-5.56-10.62c5.55-8.16,12.29-15.51,18.51-23.2
		c0.5,0.34,1.01,0.67,1.51,1.01c-1,2.57-2.01,5.13-3.54,9.05c4.46-4.89,7.92-8.72,11.41-12.51c2.48-2.69,5.08-3.48,8.26-0.9
		c2.85,2.31,5.35,4.28,3.29,8.66c-4.73,10.08-6.05,20.95-7.09,31.94C986.2-225.41,983.5-222.42,981.69-218.92z"/>
	<path class="st2" d="M846.71-7.34c-4.4,7.68-8.5,15.01-12.78,22.23c-1.07,1.81-2.67,3.33-4.14,4.86c-1.91,1.99-3.5,1.51-5.43-0.41
		c-3.63-3.6-7.44-7.07-11.48-10.2c-2.95-2.28-4.24-4.47-3.37-8.41c1.78-8.04,3.55-15.97,10.18-21.58c1.14-0.97,3.34-1.66,4.68-1.26
		C833.49-19.41,840.72-13.76,846.71-7.34z"/>
	<path class="st2" d="M936.6-232.3c-1.13-15.53-5.06-29.71-12.04-43c2.02,6.94,4.49,13.79,5.92,20.85
		c1.4,6.91,1.74,14.03,2.61,21.62c-5.47-0.72-8.45-3.28-8.57-7.39c-0.56-19.03-4.86-37.16-12.17-54.65c-0.1-0.24,0.12-0.6,0.36-1.68
		c14.48,9.46,27.94,19.22,30.76,37.69c0.85,5.57,0.94,11.27,1.2,16.91C944.88-236.92,942.19-233.97,936.6-232.3z"/>
	<path class="st2" d="M969.03-55.33c-1.6-0.51-3.59-0.59-4.74-1.61c-4.45-3.94-8.55-8.25-12.94-12.27c-2-1.83-1.82-3.26,0.01-4.93
		c3.55-3.23,6.73-7.01,10.7-9.58c2.68-1.74,6.52-2.73,9.71-2.48c9.96,0.77,16.58,6.94,21.36,15.21c0.55,0.95,0.05,3.2-0.78,4.11
		c-3.48,3.83-7.31,7.35-10.94,11.05c-3.5,3.56-7.77,3.28-11.91-0.89C969.35-56.25,969.19-55.79,969.03-55.33z"/>
	<path class="st2" d="M1004.04-31.16c-5.83-5.62-11.98-11.55-18.65-17.99c3.55-6.71,9.66-11.95,17.92-14.37
		c1.99-0.58,4.78-0.05,6.7,0.95c8.79,4.56,14.37,11.94,17.7,20.74C1019.56-38.16,1011.79-34.66,1004.04-31.16z"/>
	<path class="st2" d="M941.39-394.62c0.52,18.02,7.35,35.21,3.37,53.58c-2.1-7.58-4.19-15.17-6.29-22.75
		c-0.23,0.01-0.46,0.02-0.69,0.02c-0.18,1.77-0.36,3.53-0.54,5.3c-0.45,0.14-0.9,0.28-1.36,0.42c-1.5-4.39-4.32-8.81-4.24-13.17
		c0.25-13.79,1.58-27.56,2.52-41.34c0.04-0.64,0.41-1.25,0.8-2.37c0.93,1.04,1.85,1.72,2.3,2.64c4.95,10.15,9.87,20.31,14.72,30.51
		c3.42,7.18,0.06,13.83-2.05,20.66C947.08-372.3,944.23-383.46,941.39-394.62z"/>
	<path class="st2" d="M818.03-283.37c7.14,0.91,14.39,1.34,21.42,2.83c21.02,4.46,40.45,12.92,58.61,24.36
		c9.88,6.22,16.03,15.55,21.11,26.03c-15.9-10.6-31.04-22.65-47.9-31.39c-16.81-8.71-35.34-14.11-53.11-20.96
		C818.11-282.79,818.07-283.08,818.03-283.37z"/>
	<path class="st2" d="M1010.52-193.88c3.74-1.88,7.47-3.77,11.76-5.93c-11.24-0.94-20.18,10.86-31.97,3.35
		c3.22-4.67,7.6-7.77,12.77-9.57c13.35-4.65,27.3-5.57,41.26-5.79c6.67-0.11,14.81,4.14,21.71,10.53
		C1045.6-206.14,1029.21-193.83,1010.52-193.88z"/>
	<path class="st2" d="M991.46,73.44c-7.43-19.24-14.46-37.4-21.51-55.65c11.04-2.21,13.65-0.55,17.06,9.19
		c3.88,11.09,8.29,21.99,12.22,33.06c0.57,1.61,0.38,4.12-0.54,5.5C996.93,68.19,994.4,70.33,991.46,73.44z"/>
	<path class="st2" d="M892.69,58.79c1.46-1.39,2.54-3.18,4.07-3.73c8-2.89,9.65-2.27,15.16,5.02c-7.04,5.11-13.86,9.94-23.5,8.56
		c-9.21-1.32-17.76-0.11-25.72,6.28c-4.92,3.95-11.93,5.31-18.07,7.67c-1.09,0.42-2.48,0.06-4.33,0.06
		c1.83-5.88,4.57-10.28,9.91-12.25c11.32-4.19,22.68-8.32,34.19-11.96C887.18,57.56,890.58,58.66,892.69,58.79z"/>
	<path class="st2" d="M927.26-201.07c-3.99-3.56-7.58-6.95-11.38-10.1c-3.65-3.03-7.51-5.82-11.88-8.04
		c3.61,3.8,7.22,7.59,11.74,12.34c-7.57,0.34-12.86-1.85-16.95-5.69c-7.07-6.63-13.52-13.93-20.96-21.72
		c12.43,1.81,23.96,3.34,34.47,8.56C919.61-222.08,926.14-210.72,927.26-201.07z"/>
	<path class="st2" d="M951.44-161.32c13.81-4.38,30.36-1.12,31.46,10.49c1.35-1.32,1.35-1.32,1.02-13.03
		c3.84,1.08,7.56,1.73,10.91,3.2c3.08,1.35,4.08,4.04,2.61,7.47c-2.55,5.96-6.84,10.22-12.62,12.87c-1.06,0.49-3.48,0.04-4.1-0.82
		c-7.23-9.98-16.9-16.22-28.67-19.44C951.8-160.65,951.64-161.06,951.44-161.32z"/>
	<path class="st2" d="M939.67-218.3c8.55,4.65,2.23,11.91,4.81,18.23c1.08-4.5,1.98-8.26,2.88-12.01c7.49,2.3,8.34,3.33,8.4,10.58
		c0.04,4.82,0.28,9.69-0.32,14.45c-0.26,2.1-1.95,4.87-3.75,5.7c-1.7,0.78-4.48-0.34-6.6-1.11c-1.3-0.48-2.3-1.85-3.38-2.87
		c-4.74-4.47-7.32-9.34-5.08-16.29C938.29-206.76,938.63-212.31,939.67-218.3z"/>
	<path class="st2" d="M1066.42,28.02c-13.24-3.28-26.15-6.48-40.36-9.99c3.88-4.42,6.69-8.63,10.49-11.54
		c1.99-1.53,6.11-1.8,8.61-0.88C1054.3,8.99,1061.18,16.63,1066.42,28.02z"/>
	<path class="st2" d="M954.02-88.47c-13.75,17.16-31.73,17.33-46.19,3.52C922.86-91.75,937.91-89.8,954.02-88.47z"/>
	<path class="st2" d="M971.36-118.98c0.41-3.44,0.82-6.88,1.22-10.27c5.87-0.58,8.49,2.44,7.78,8.76
		c-0.91,8.2-6.88,14.4-16.39,16.47c0.91-12.07-7.62-17.75-16.57-23.17C959.29-134.97,967.63-131.85,971.36-118.98z"/>
	<path class="st2" d="M936.16-173.54c-5.44,2.64-11.45,4.54-16.16,8.13c-4.56,3.48-7.8,8.71-11.81,13.39
		c-5.18-4.36-10.12-9.41-8.61-17.63c0.68-3.69,3.87-5.46,9.78-5.79c-0.3,2.6-0.6,5.13-0.77,6.6c3.8-2.5,7.67-6.58,12.24-7.63
		c4.79-1.09,10.26,0.74,15.43,1.29C936.23-174.63,936.19-174.09,936.16-173.54z"/>
	<path class="st2" d="M1053.38-343.89c-10.83,15.95-21.67,31.9-32.92,48.47C1016.9-312.35,1034.52-338.69,1053.38-343.89z"/>
	<path class="st2" d="M844.53,63.83c3.56-8.55,8.4-14.54,14.9-19.04c4.17-2.88,8.97-2.5,13.29-0.21c3.61,1.91,6.85,4.5,10.26,6.78
		c-0.03,0.5-0.05,0.99-0.08,1.49C870.56,56.38,858.21,59.91,844.53,63.83z"/>
	<path class="st2" d="M954.49,18.55c3.62-1.95,5.67-1.62,7.14,2.32c6.44,17.29,13.17,34.48,19.68,51.75c0.75,2,3.51,4.63-0.38,6.26
		c-3.75,1.57-4.07-2.02-4.86-4.04c-5.85-14.85-11.54-29.76-17.25-44.66C957.38,26.46,956.03,22.71,954.49,18.55z"/>
	<path class="st2" d="M999.6-173.25c13.4-6.74,24.66-2.55,35.54,4.68c0.28-0.36,0.56-0.73,0.84-1.09c-2.65-2.18-5.29-4.37-8.63-7.12
		c9.23-0.49,17.47,5.91,16.92,12.63c-0.2,2.39-2.27,4.88-4.11,6.71c-0.46,0.46-3.56-1.14-4.99-2.34
		c-8.59-7.19-18.7-10.49-29.58-11.94c-1.48-0.2-2.97-0.38-4.44-0.61C1000.85-172.39,1000.59-172.65,999.6-173.25z"/>
	<path class="st2" d="M923.89-146.74c-1.37,2.83-2.6,5.36-3.83,7.9c9.42-6.27,19.09-8.97,30.1-7.29
		c-11.47,5.88-22.59,12.09-30.71,22.35c-6.3-6.12-7.98-11.82-5.06-17.93C916.2-145.53,919.62-146.85,923.89-146.74z"/>
	<path class="st2" d="M1024.26-60.55c8.85-3.91,10.15-3.87,16.86,3c3.32,3.4,6.17,7.33,8.8,11.31c1.65,2.5,1.34,4.8-2.21,6.12
		c-7.01,2.61-10.87,1.45-14.49-4.88C1030.3-50.12,1027.33-55.23,1024.26-60.55z"/>
	<path class="st2" d="M1075.81,78.15c-5.48-14.35-10.52-27.54-15.74-41.18c7.58,0.72,11.61,4.53,13.79,10.76
		c1.42,4.07,2.78,8.22,4.76,12.02C1081.97,66.17,1079.54,71.51,1075.81,78.15z"/>
	<path class="st2" d="M1026.11-68.01c-7.41,6.41-12.73-2.32-19.04-1.98c-8.93,0.48-8.21-9.41-14.78-12.41
		C1001.18-83.35,1018.42-75.82,1026.11-68.01z"/>
	<path class="st2" d="M808.49,41.55c-0.49-4.37-0.95-7.59-1.19-10.82c-0.28-3.89-0.54-7.79-0.49-11.68c0.05-4.55,2.72-5.98,6.51-3.5
		c1.78,1.16,3.45,2.62,4.85,4.23c2.56,2.95,3.1,5.84,0.01,9.17C814.96,32.42,812.35,36.47,808.49,41.55z"/>
	<path class="st2" d="M1050.85,35.02c1.23,1.03,3.07,1.81,3.59,3.12c4.24,10.6,8.25,21.3,12.3,31.98c1.35,3.54,2.73,7.08,3.9,10.68
		c0.42,1.28,0.25,2.76-0.71,4.43c-8.79-15.51-14.06-32.34-20.61-48.63C1049.83,36.07,1050.34,35.54,1050.85,35.02z"/>
	<path class="st2" d="M845.45-142.29c-5.03-10.97-0.48-22.27,9.71-24c-1.93,3.18-3.63,5.98-5.67,9.34
		c4.54-3.54,8.26-6.92,12.47-9.49c2.03-1.24,5-0.93,7.78-0.89C859.26-161.38,851.56-152.82,845.45-142.29z"/>
	<path class="st2" d="M1010.43-134.05c20.3-6,35.5,0.12,37.38,15.1C1037.22-128.62,1024.34-130.88,1010.43-134.05z"/>
	<path class="st2" d="M967.57-211.1c0.56,11.09,1.1,21.68,1.64,32.27c-0.61,0.08-1.22,0.17-1.83,0.25
		c-3.59-2.68-4.92-6.55-5.32-10.91c-0.4-4.3-0.56-8.64-1.26-12.89C960.09-206.72,961.38-209.49,967.57-211.1z"/>
	<path class="st2" d="M990.87-116.19c6.43-2.6,11.78-3.13,17.43-1.14c2.76,0.97,5.88,0.88,8.67,1.78c1.7,0.55,3.66,1.79,4.4,3.27
		c0.38,0.76-1.4,3.09-2.68,4.08c-3.17,2.46-6.01,3.73-9.67-0.39c-2.41-2.71-6.8-3.74-10.41-5.28
		C996.5-114.77,994.21-115.21,990.87-116.19z"/>
	<path class="st2" d="M969.04,236.43c-0.94-5,1.16-7.44,6.03-8.42c6.59-1.32,8.56,0.44,6.38,6.82c-1.16,3.37-3.25,6.48-5.25,9.48
		c-0.69,1.03-2.46,1.99-3.6,1.85c-0.96-0.12-2.12-1.77-2.47-2.95C969.48,241.03,969.37,238.7,969.04,236.43z"/>
	<path class="st2" d="M944.52,218.9c-1.15-1.92-1.62-2.7-2.08-3.48c0.22-0.5,0.43-1,0.65-1.49c3.32,1.23,8.82,1.77,9.47,3.84
		c1.03,3.26-0.49,7.93-2.28,11.27c-1.51,2.82-4.16,1.1-5.97-1.08c-0.69-0.82-1.91-1.52-2.97-1.65c-2.97-0.37-3.99-1.58-3.26-4.66
		C938.82,218.5,939.94,216.61,944.52,218.9z"/>
	<path class="st2" d="M857.87-263.78c12.86,4.31,24.7,10.49,35.5,19.42C884.34-243.59,874.77-248.8,857.87-263.78z"/>
	<path class="st2" d="M944.76-225.46c7.93,0,15.86,0,24.28,0c-1.25,5.86-4.86,7.93-8.7,8.62c-6.81,1.23-11.07-3.88-15.98-7.18
		C944.49-224.5,944.62-224.98,944.76-225.46z"/>
	<path class="st2" d="M984.47,245.19c0.47-3.11,0.63-5.27,1.14-7.35c1.06-4.28,3.36-5.35,7.89-3.97c4.08,1.24,4.64,4.04,2.93,7.37
		c-1.18,2.31-2.72,4.58-4.6,6.33c-1.42,1.32-3.64,1.78-5.5,2.62C985.62,248.28,984.91,246.36,984.47,245.19z"/>
	<path class="st2" d="M1006.49,146.08c7.68,4.33,9.26,13.48,3.59,18.29c-3.09,2.62-6.35,2.02-7.04-1.87
		C1002.01,156.73,1003.45,151.2,1006.49,146.08z"/>
	<path class="st2" d="M993.15-276.11c2.67-0.16,6.47-0.46,10.27-0.6c3.11-0.12,6.83,0.18,6.99,3.88c0.12,2.68-1.9,5.53-3.29,8.14
		c-0.46,0.87-1.91,1.22-1.17-0.07C1001.67-268.56,997.39-272.35,993.15-276.11z"/>
	<path class="st2" d="M975.01-182.95c-1.89-10.39-3.75-19.24-4.93-28.18c-0.24-1.81,2.09-3.97,3.82-6.98
		C978.44-205.91,979.62-195.14,975.01-182.95z"/>
	<path class="st2" d="M1034.34,162.47c-0.54-0.43-2.68-1.24-2.97-2.48c-0.96-4.14-1.54-8.43-1.66-12.67
		c-0.04-1.32,1.86-2.7,2.87-4.05c1.27,1.06,3.15,1.87,3.71,3.22c1.45,3.5,2.2,7.28,3.46,10.87
		C1041.24,161.55,1038.86,162.29,1034.34,162.47z"/>
	<path class="st2" d="M938.89,209.83c-1.45,3.07-2.74,5.91-4.15,8.69c-0.42,0.83-1.59,2.18-1.74,2.09
		c-3.08-1.74-6.72-3.12-8.86-5.72c-1.54-1.87-0.59-5.1,3.21-5.2c0.16,0,0.39,0.13,0.48,0.07
		C932.34,206.5,932.34,206.5,938.89,209.83z"/>
	<path class="st2" d="M1022.11,149.65c3.37,0.11,6.17,4.39,5.19,8.89c-0.31,1.44-3.06,3.18-4.8,3.3c-3.65,0.24-7.15-0.71-5.84-5.88
		c0.8-3.16,1.42-6.39,2.52-9.44c0.35-0.96,1.92-1.73,3.07-2.02c0.5-0.13,2.03,1.34,1.92,1.83
		C1023.92,147.43,1022.96,148.37,1022.11,149.65z"/>
	<path class="st2" d="M995.07,148.61c1.45,4.01,3.36,7.93,4.23,12.07c0.82,3.88-1.95,5.55-5.58,5.75c-4.13,0.22-4.48-2.63-4.32-5.61
		C989.63,156.46,987.79,151.26,995.07,148.61z"/>
	<path class="st2" d="M973.71,160.85c0.02,6.09-1.89,7.43-9.45,7.65c-3.08,0.09-3.62-1.53-3.58-4.03c0.08-5.2,2.54-8.41,6.83-8.3
		C970.77,156.25,974.68,156.02,973.71,160.85z"/>
	<path class="st2" d="M894.69-113.92c-0.23,1.73-0.46,3.46-0.74,5.52c10.71-7.46,10.71-7.46,15.63-5.58
		c-3.88,3.35-7.8,7.11-12.16,10.26c-1.22,0.89-4.51,0.74-5.47-0.26c-1.39-1.44-2.22-4.18-1.98-6.21c0.19-1.56,2.39-2.88,3.7-4.31
		C894.01-114.3,894.35-114.11,894.69-113.92z"/>
	<path class="st2" d="M955.83,225.6c1.6,0.36,3,0.67,4.58,1.03c-0.09-1.08-0.17-2.07-0.25-3.06c0.94,0.07,2.54-0.15,2.72,0.26
		c1.12,2.49,3.28,5.69,2.5,7.58c-1.06,2.56-4.46,4.14-6.85,6.14c-1.14-1.62-2.89-3.11-3.25-4.88
		C954.83,230.53,955.57,228.15,955.83,225.6z"/>
	<path class="st2" d="M997.89,247.78c1.28-2.93,1.95-6.05,3.8-8.14c1.12-1.28,4.04-0.97,6.16-1.38c0.29,1.72,1.31,3.78,0.7,5.09
		c-1.21,2.62-3.17,4.96-5.12,7.15c-0.7,0.79-2.65,1.42-3.38,1C999.05,250.9,998.68,249.25,997.89,247.78z"/>
	<path class="st2" d="M893.91-138.86c-5.19,3.87-10.13,7.56-15.28,11.4c-3.23-1.96-3.92-5.59-3.22-9.15
		c0.33-1.67,2.69-2.94,4.13-4.4c0.59,0.4,1.18,0.79,1.77,1.19c-1.06,2.49-2.11,4.99-3.27,7.73
		C883.27-134.34,886.3-142.51,893.91-138.86z"/>
	<path class="st2" d="M925.12-115.07c1.27,5.89,4.03,4.13,6.76,3.63c4.01-0.74,8.12-0.99,12.18-1.46c0.14,0.71,0.29,1.43,0.43,2.14
		c-7.33,2.2-14.67,4.41-22.59,6.79C920.26-107.75,923.39-110.36,925.12-115.07z"/>
	<path class="st2" d="M1055.29-18.94c-2.89-4.46-5.8-8.96-9.58-14.79c3.82,0.29,7.86-0.62,9.48,0.96
		C1059.46-28.63,1058.97-23.6,1055.29-18.94z"/>
	<path class="st2" d="M948.27,171.8c-0.41-1.59-1.45-3.64-1.29-5.6c0.12-1.38,1.87-2.61,2.89-3.91c2.24,2.78,7.84-5,8.44,2.61
		C958.66,169.46,955.42,171.91,948.27,171.8z"/>
	<path class="st2" d="M986.58,163.04c-0.59,0.84-1.21,2.75-2.35,3.14c-2.07,0.71-4.46,0.55-6.71,0.64
		c-0.21,0.01-0.74-1.06-0.64-1.16c2.16-2.26-0.23-5.09,0.87-7.27c0.87-1.73,2.6-3.03,3.95-4.53c1.26,1.34,2.78,2.53,3.7,4.07
		C986.13,159.15,986.11,160.8,986.58,163.04z"/>
	<path class="st2" d="M1006.9,217.57c-0.24-0.72-0.62-1.86-1.03-3.12c4.12-2.13,6.21,0.7,8.28,3.21c0.37,0.45-0.17,1.66-0.29,2.53
		c-5.01-1.89-2.72,8.92-8.83,5.08c-0.55-0.35-1.24-0.77-1.44-1.32c-0.64-1.72-1.08-3.51-1.6-5.27
		C1003.51,218.33,1005.05,217.98,1006.9,217.57z"/>
	<path class="st2" d="M1014.1,178.64c-1.33-5.06-0.01-8.61,3.63-10.95c1.3-0.84,4.71-0.96,4.97-0.4c0.95,2.06,1.27,4.54,1.23,6.86
		c-0.01,1.08-1.17,2.74-2.17,3.08C1019.49,178.02,1016.98,178.16,1014.1,178.64z"/>
	<path class="st2" d="M1045.99,145.75c1.29,6.7,2.37,12.32,3.46,17.94c-0.45,0.35-0.9,0.7-1.35,1.05c-1.46-0.92-4-1.65-4.2-2.79
		C1043.03,157.02,1039.85,151.76,1045.99,145.75z"/>
	<path class="st2" d="M926.07,202.08c-2.56,7.9-7.38,6.08-12.54,3.27c0-1.18,0-2.76,0-4.84c1.73,0.39,3.06,0.69,4.9,1.11
		c-0.73-1.35-1.21-2.22-1.68-3.09c0.22-0.32,0.45-0.63,0.67-0.95C920.4,199.13,923.38,200.68,926.07,202.08z"/>
	<path class="st2" d="M995.83,217.3c-0.85-2.45-1.83-4.68-2.23-7.02c-0.06-0.36,2.53-1.17,4.16-1.89c-0.21-0.77-0.54-1.98-0.91-3.32
		c3.74-2.02,5.72,0.56,7.53,2.77c0.48,0.59,0.05,2.66-0.66,3.32C1001.61,213.15,999.16,214.77,995.83,217.3z"/>
	<path class="st2" d="M1027.87,174.19c0.81-2.89,1.01-6.36,2.01-6.61c3-0.75,6.42-0.7,9.46-0.02c1.22,0.27,1.9,2.99,3.36,5.52
		c-3.48-0.31-5.44-0.73-7.36-0.59C1033.4,172.63,1031.5,173.33,1027.87,174.19z"/>
	<path class="st2" d="M1026.8,25.94c4.81,1.04,9.62,2.07,14.6,3.14c-4.48,5.59-5.17,5.81-13.15,2.26c-1.33-0.59-2-2.66-2.97-4.05
		C1025.78,26.84,1026.29,26.39,1026.8,25.94z"/>
	<path class="st2" d="M1021.4,226.03c-1.37,1.92-2.44,3.58-3.69,5.12c-0.84,1.04-1.92,1.88-2.9,2.81c-0.96-1.04-2.43-1.94-2.75-3.15
		c-0.35-1.34,0.23-2.99,0.66-4.43c0.11-0.38,1.36-0.33,1.68-0.77C1017.6,221.29,1017.58,221.27,1021.4,226.03z"/>
	<path class="st2" d="M1007.02,22.12c4.27,0.77,8.61,1.3,12.77,2.48c0.92,0.26,1.82,2.91,1.55,4.22c-0.19,0.9-2.9,2.27-3.66,1.87
		c-3.93-2.08-7.6-4.66-11.36-7.06C1006.55,23.13,1006.78,22.63,1007.02,22.12z"/>
	<path class="st2" d="M1061.02-18.42c0.64,6.05,1.28,12.09,1.93,18.14c-0.63,0.07-1.25,0.13-1.88,0.2
		c-1.89-5.91-5.22-11.67-1.66-18.17C1059.95-18.31,1060.49-18.36,1061.02-18.42z"/>
	<path class="st2" d="M1017.88,238.59c0.85,5.39-2.88,10.87-8.65,12.71C1009.46,246.27,1014.06,239.52,1017.88,238.59z"/>
	<path class="st2" d="M1053.06,166.17c-0.64-4.6-1.29-9.2-1.93-13.8c0.71-0.12,1.43-0.24,2.14-0.37c0.83,4.57,1.66,9.13,2.5,13.7
		C1054.86,165.86,1053.96,166.01,1053.06,166.17z"/>
	<path class="st2" d="M1018.64,247.3c1.47-3.36,2.93-6.71,4.4-10.07c0.47,0.19,0.94,0.39,1.4,0.58
		C1024.84,241.94,1023.42,245.33,1018.64,247.3z"/>
	<path class="st1" d="M1031.6,57.39c-0.62-2.26-1.17-4.3-1.75-6.41c12.89,3.5,16.98,10.34,15.12,23.26
		c-1.07,7.43-1.01,15.02-1.33,22.55c-0.13,3.03-4.81,10.29-7.79,10.85c-0.99,0.19-3.33-1.5-3.36-2.38
		c-0.13-4.62,0.15-9.26,0.54-13.88c0.27-3.28,0.93-6.54,1.41-9.81c-0.53-0.18-1.07-0.36-1.6-0.54c-1.74,4.78-3.73,9.49-5.11,14.37
		c-0.84,2.97-0.48,6.27-1.22,9.28c-0.27,1.09-2.13,2.46-3.34,2.53c-9.88,0.62-18.52-8.29-16.78-17.83
		C1009.69,71.32,1009.27,70.47,1031.6,57.39z"/>
	<path class="st1" d="M992.99,112.59c-1.47-0.94-2.87-2.04-4.44-2.77c-1.05-0.49-2.35-0.46-3.54-0.66c0.02,1.21-0.29,2.55,0.13,3.6
		c1.6,3.97,3.46,7.83,5.14,11.77c0.29,0.68,0.18,1.53,0.29,2.69c-4.89-7.36-9.58-14.29-14.09-21.33c-0.58-0.91-0.77-2.9-0.2-3.5
		c0.63-0.67,2.49-0.76,3.56-0.37C985.32,104,990.39,106.67,992.99,112.59z"/>
	<path class="st1" d="M1063.48,104.74c-0.63,3.62-1.25,7.24-1.88,10.86c-0.68-0.11-1.37-0.22-2.05-0.33
		c0.57-3.63,1.13-7.26,1.7-10.89C1062,104.5,1062.74,104.62,1063.48,104.74z"/>
	<path class="st1" d="M920.02,248.81c9.34,9.72,15.87,21.83,29.86,27.72c-6.19,0.32-16.18-3.91-18.71-8.01
		C927.21,262.1,923.71,255.39,920.02,248.81z"/>
</g>
<text transform="matrix(1 0 0 1 -212.6719 1075.2812)" class="st0" style="font-family:'TheTideRegular'; font-size:290.5791px;">SLAB</text>
<text transform="matrix(1 0 0 1 -212.6719 1520.8406)" class="st0" style="font-family:'TheTideRegular'; font-size:290.5791px;">slab</text>
<g class="st0">
	<path class="st1" d="M783.43,875.65c2.71,2.33,4.11,8.14,4.21,17.43c0.09,9.3-0.73,18.31-2.47,27.02
		c-1.74,8.72-3.78,13.47-6.1,14.24c-4.65,0.97-9.25,1.41-13.8,1.31c-4.55-0.1-10.61-0.44-18.16-1.02s-12.01-0.87-13.37-0.87
		c-2.13,0-3.92,0.73-5.38,2.18c-1.45,1.45-2.33,3.15-2.62,5.09c-0.29,1.94-0.05,3.83,0.73,5.67c0.77,1.84,2.13,3.15,4.07,3.92
		c1.55,0.58,4.84,0.68,9.88,0.29c5.04-0.39,10.22-0.97,15.55-1.74c5.33-0.77,10.46-1.02,15.4-0.73c4.94,0.29,8.18,1.41,9.73,3.34
		c2.13,2.52,3.68,12.64,4.65,30.37c0.97,17.73,1.26,35.31,0.87,52.74c-0.39,17.43-1.26,27.22-2.62,29.35
		c-1.74,3.3-19.23,5.38-52.45,6.25c-33.23,0.87-51.29-0.14-54.19-3.05c-3.1-2.32-4.46-9.1-4.07-20.34
		c0.39-11.23,2.32-19.37,5.81-24.41c1.55-2.33,5.52-4.16,11.91-5.52c6.39-1.35,12.64-2.22,18.74-2.62c6.1-0.39,13.27-0.73,21.5-1.02
		c8.23-0.29,12.93-0.44,14.09-0.44c3.87-0.39,6.68-1.5,8.43-3.34c1.74-1.84,2.42-3.87,2.03-6.1c-0.39-2.22-1.65-3.82-3.78-4.79
		c-1.94-0.77-13.47-0.29-34.58,1.45c-21.12,1.74-33.32,1.84-36.61,0.29c-2.71-1.35-4.65-11.96-5.81-31.82
		c-1.16-19.85-1.02-39.85,0.44-60c1.45-20.15,3.82-31.38,7.12-33.71c5.42-3.68,22.57-5.42,51.43-5.23
		C762.9,870.04,779.36,871.98,783.43,875.65z"/>
	<path class="st1" d="M974.92,1007.87c0.97,0.58,1.74,5.91,2.33,15.98c0.58,10.08,0.53,20.29-0.15,30.66
		c-0.68,10.37-2.28,16.03-4.79,17c-3.88,1.55-33.27,1.99-88.19,1.31c-54.92-0.68-83.06-2.18-84.41-4.5
		c-1.74-2.13-1.89-34.92-0.44-98.36c1.45-63.44,3.53-96.62,6.25-99.52c2.13-1.93,13.56-3.34,34.29-4.21
		c20.73-0.87,41.21-0.87,61.46,0c20.24,0.87,30.75,2.67,31.53,5.38c1.16,2.52,1.5,24.7,1.02,66.54
		c-0.49,41.84-0.05,63.16,1.31,63.93c1.16,1.36,7.12,2.08,17.87,2.18C963.73,1004.33,971.04,1005.54,974.92,1007.87z"/>
	<path class="st1" d="M989.16,870.13c4.84-2.91,33.85-4.55,87.03-4.94c53.18-0.39,81.8,0.97,85.87,4.07
		c1.93,1.36,3.78,12.3,5.52,32.83c1.74,20.54,3,42.82,3.78,66.83c0.77,24.02,1.26,46.35,1.45,66.98
		c0.19,20.63-0.39,31.82-1.74,33.56c-3.3,2.91-13.18,4.17-29.64,3.78c-16.47-0.39-26.54-1.35-30.22-2.91
		c-1.74-0.77-2.62-6.73-2.62-17.87c0-11.14,0.29-22.71,0.87-34.72c0.58-12.01,0.68-18.79,0.29-20.34c-0.78-2.91-2.42-4.65-4.94-5.23
		c-2.52-0.58-5.04-0.1-7.55,1.45c-1.36,0.97-2.03,7.36-2.03,19.18c0,11.82,0.24,24.02,0.73,36.61c0.48,12.59,0.63,19.57,0.44,20.92
		c-0.39,2.91-18.5,4.55-54.34,4.94c-35.84,0.39-54.63-0.87-56.37-3.78c-2.13-3.29-3.25-21.6-3.34-54.92
		c-0.1-33.32,0.58-65.96,2.03-97.92C985.81,886.7,987.41,870.52,989.16,870.13z M1076.33,927.38c-2.71,0.19-4.07,2.62-4.07,7.26
		c0.39,5.43,2.52,8.33,6.39,8.72c0.39,0,1.69,0.1,3.92,0.29c2.22,0.2,4.26,0.34,6.1,0.44c1.84,0.1,4.21,0.2,7.12,0.29
		c2.91,0.1,5.62,0.15,8.14,0.15c2.51,0,5.18,0,7.99,0c2.81,0,5.33-0.09,7.56-0.29c2.22-0.19,4.36-0.44,6.39-0.73
		c2.03-0.29,3.68-0.68,4.94-1.16c1.26-0.48,1.98-1.02,2.18-1.6c1.55-3.29,1.5-6.73-0.15-10.32c-1.65-3.58-4.12-5.57-7.41-5.96
		c-2.13,0-7.26,0.2-15.4,0.58c-8.14,0.39-15.79,0.87-22.96,1.45L1076.33,927.38z"/>
	<path class="st1" d="M1189.07,868.68c2.52-0.58,11.86-1.21,28.04-1.89c16.17-0.68,33.85-1.26,53.03-1.74
		c19.18-0.48,36.9-0.39,53.18,0.29c16.27,0.68,25.38,2.08,27.31,4.21c2.52,2.91,4.7,10.42,6.54,22.52
		c1.84,12.11,2.81,23.25,2.91,33.42c0.1,10.17-0.25,17.39-1.02,21.65c-1.94,3.49-4.12,5.86-6.54,7.12
		c-2.42,1.26-6.25,1.89-11.48,1.89c-4.84,0-7.95,1.65-9.3,4.94c-1.36,3.3-0.49,6.59,2.62,9.88c1.74,1.74,5.57,3.3,11.48,4.65
		c5.91,1.36,9.54,3.3,10.9,5.81c1.74,3.1,2.62,17.78,2.62,44.02c0,26.25-1.07,40.93-3.2,44.02c-2.52,2.32-30.61,3.39-84.27,3.2
		c-53.66-0.19-81.56-0.97-83.69-2.32c-1.36-0.97-2.42-18.11-3.2-51.43c-0.78-33.32-0.87-66.59-0.29-99.81
		C1185.29,885.87,1186.75,869.07,1189.07,868.68z M1252.13,907.62c-1.55,0.39-2.62,1.89-3.2,4.5s-0.25,5.18,1.02,7.7
		c1.26,2.52,3.24,3.78,5.96,3.78c0.39,0,0.97,0,1.74,0c17.04,0.2,26.44-1.74,28.19-5.81c1.16-3.29,0.82-6.73-1.02-10.32
		c-1.84-3.58-4.41-5.38-7.7-5.38c-1.36,0-3.1,0.2-5.23,0.58c-2.13,0.39-4.31,0.87-6.54,1.45c-2.23,0.58-4.36,1.12-6.39,1.6
		c-2.03,0.49-3.63,0.92-4.79,1.31L1252.13,907.62z M1252.13,1012.52c-1.55,0.39-2.62,1.89-3.2,4.5s-0.25,5.18,1.02,7.7
		c1.26,2.52,3.24,3.78,5.96,3.78c0.39,0,0.97,0,1.74,0c17.04,0,26.44-1.93,28.19-5.81c1.16-3.29,0.82-6.73-1.02-10.32
		c-1.84-3.58-4.41-5.38-7.7-5.38c-1.36,0-3.1,0.2-5.23,0.58c-2.13,0.39-4.31,0.87-6.54,1.45c-2.23,0.58-4.36,1.12-6.39,1.6
		c-2.03,0.49-3.63,0.92-4.79,1.31L1252.13,1012.52z"/>
</g>
<g class="st0">
	<path class="st1" d="M821.21,1325.28c1.16,1.16,2.13,3.39,2.91,6.68c0.77,3.3,1.16,7.02,1.16,11.19c0,4.17-0.2,8.57-0.58,13.22
		c-0.39,4.65-1.02,8.96-1.89,12.93c-0.87,3.97-1.84,7.31-2.91,10.03c-1.07,2.71-2.18,4.26-3.34,4.65
		c-5.62,0.97-12.35,1.41-20.2,1.31c-7.85-0.1-18.02-0.44-30.51-1.02s-19.32-0.87-20.49-0.87c-2.72,0-4.79,1.21-6.25,3.63
		c-1.45,2.42-1.89,4.99-1.31,7.7c0.58,2.71,2.03,4.65,4.36,5.81c1.74,0.39,6.97,0.39,15.69,0c8.72-0.39,17.87-0.97,27.46-1.74
		c9.59-0.77,18.69-1.02,27.31-0.73c8.62,0.29,13.7,1.41,15.26,3.34c2.13,2.52,3.68,12.69,4.65,30.51
		c0.97,17.83,1.26,35.45,0.87,52.88c-0.39,17.44-1.26,27.12-2.62,29.06c-1.94,3.3-27.27,5.38-75.99,6.25
		c-48.72,0.87-74.53-0.15-77.44-3.05c-3.1-2.33-4.46-9.1-4.07-20.34c0.39-11.23,2.32-19.37,5.81-24.41
		c1.55-2.13,7.94-3.92,19.18-5.38c11.23-1.45,22.91-2.37,35.01-2.76c12.1-0.39,24.55-0.68,37.34-0.87
		c12.79-0.19,19.95-0.39,21.5-0.58c2.32-0.19,4.31-0.73,5.96-1.6c1.64-0.87,2.81-1.84,3.49-2.91c0.68-1.06,1.02-2.22,1.02-3.49
		c0-1.26-0.34-2.47-1.02-3.63c-0.68-1.16-1.7-2.03-3.05-2.62c-1.74-0.77-20.97-0.29-57.68,1.45c-36.71,1.74-56.71,1.84-60,0.29
		c-2.71-1.35-4.65-11.91-5.81-31.67c-1.16-19.76-1.02-39.76,0.44-60c1.45-20.24,3.92-31.53,7.41-33.85
		c5.23-3.68,28.52-5.42,69.88-5.23C794.13,1319.67,816.94,1321.6,821.21,1325.28z"/>
	<path class="st1" d="M941.5,1457.49c0.97,0.58,1.74,5.91,2.32,15.98c0.58,10.08,0.53,20.34-0.15,30.8
		c-0.68,10.46-2.28,16.18-4.79,17.14c-3.88,1.55-20.15,1.98-48.82,1.31c-28.67-0.68-43.69-2.18-45.04-4.5
		c-1.74-2.32-1.89-35.21-0.44-98.65c1.45-63.44,3.53-96.52,6.25-99.23c3.49-3.29,12.06-4.98,25.72-5.08
		c13.66-0.09,21.26,1.89,22.81,5.96c0.97,2.52,1.26,24.7,0.87,66.54c-0.39,41.84,0.1,63.16,1.45,63.93
		c1.16,1.36,7.12,2.08,17.87,2.18C930.32,1453.96,937.63,1455.17,941.5,1457.49z"/>
	<path class="st1" d="M951.96,1521.42c-1.16-1.93-1.99-19.42-2.47-52.45c-0.49-33.03-0.25-65.96,0.73-98.8
		c0.97-32.84,2.81-49.64,5.52-50.42c4.65-2.91,26.49-4.55,65.53-4.94c39.03-0.39,60.49,0.97,64.36,4.07
		c1.93,1.55,3.82,12.54,5.67,32.98c1.84,20.44,3.15,42.67,3.92,66.69c0.77,24.02,1.26,46.35,1.45,66.98
		c0.19,20.63-0.39,31.82-1.74,33.56c-3.3,2.91-13.18,4.16-29.64,3.78c-16.47-0.39-26.64-1.36-30.51-2.91
		c-1.55-0.77-2.32-6.73-2.32-17.87c0-11.14,0.24-22.71,0.73-34.72c0.48-12.01,0.63-18.79,0.44-20.34c-0.97-2.91-2.67-4.65-5.09-5.23
		c-2.42-0.58-4.89,0-7.41,1.74c-1.36,0.78-2.08,7.07-2.18,18.89c-0.1,11.82,0.14,24.02,0.73,36.61c0.58,12.59,0.77,19.57,0.58,20.92
		c-0.39,2.91-11.38,4.55-32.98,4.94C965.67,1525.29,953.9,1524.13,951.96,1521.42z M1000.2,1377c-1.94,0.2-3.25,1.6-3.92,4.21
		c-0.68,2.62-0.48,5.18,0.58,7.7c1.06,2.52,2.95,3.88,5.67,4.07c0.39,0,1.69,0.1,3.92,0.29c2.22,0.2,4.26,0.34,6.1,0.44
		c1.84,0.1,4.21,0.19,7.12,0.29c2.91,0.1,5.57,0.15,7.99,0.15c2.42,0,5.09,0,7.99,0c2.91,0,5.47-0.1,7.7-0.29
		c2.22-0.19,4.36-0.39,6.39-0.58c2.04-0.19,3.63-0.58,4.79-1.16s1.93-1.16,2.32-1.74c1.35-3.29,1.26-6.73-0.29-10.32
		c-1.55-3.58-4.07-5.47-7.55-5.67c-1.94-0.19-6.97-0.04-15.11,0.44c-8.14,0.49-15.79,0.92-22.96,1.31L1000.2,1377z"/>
	<path class="st1" d="M1112.36,1519.97c-1.36-0.97-2.42-18.11-3.2-51.43c-0.78-33.32-0.87-66.59-0.29-99.81
		c0.58-33.22,2.03-50.03,4.36-50.42c3.87-0.77,14.96-1.64,33.27-2.62c18.31-0.97,37.09-1.31,56.37-1.02
		c19.27,0.29,30.17,1.79,32.69,4.5c2.52,2.91,4.65,10.42,6.39,22.52c1.74,12.11,2.66,23.3,2.76,33.56
		c0.09,10.27-0.34,17.43-1.31,21.5c-1.74,3.68-3.83,6.1-6.25,7.26c-2.42,1.16-6.25,1.74-11.48,1.74c-4.84,0-7.95,1.65-9.3,4.94
		c-1.36,3.3-0.49,6.59,2.62,9.88c1.55,1.55,3.97,2.76,7.26,3.63c3.29,0.87,6.39,1.79,9.3,2.76c2.91,0.97,4.84,2.42,5.81,4.36
		c1.93,3.1,2.86,17.78,2.76,44.02c-0.1,26.25-1.12,40.83-3.05,43.73c-2.52,2.32-24.07,3.39-64.65,3.2
		C1135.85,1522.1,1114.49,1521.32,1112.36,1519.97z M1152.17,1357.25c-1.74,0.39-2.86,1.89-3.34,4.5c-0.49,2.62-0.1,5.18,1.16,7.7
		c1.26,2.52,3.15,3.78,5.67,3.78c34.48,0,52.5-1.93,54.05-5.81c1.35-3.29,1.11-6.73-0.73-10.32c-1.84-3.58-4.41-5.38-7.7-5.38
		c-1.36,0-3.97,0.2-7.85,0.58c-3.88,0.39-8.09,0.87-12.64,1.45c-4.55,0.58-9.01,1.12-13.37,1.6c-4.36,0.49-7.99,0.92-10.9,1.31
		L1152.17,1357.25z M1152.17,1462.14c-0.97,0.2-1.79,0.87-2.47,2.03c-0.68,1.16-1.02,2.52-1.02,4.07c0,1.55,0.19,3.1,0.58,4.65
		c0.39,1.55,1.16,2.81,2.32,3.78c1.16,0.97,2.52,1.45,4.07,1.45c34.48,0,52.5-1.93,54.05-5.81c1.35-3.29,1.11-6.73-0.73-10.32
		c-1.84-3.58-4.41-5.38-7.7-5.38c-2.13,0-7.26,0.49-15.4,1.45c-8.14,0.97-15.79,1.84-22.96,2.62L1152.17,1462.14z"/>
</g>
<path class="st0" d="M1258.96,2094.08c1.16,1.16,2.13,3.39,2.91,6.68c0.77,3.3,1.16,7.02,1.16,11.19c0,4.17-0.2,8.57-0.58,13.22
	c-0.39,4.65-1.02,8.96-1.89,12.93c-0.87,3.97-1.84,7.31-2.91,10.03c-1.07,2.71-2.18,4.26-3.34,4.65c-5.62,0.97-12.35,1.41-20.2,1.31
	c-7.85-0.1-18.02-0.44-30.51-1.02s-19.32-0.87-20.49-0.87c-2.72,0-4.79,1.21-6.25,3.63c-1.45,2.42-1.89,4.99-1.31,7.7
	c0.58,2.71,2.03,4.65,4.36,5.81c1.74,0.39,6.97,0.39,15.69,0c8.72-0.39,17.87-0.97,27.46-1.74c9.59-0.77,18.69-1.02,27.31-0.73
	c8.62,0.29,13.7,1.41,15.26,3.34c2.13,2.52,3.68,12.69,4.65,30.51c0.97,17.83,1.26,35.45,0.87,52.88
	c-0.39,17.44-1.26,27.12-2.62,29.06c-1.94,3.3-27.27,5.38-75.99,6.25c-48.72,0.87-74.53-0.15-77.44-3.05
	c-3.1-2.33-4.46-9.1-4.07-20.34c0.39-11.23,2.32-19.37,5.81-24.41c1.55-2.13,7.94-3.92,19.18-5.38c11.23-1.45,22.91-2.37,35.01-2.76
	c12.1-0.39,24.55-0.68,37.34-0.87c12.79-0.19,19.95-0.39,21.5-0.58c2.32-0.19,4.31-0.73,5.96-1.6c1.64-0.87,2.81-1.84,3.49-2.91
	c0.68-1.06,1.02-2.22,1.02-3.49c0-1.26-0.34-2.47-1.02-3.63c-0.68-1.16-1.7-2.03-3.05-2.62c-1.74-0.77-20.97-0.29-57.68,1.45
	c-36.71,1.74-56.71,1.84-60,0.29c-2.71-1.35-4.65-11.91-5.81-31.67c-1.16-19.76-1.02-39.76,0.44-60
	c1.45-20.24,3.92-31.53,7.41-33.85c5.23-3.68,28.52-5.42,69.88-5.23C1231.89,2088.46,1254.7,2090.4,1258.96,2094.08z"/>
<path class="st0" d="M1379.26,2226.29c0.97,0.58,1.74,5.91,2.32,15.98c0.58,10.08,0.53,20.34-0.15,30.8
	c-0.68,10.46-2.28,16.18-4.79,17.14c-3.88,1.55-20.15,1.98-48.82,1.31c-28.67-0.68-43.69-2.18-45.04-4.5
	c-1.74-2.32-1.89-35.21-0.44-98.65c1.45-63.44,3.53-96.52,6.25-99.23c3.49-3.29,12.06-4.98,25.72-5.08
	c13.66-0.09,21.26,1.89,22.81,5.96c0.97,2.52,1.26,24.7,0.87,66.54c-0.39,41.84,0.1,63.16,1.45,63.93
	c1.16,1.36,7.12,2.08,17.87,2.18C1368.07,2222.76,1375.38,2223.97,1379.26,2226.29z"/>
<path class="st0" d="M1389.72,2290.22c-1.16-1.93-1.99-19.42-2.47-52.45c-0.49-33.03-0.25-65.96,0.73-98.8
	c0.97-32.84,2.81-49.64,5.52-50.42c4.65-2.91,26.49-4.55,65.53-4.94c39.03-0.39,60.49,0.97,64.36,4.07
	c1.93,1.55,3.82,12.54,5.67,32.98c1.84,20.44,3.15,42.67,3.92,66.69c0.77,24.02,1.26,46.35,1.45,66.98
	c0.19,20.63-0.39,31.82-1.74,33.56c-3.3,2.91-13.18,4.16-29.64,3.78c-16.47-0.39-26.64-1.36-30.51-2.91
	c-1.55-0.77-2.32-6.73-2.32-17.87c0-11.14,0.24-22.71,0.73-34.72c0.48-12.01,0.63-18.79,0.44-20.34c-0.97-2.91-2.67-4.65-5.09-5.23
	c-2.42-0.58-4.89,0-7.41,1.74c-1.36,0.78-2.08,7.07-2.18,18.89c-0.1,11.82,0.14,24.02,0.73,36.61c0.58,12.59,0.77,19.57,0.58,20.92
	c-0.39,2.91-11.38,4.55-32.98,4.94C1403.42,2294.09,1391.65,2292.93,1389.72,2290.22z M1437.95,2145.8c-1.94,0.2-3.25,1.6-3.92,4.21
	c-0.68,2.62-0.48,5.18,0.58,7.7c1.06,2.52,2.95,3.88,5.67,4.07c0.39,0,1.69,0.1,3.92,0.29c2.22,0.2,4.26,0.34,6.1,0.44
	c1.84,0.1,4.21,0.19,7.12,0.29c2.91,0.1,5.57,0.15,7.99,0.15c2.42,0,5.09,0,7.99,0c2.91,0,5.47-0.1,7.7-0.29
	c2.22-0.19,4.36-0.39,6.39-0.58c2.04-0.19,3.63-0.58,4.79-1.16s1.93-1.16,2.32-1.74c1.35-3.29,1.26-6.73-0.29-10.32
	c-1.55-3.58-4.07-5.47-7.55-5.67c-1.94-0.19-6.97-0.04-15.11,0.44c-8.14,0.49-15.79,0.92-22.96,1.31L1437.95,2145.8z"/>
<path class="st0" d="M1550.11,2288.77c-1.36-0.97-2.42-18.11-3.2-51.43c-0.78-33.32-0.87-66.59-0.29-99.81
	c0.58-33.22,2.03-50.03,4.36-50.42c3.87-0.77,14.96-1.64,33.27-2.62c18.31-0.97,37.09-1.31,56.37-1.02
	c19.27,0.29,30.17,1.79,32.69,4.5c2.52,2.91,4.65,10.42,6.39,22.52c1.74,12.11,2.66,23.3,2.76,33.56
	c0.09,10.27-0.34,17.43-1.31,21.5c-1.74,3.68-3.83,6.1-6.25,7.26c-2.42,1.16-6.25,1.74-11.48,1.74c-4.84,0-7.95,1.65-9.3,4.94
	c-1.36,3.3-0.49,6.59,2.62,9.88c1.55,1.55,3.97,2.76,7.26,3.63c3.29,0.87,6.39,1.79,9.3,2.76c2.91,0.97,4.84,2.42,5.81,4.36
	c1.93,3.1,2.86,17.78,2.76,44.02c-0.1,26.25-1.12,40.83-3.05,43.73c-2.52,2.32-24.07,3.39-64.65,3.2
	C1573.6,2290.9,1552.24,2290.12,1550.11,2288.77z M1589.92,2126.04c-1.74,0.39-2.86,1.89-3.34,4.5c-0.49,2.62-0.1,5.18,1.16,7.7
	c1.26,2.52,3.15,3.78,5.67,3.78c34.48,0,52.5-1.93,54.05-5.81c1.35-3.29,1.11-6.73-0.73-10.32c-1.84-3.58-4.41-5.38-7.7-5.38
	c-1.36,0-3.97,0.2-7.85,0.58c-3.88,0.39-8.09,0.87-12.64,1.45c-4.55,0.58-9.01,1.12-13.37,1.6c-4.36,0.49-7.99,0.92-10.9,1.31
	L1589.92,2126.04z M1589.92,2230.94c-0.97,0.2-1.79,0.87-2.47,2.03c-0.68,1.16-1.02,2.52-1.02,4.07c0,1.55,0.19,3.1,0.58,4.65
	c0.39,1.55,1.16,2.81,2.32,3.78c1.16,0.97,2.52,1.45,4.07,1.45c34.48,0,52.5-1.93,54.05-5.81c1.35-3.29,1.11-6.73-0.73-10.32
	c-1.84-3.58-4.41-5.38-7.7-5.38c-2.13,0-7.26,0.49-15.4,1.45c-8.14,0.97-15.79,1.84-22.96,2.62L1589.92,2230.94z"/>
<g>
	<path d="M66.45,77.81c-0.57-1.49-1.15-2.99-1.72-4.48c-0.21,0.01-0.42,0.02-0.63,0.02c-0.12,0-0.25,0-0.37,0
		c-1.13-0.02-2.58-0.1-4.43-0.25c-0.47-0.04-0.86-0.06-1.18-0.09c0.01,0.34,0.02,0.72,0.04,1.14l5.16,13.44
		c0.33-0.02,0.65-0.03,0.97-0.03c0.39,0,0.77,0.01,1.15,0.03c0.5,0.03,1.63,0.1,2.78,0.59c0.06-1.92,0.13-3.67,0.2-5.24
		c-0.45-1.16-0.89-2.32-1.34-3.49L66.45,77.81z"/>
	<path d="M134.88,123.03c-0.26,0.76-0.53,1.51-0.79,2.27c-0.93,2.67-1.86,5.34-2.79,8.01c-0.43,1.24-0.86,2.49-1.29,3.73
		c-1.16,3.37-2.37,6.85-3.59,10.25c-0.01,0.02-0.02,0.05-0.02,0.07l-0.38,1.17l-15.43,44.25c-1.36-3.54-2.72-7.08-4.08-10.61
		l-2.75-7.16c-1.18-3.06-2.4-6.23-3.58-9.35c0-0.05-0.01-0.13-0.01-0.19c-0.01-0.16-0.01-0.35-0.04-0.56
		c-0.03-0.26-0.09-0.51-0.2-0.74c-2.41-5.41-4.59-11.07-6.69-16.55c-0.6-1.57-1.2-3.14-1.81-4.7c-1.71-4.4-3.42-8.88-5.07-13.21
		c-0.79-2.08-1.59-4.16-2.38-6.24c-2.8-0.07-5.14-0.15-7.01-0.24l31.55,82.21c0.36,0.95,1.27,1.57,2.29,1.57c0.01,0,0.03,0,0.04,0
		c1.03-0.02,1.94-0.68,2.27-1.65l1.14-3.31c0.8-2.32,1.56-4.53,2.33-6.75c0.88-2.56,1.77-5.11,2.66-7.66l0.73-2.09
		c0.36-1.03,0.72-2.07,1.08-3.1c0.78-2.21,1.58-4.5,2.34-6.77c0.47-1.39,0.97-2.81,1.46-4.17c0.62-1.75,1.26-3.56,1.86-5.37
		c0.67-2.04,1.41-4.11,2.13-6.12c0.43-1.2,0.86-2.4,1.28-3.61c0.67-1.93,1.33-3.86,2-5.8c0.45-1.31,0.89-2.61,1.34-3.92
		c0.33-0.94,0.64-1.89,0.96-2.83c0.76-2.24,1.54-4.56,2.39-6.78c0.77-1.99,1.44-4.02,2.09-5.98c0.39-1.19,0.8-2.42,1.22-3.62
		c0.48-1.35,0.95-2.72,1.42-4.07c-0.4-0.01-0.79-0.02-1.15-0.03C137.4,123.3,135.84,123.2,134.88,123.03z"/>
	<path d="M55.55,51c0.2,0,0.41,0,0.62,0c-0.96-2.51-1.93-5.03-2.89-7.54l-3.48-9.06c-1.95-5.08-3.9-10.17-5.89-15.34l-0.85-2.21
		l35.28,7.2c1.05,0.21,2.12-0.28,2.64-1.22l0.24-0.43c0.58-1.06,0.3-2.38-0.65-3.11c-0.11-0.09-0.26-0.22-0.41-0.37
		c-0.54-0.51-1.29-1.2-2.37-1.49c-1.69-0.44-3.39-0.78-5.04-1.1c-0.68-0.13-1.35-0.26-2.03-0.4l-1.66-0.34
		c-3.23-0.67-6.56-1.35-9.84-2.06c-0.02,0-0.04-0.01-0.05-0.01l-2.52-0.48c-2.18-0.42-4.4-0.88-6.54-1.33l-1.75-0.36
		c-2.69-0.56-5.39-1.11-8.17-1.69l-2.97-0.61c-0.88-0.18-1.78,0.13-2.36,0.81c-0.58,0.68-0.74,1.63-0.42,2.46l14.92,38.86
		C50.98,51.07,53,51,55.55,51z"/>
	<path d="M166.72,51.02c0.23-0.67,0.47-1.35,0.7-2.02c0.78-2.24,1.57-4.49,2.37-6.76l1.06-3.02c0.23-0.67,0.17-1.41-0.18-2.02
		c-0.35-0.62-0.95-1.05-1.64-1.19l-25.31-5.12c-0.66-0.13-1.35,0.01-1.9,0.4c-0.55,0.39-0.92,0.99-1.01,1.66
		c-0.13,0.9-0.27,1.92,0.31,2.91c0.7,1.19,1.92,1.44,2.65,1.6c0.81,0.17,1.62,0.33,2.43,0.5c0.55,0.11,1.1,0.22,1.64,0.33l2.49,0.51
		c3.38,0.69,6.77,1.39,10.15,2.09c0.9,0.19,1.8,0.37,2.7,0.57c-0.32,0.95-0.62,1.87-0.95,2.78c-0.23,0.65-0.48,1.29-0.75,1.97
		c-0.32,0.81-0.65,1.65-0.95,2.51c-0.25,0.72-0.49,1.45-0.73,2.18C162.22,50.89,164.54,50.94,166.72,51.02z"/>
	<path d="M72.56,122.87c-0.91-0.12-2.33-0.3-3.35-1.29c-0.26,0.12-0.54,0.23-0.83,0.32c1.21,3.12,2.42,6.25,3.63,9.37
		c1.44,3.72,2.87,7.43,4.3,11.15c0.88,2.29,1.76,4.58,2.65,6.88c1.69,4.4,3.38,8.8,5.08,13.2c0.46,1.18,0.94,2.36,1.41,3.51
		c0.21,0.52,0.43,1.04,0.64,1.56c0.38,0.94,1.29,1.53,2.27,1.53c0.15,0,0.3-0.01,0.45-0.04c1.12-0.21,2.28-0.43,2.96-1.64
		c0.67-1.2,0.24-2.33-0.11-3.23c-0.85-2.2-1.7-4.39-2.55-6.59c-1.79-4.63-3.59-9.26-5.38-13.9c-1.35-3.49-2.69-6.98-4.03-10.47
		c-1.27-3.31-2.57-6.7-3.88-10.09C74.44,123.07,73.37,122.98,72.56,122.87z"/>
	<path d="M181.4,31.16c-0.35-0.6-0.95-1.03-1.63-1.17l-28.76-5.82c-1.22-0.25-2.44,0.46-2.82,1.65l-0.45,1.4
		c-0.4,1.25,0.26,2.6,1.49,3.05c0.07,0.03,0.14,0.06,0.21,0.08c0.24,0.1,0.56,0.23,0.95,0.31c1.83,0.37,3.66,0.74,5.48,1.11
		c4.11,0.83,8.36,1.69,12.51,2.55l5.57,1.2l-5.09,15.61c3.46,0.23,5.2,0.65,6.33,1.53l6.41-19.51
		C181.83,32.49,181.75,31.76,181.4,31.16z"/>
	<path d="M67.93,118.32c-0.02-0.26-0.04-0.52-0.05-0.81c-0.06-1.09-0.09-2.58-0.1-4.57c-0.02-3.84,0.06-9.53,0.23-16.93
		c0.02-0.83,0.04-1.64,0.06-2.43c-0.16-0.9-0.35-1.48-0.56-1.73c-0.36-0.45-1.12-0.71-2.27-0.78c-0.31-0.02-0.63-0.03-0.95-0.03
		c-0.86,0-1.74,0.07-2.64,0.2c-1.24,0.18-2.45,0.32-3.63,0.41c-0.47,0.04-0.87,0.05-1.21,0.05c-0.51,0-0.87-0.04-1.09-0.12
		c-0.45-0.18-1.19-20.04-1.12-20.49c0.07-0.45,0.27-0.85,0.61-1.19c0.34-0.34,0.76-0.51,1.25-0.51c0.32,0,1.36,0.07,3.12,0.2
		c1.76,0.14,3.17,0.21,4.24,0.24c0.1,0,0.2,0,0.3,0c0.96,0,1.94-0.1,2.92-0.31c0.54-0.18,1.02-1.29,1.42-3.32
		c0.41-2.03,0.6-4.13,0.58-6.3c-0.02-2.17-0.35-3.52-0.98-4.07c-0.95-0.86-4.79-1.31-11.52-1.36c-0.33,0-0.66,0-0.97,0
		c-6.14,0-9.82,0.41-11.02,1.22c-0.77,0.54-1.32,3.16-1.66,7.86c-0.34,4.7-0.37,27.62-0.1,32.25c0.27,4.63,0.72,7.1,1.36,7.42
		c0.36,0.17,1.18,0.26,2.46,0.26c1.44,0,3.47-0.11,6.08-0.32c3.41-0.28,5.75-0.42,7.01-0.42c0.56,0,0.91,0.03,1.05,0.08
		c0.5,0.23,0.79,0.6,0.88,1.12c0.09,0.52-0.07,0.99-0.47,1.42c-0.41,0.43-1.06,0.69-1.97,0.78c-0.27,0-1.37,0.03-3.29,0.1
		c-1.92,0.07-3.59,0.15-5.01,0.24c-1.42,0.09-2.88,0.29-4.37,0.61c-1.49,0.32-2.42,0.75-2.78,1.29c-0.81,1.18-1.27,3.07-1.36,5.69
		c-0.09,2.62,0.23,4.2,0.95,4.74c0.52,0.52,3.13,0.78,7.84,0.78c1.41,0,3.01-0.02,4.8-0.07C62.88,119.36,66.87,118.95,67.93,118.32z
		"/>
	<path d="M83.1,71.76c-0.06,0-0.12,0.01-0.01,0.03C83.21,71.76,83.16,71.76,83.1,71.76z"/>
	<path d="M103.61,120.26c5.01,0,8.3-0.25,9.15-1.32c0-0.04-0.01-0.07-0.01-0.11c-0.04-0.56-0.08-1.32-0.12-2.33
		c-0.06-1.66-0.12-3.96-0.17-6.83c-0.01-0.72-0.02-1.45-0.04-2.17c-0.81-0.47-2.22-0.74-4.25-0.81c-0.85,0.04-1.79,0.07-2.83,0.09
		c-0.65,0.01-1.26,0.02-1.84,0.02c-2.39,0-4.16-0.09-5.52-0.31c-2.64-0.08-4.81-0.19-4.93-0.33c-0.32-0.18-0.42-7.74-0.3-17.49
		c0.11-9.76,0.03-14.93-0.24-15.52c-0.18-0.63-2.63-1.05-7.35-1.25c-1.4-0.06-1.91-0.1-2.07-0.13c-0.17,0.02-0.71,0.07-2.14,0.13
		c-4.83,0.2-7.5,0.53-8,0.98c-0.63,0.68-1.12,8.41-1.46,23.21c-0.34,14.8-0.3,22.44,0.1,22.94c0.32,0.54,6.88,0.89,19.68,1.05
		C96.03,120.14,100.21,120.26,103.61,120.26z"/>
	<path d="M173.14,55.51c-0.45-0.5-2.57-0.82-6.37-0.98c-2.21-0.09-4.54-0.14-6.99-0.14c-1.75,0-3.55,0.02-5.41,0.07
		c-4.47,0.11-8.59,0.25-12.37,0.41c-3.77,0.16-5.95,0.3-6.54,0.44c-0.54,0.09-0.88,21.19-1.02,28.93
		c-0.14,7.75-0.11,15.51,0.07,23.28c0.18,7.77,0.43,11.77,0.75,11.99c0.5,0.32,7,0.5,19.52,0.54c0.97,0,1.9,0.01,2.8,0.01
		c10.69,0,16.31-0.25,16.85-0.75c0.5-0.72,0.75-4.14,0.75-10.27c0-6.12-0.2-16.57-0.61-17.29c-0.32-0.59-1.16-1.04-2.54-1.36
		c-1.38-0.32-2.27-0.68-2.68-1.08c-0.72-0.77-0.93-1.54-0.61-2.3c0.32-0.77,1.04-1.15,2.17-1.15c1.22,0,2.11-0.15,2.68-0.44
		c0.56-0.29,1.07-0.85,1.52-1.66c0.18-0.99,0.26-2.68,0.24-5.05c-0.02-2.37-0.25-15.12-0.68-17.95
		C174.24,57.94,173.73,56.19,173.14,55.51z M149.12,71.47c0.15-0.65,0.41-1.03,0.8-1.12l0.51-0.15c0.29-0.1,0.69-0.21,1.2-0.33
		c0.51-0.12,1.04-0.25,1.6-0.4c0.56-0.15,1.1-0.27,1.63-0.36c0.53-0.1,0.97-0.15,1.31-0.15c0.82,0,1.46,0.45,1.92,1.34
		c0.46,0.9,0.54,1.75,0.25,2.57c-0.42,0.97-2.57,1.45-6.46,1.45c-0.19,0-0.38,0-0.57,0c-0.19,0-0.34,0-0.44,0
		c-0.68,0-1.17-0.31-1.49-0.94C149.06,72.76,148.98,72.12,149.12,71.47z M159.1,102.82c-0.51,1.13-3.25,1.7-8.22,1.7
		c-0.23,0-0.4,0-0.51,0c-0.79,0-1.37-0.37-1.74-1.1c-0.37-0.73-0.47-1.48-0.3-2.25c0.17-0.76,0.48-1.2,0.93-1.31l0.59-0.17
		c0.34-0.11,0.81-0.24,1.4-0.38c0.59-0.14,1.21-0.3,1.86-0.47c0.65-0.17,1.28-0.31,1.91-0.42c0.62-0.11,1.13-0.17,1.53-0.17
		c0.96,0,1.71,0.52,2.25,1.57C159.34,100.86,159.44,101.86,159.1,102.82z"/>
	<path d="M123.48,120.12c0.45,0.01,0.88,0.02,1.29,0.02c3.07,0,4.94-0.3,5.62-0.9c0.32-0.41,0.45-20.31,0.41-25.13
		c-0.05-4.81-0.06-9.04-0.49-13.8c-0.43-4.77-0.87-7.33-1.32-7.69c-0.27-0.21-0.97-0.39-2.05-0.54c-3.39,0-5.47-0.18-7.24-0.4
		c-1.11-0.02-2.3-0.03-3.58-0.03c-0.92,0-1.89,0-2.9,0.01c-9.1,0.09-14.2,0.47-15.28,1.15c-0.63,0.18-1.06,4.1-1.29,11.76
		c-0.07,2.52-0.13,3.16-0.17,3.16c-0.03,0-0.05-0.46-0.06-0.62c0.01,0.21,0.02,1.01,0.05,3.13c0.11,7.7,0.3,11.78,0.58,12.23
		c0.39,0.55,2.55,0.83,6.46,0.83c0.56,0,1.15-0.01,1.78-0.02c5.04-0.09,7.6-0.47,7.69-1.15c0.04-0.32,0-1.94-0.14-4.88
		c-0.14-2.94-0.19-5.78-0.17-8.54c0.02-2.76,0.19-4.22,0.51-4.4c0.44-0.3,0.87-0.46,1.3-0.46c0.14,0,0.28,0.02,0.43,0.05
		c0.56,0.14,0.96,0.54,1.19,1.22c0.04,0.36,0.01,1.94-0.1,4.74c-0.11,2.8-0.17,5.5-0.17,8.1c0,2.6,0.18,21.29,0.54,21.47
		C117.27,119.8,119.64,120.03,123.48,120.12z M115.76,80.07c-0.42,0-0.81,0-1.16,0c-0.35,0-0.74-0.01-1.16-0.03
		c-0.42-0.02-0.76-0.04-1.03-0.06c-0.27-0.02-0.56-0.05-0.88-0.09c-0.32-0.04-0.51-0.06-0.57-0.06c-0.39-0.04-0.67-0.33-0.82-0.88
		c-0.15-0.54-0.18-1.1-0.08-1.66c0.1-0.56,0.29-0.87,0.57-0.91l1.56-0.19c1.16-0.09,1.98-0.16,3.32-0.28
		c0.84-0.07,1.46-0.11,1.84-0.11c0.15,0,0.27,0.01,0.35,0.02c0.5,0.04,0.87,0.45,1.09,1.22c0.22,0.77,0.24,1.51,0.04,2.22
		c-0.06,0.13-0.17,0.25-0.34,0.38c-0.17,0.13-0.4,0.21-0.69,0.25c-0.29,0.04-0.6,0.08-0.93,0.13
		C116.55,80.05,116.18,80.07,115.76,80.07z"/>
	<path d="M96.42,87.12c0-0.04,0-0.06,0-0.06C96.42,87.06,96.42,87.08,96.42,87.12z"/>
	<path d="M77.71,67.69c0.01,0,0.01,0,0.02,0c8.2,0,8.2,0.06,16.4,0.06c8.2,0,8.2-0.26,16.4-0.26c8.2,0,8.2,1.1,16.4,1.1
		c1.54,0,1.27-0.9,1.27-2.44c0-3.85,2.29-3.85,2.29-7.69c0-1.54-2.02-2.54-3.56-2.54c-8.2,0-8.2-0.6-16.4-0.6
		c-8.2,0-8.2-0.1-16.4-0.1c-8.2,0-8.2,1.19-16.4,1.19c-1.54,0-1.71,0.51-1.71,2.05c0,3.85-0.81,3.85-0.81,7.69
		C75.21,67.68,76.18,67.69,77.71,67.69z"/>
</g>
<g class="st0">
	<path class="st3" d="M-1542.8,2363.5c3.67,9.52,7.33,19.04,10.99,28.56c1.64,4.27,3.3,8.58,4.96,12.91
		c1.86-0.2,3.71-0.33,5.54-0.42l-22.12-57.64C-1543.27,2351.68-1543.06,2357.4-1542.8,2363.5z"/>
	<path class="st3" d="M-1481.25,2325.9c-1.62-2.17-2.99-4.97-3.64-8.57c-0.88,4.14-1.96,8.19-3.53,11.79
		C-1486.65,2327.85-1484.48,2326.79-1481.25,2325.9z"/>
	<path class="st3" d="M-1400.63,2641.8c2.61,6.72,5.19,13.45,7.77,20.17c9,23.49,18.31,47.77,28.67,70.96
		c0.45,1.01,0.74,2.09,0.86,3.19c0.1,0.91,0.13,1.75,0.15,2.42c0.01,0.26,0.02,0.58,0.04,0.81c5.06,13.38,10.28,26.96,15.33,40.1
		l11.8,30.72c5.82,15.17,11.65,30.34,17.48,45.52l66.15-189.74l1.63-5.03c0.03-0.1,0.07-0.2,0.1-0.3
		c5.22-14.61,10.38-29.54,15.38-43.97c1.85-5.34,3.69-10.68,5.55-16.02c3.98-11.46,7.97-22.91,11.96-34.37
		c1.13-3.24,2.26-6.48,3.39-9.73c-3.05-0.56-4.69-1.33-6.42-2.43l-0.33-0.21l-0.32-0.23c-0.89-0.64-1.68-1.32-2.37-2.06
		c-6.12,5.35-15.97,7.53-33.96,7.53c-1.86,0-3.84-0.02-5.88-0.07c-24.09-0.57-31.41-2.25-35.73-3.97l-0.56-0.22l-0.54-0.27
		c-0.9-0.44-1.69-0.95-2.4-1.48c-0.34,0.22-0.68,0.43-1.04,0.63c-3.4,1.93-7.49,3.26-12.87,4.18c-7.19,1.23-16.67,1.75-31.71,1.75
		c-8.9,0-19.15-0.19-30.01-0.38c-7.35-0.13-14.96-0.27-23.02-0.37c-11.47-0.14-21.83-0.32-31.05-0.54
		c3.41,8.91,6.82,17.83,10.22,26.74C-1415.28,2603.73-1407.95,2622.96-1400.63,2641.8z"/>
	<path class="st3" d="M-1501.48,2341.69l-0.84,0.18c-4.3,0.9-8.63,1.41-12.91,1.57c2.46,6.41,4.91,12.81,7.37,19.22l2.71,7.07
		c1.91,4.98,3.83,9.97,5.74,14.95c0.28-6.35,0.58-12.03,0.9-17c1.01-16.08,2.01-24.38,3.65-29.47c-1.65,1.37-3.55,2.48-5.79,3.22
		L-1501.48,2341.69z"/>
	<path class="st3" d="M-1230.51,2328.52c0.08,0.06,0.15,0.12,0.23,0.18c0.08,0.07,0.16,0.14,0.24,0.21
		c0.01-0.45,0.02-0.89,0.03-1.34C-1230.17,2327.88-1230.34,2328.2-1230.51,2328.52z"/>
	<path class="st1" d="M-1507.87,2362.65c-2.46-6.4-4.91-12.81-7.37-19.22c-0.9,0.03-1.8,0.07-2.69,0.07c-0.53,0-1.07-0.01-1.59-0.02
		c-4.85-0.1-11.06-0.45-19-1.06c-2-0.15-3.67-0.28-5.08-0.38c0.04,1.47,0.1,3.11,0.16,4.87l22.12,57.64
		c1.4-0.07,2.78-0.11,4.15-0.11c1.66,0,3.32,0.05,4.95,0.14c2.15,0.13,7,0.42,11.93,2.52c0.27-8.24,0.56-15.73,0.86-22.45
		c-1.91-4.98-3.83-9.97-5.74-14.95L-1507.87,2362.65z"/>
	<path class="st1" d="M-1214.39,2556.55c-1.13,3.24-2.26,6.48-3.39,9.73c-3.99,11.45-7.98,22.91-11.96,34.37
		c-1.85,5.34-3.7,10.68-5.55,16.02c-4.99,14.44-10.16,29.37-15.38,43.97c-0.04,0.1-0.07,0.2-0.1,0.3l-1.63,5.03l-66.15,189.74
		c-5.83-15.17-11.65-30.34-17.48-45.52l-11.8-30.72c-5.05-13.14-10.27-26.72-15.33-40.1c-0.01-0.23-0.03-0.55-0.04-0.81
		c-0.03-0.67-0.06-1.51-0.15-2.42c-0.12-1.1-0.4-2.18-0.86-3.19c-10.36-23.19-19.67-47.48-28.67-70.96
		c-2.58-6.73-5.16-13.46-7.77-20.17c-7.32-18.85-14.65-38.07-21.74-56.67c-3.4-8.92-6.81-17.83-10.22-26.74
		c-12-0.28-22.06-0.62-30.07-1.03l135.31,352.54c1.56,4.06,5.46,6.74,9.8,6.74c0.06,0,0.12,0,0.18,0c4.41-0.08,8.31-2.9,9.75-7.08
		l4.9-14.2c3.43-9.94,6.7-19.44,9.98-28.93c3.79-10.96,7.6-21.91,11.41-32.87l3.11-8.94c1.54-4.44,3.09-8.87,4.65-13.3
		c3.32-9.5,6.76-19.32,10.06-29.03c2.02-5.96,4.17-12.03,6.24-17.9c2.66-7.52,5.41-15.29,7.97-23.04
		c2.89-8.75,6.06-17.64,9.13-26.23c1.84-5.15,3.67-10.3,5.47-15.46c2.88-8.28,5.72-16.57,8.56-24.86c1.92-5.6,3.84-11.2,5.77-16.79
		c1.4-4.04,2.76-8.1,4.13-12.15c3.24-9.62,6.59-19.56,10.27-29.07c3.3-8.54,6.17-17.23,8.95-25.64c1.69-5.11,3.43-10.39,5.23-15.51
		c2.04-5.79,4.07-11.65,6.08-17.45c-1.72-0.04-3.37-0.08-4.93-0.12C-1203.61,2557.7-1210.28,2557.3-1214.39,2556.55z"/>
	<path class="st1" d="M-1554.62,2247.66c0.87,0,1.76,0.01,2.65,0.01c-4.14-10.77-8.27-21.55-12.41-32.32l-14.91-38.83
		c-8.37-21.81-16.74-43.61-25.24-65.78l-3.63-9.47l151.3,30.86c4.52,0.92,9.1-1.21,11.31-5.25l1.02-1.86
		c2.48-4.53,1.3-10.19-2.79-13.34c-0.47-0.37-1.1-0.95-1.77-1.57c-2.33-2.17-5.53-5.15-10.18-6.38c-7.24-1.9-14.55-3.33-21.62-4.71
		c-2.9-0.56-5.8-1.13-8.69-1.73l-7.12-1.47c-13.84-2.86-28.15-5.81-42.18-8.82c-0.08-0.02-0.16-0.03-0.23-0.05l-10.8-2.06
		c-9.34-1.82-18.85-3.79-28.04-5.69l-7.52-1.55c-11.55-2.38-23.11-4.77-35.05-7.23l-12.73-2.63c-3.76-0.77-7.64,0.56-10.13,3.49
		c-2.48,2.93-3.17,6.97-1.8,10.56l63.96,166.65C-1574.21,2247.96-1565.52,2247.66-1554.62,2247.66z"/>
	<path class="st1" d="M-1077.86,2247.78c1-2.89,2-5.79,3.01-8.68c3.36-9.63,6.74-19.24,10.17-28.98l4.55-12.94
		c1.01-2.87,0.72-6.03-0.78-8.67c-1.5-2.64-4.07-4.5-7.05-5.1l-108.52-21.94c-2.84-0.57-5.78,0.05-8.15,1.72
		c-2.36,1.67-3.93,4.25-4.33,7.11c-0.54,3.86-1.16,8.24,1.32,12.47c2.99,5.11,8.24,6.2,11.38,6.85c3.47,0.72,6.94,1.43,10.42,2.13
		c2.35,0.48,4.7,0.96,7.05,1.44l10.68,2.19c14.51,2.98,29.02,5.96,43.53,8.95c3.85,0.79,7.7,1.6,11.6,2.42
		c-1.35,4.08-2.67,8.01-4.06,11.91c-0.99,2.78-2.08,5.53-3.23,8.44c-1.37,3.47-2.79,7.06-4.06,10.77c-1.06,3.1-2.11,6.22-3.15,9.34
		C-1097.17,2247.21-1087.22,2247.4-1077.86,2247.78z"/>
	<path class="st1" d="M-1481.66,2555.89c-3.92-0.51-9.99-1.31-14.39-5.51c-1.13,0.52-2.31,0.97-3.54,1.36
		c5.19,13.39,10.38,26.79,15.56,40.18c6.17,15.94,12.32,31.88,18.46,47.83c3.78,9.83,7.56,19.66,11.34,29.49
		c7.26,18.88,14.52,37.75,21.81,56.62c1.96,5.08,4.04,10.14,6.06,15.03c0.92,2.23,1.84,4.46,2.74,6.69
		c1.63,4.01,5.52,6.55,9.72,6.55c0.64,0,1.28-0.06,1.93-0.18c4.81-0.9,9.78-1.82,12.68-7.03c2.88-5.16,1.01-9.98-0.49-13.86
		c-3.65-9.42-7.29-18.83-10.94-28.25c-7.7-19.86-15.4-39.72-23.06-59.59c-5.77-14.96-11.52-29.92-17.26-44.88
		c-5.46-14.21-11.04-28.74-16.64-43.27C-1473.58,2556.74-1478.18,2556.35-1481.66,2555.89z"/>
	<path class="st1" d="M-1014.9,2162.59c-1.51-2.59-4.05-4.42-6.99-5.01l-123.35-24.97c-5.25-1.06-10.45,1.99-12.08,7.09l-1.92,5.99
		c-1.72,5.37,1.1,11.13,6.4,13.07c0.32,0.12,0.62,0.24,0.9,0.35c1.01,0.41,2.4,0.98,4.09,1.32c7.84,1.59,15.68,3.18,23.52,4.77
		c17.62,3.57,35.85,7.26,53.66,10.95l23.89,5.16l-21.83,66.94c14.82,0.99,22.32,2.8,27.15,6.57l27.48-83.67
		C-1013.07,2168.3-1013.39,2165.18-1014.9,2162.59z"/>
	<path class="st1" d="M-1501.53,2536.35c-0.09-1.1-0.16-2.25-0.22-3.46c-0.25-4.66-0.39-11.06-0.43-19.59
		c-0.07-16.45,0.26-40.87,0.98-72.58c0.08-3.56,0.17-7.02,0.25-10.4c-0.7-3.86-1.5-6.34-2.41-7.42c-1.55-1.93-4.79-3.05-9.73-3.34
		c-1.34-0.08-2.7-0.12-4.07-0.12c-3.68,0-7.45,0.28-11.33,0.84c-5.33,0.78-10.51,1.36-15.55,1.74c-2.02,0.16-3.75,0.23-5.21,0.23
		c-2.19,0-3.74-0.18-4.67-0.52c-1.94-0.77-5.09-85.94-4.79-87.88c0.29-1.93,1.16-3.63,2.62-5.09c1.45-1.45,3.24-2.18,5.38-2.18
		c1.35,0,5.81,0.29,13.37,0.87s13.61,0.92,18.16,1.02c0.42,0.01,0.85,0.01,1.27,0.01c4.14,0,8.31-0.44,12.53-1.32
		c2.32-0.77,4.36-5.52,6.1-14.24c1.74-8.72,2.56-17.73,2.47-27.02c-0.1-9.3-1.5-15.11-4.21-17.43c-4.07-3.68-20.54-5.62-49.4-5.81
		c-1.42-0.01-2.81-0.01-4.18-0.01c-26.35,0-42.1,1.75-47.25,5.24c-3.3,2.32-5.67,13.56-7.12,33.71
		c-1.45,20.15-1.6,118.44-0.44,138.3c1.16,19.86,3.1,30.46,5.81,31.82c1.55,0.73,5.07,1.1,10.56,1.1c6.18,0,14.87-0.46,26.05-1.39
		c14.62-1.21,24.64-1.81,30.06-1.81c2.41,0,3.92,0.12,4.51,0.36c2.13,0.97,3.39,2.57,3.78,4.79c0.39,2.23-0.29,4.26-2.03,6.1
		c-1.74,1.84-4.55,2.96-8.43,3.34c-1.16,0-5.86,0.14-14.09,0.44c-8.24,0.29-15.4,0.63-21.5,1.02c-6.1,0.39-12.35,1.26-18.74,2.62
		c-6.39,1.36-10.37,3.2-11.91,5.52c-3.49,5.04-5.43,13.18-5.81,24.41c-0.39,11.24,0.97,18.02,4.07,20.34
		c2.24,2.24,13.44,3.35,33.61,3.35c6.05,0,12.92-0.1,20.59-0.3C-1523.16,2540.83-1506.04,2539.08-1501.53,2536.35z"/>
	<path class="st1" d="M-1436.45,2336.68c-0.24,0-0.5,0.04-0.03,0.11C-1435.97,2336.71-1436.2,2336.68-1436.45,2336.68z"/>
	<path class="st1" d="M-1348.52,2544.68c21.49,0,35.61-1.09,39.23-5.65c-0.01-0.16-0.02-0.32-0.04-0.47
		c-0.18-2.39-0.34-5.66-0.5-9.97c-0.27-7.14-0.51-16.99-0.73-29.29c-0.06-3.08-0.11-6.2-0.15-9.32c-3.46-2-9.52-3.15-18.21-3.46
		c-3.63,0.19-7.66,0.32-12.14,0.4c-2.77,0.05-5.42,0.07-7.88,0.07c-10.24,0-17.86-0.38-23.66-1.34c-11.33-0.35-20.64-0.81-21.13-1.4
		c-1.36-0.77-1.79-33.18-1.31-75.02c0.48-41.84,0.15-64.02-1.02-66.54c-0.78-2.71-11.29-4.5-31.53-5.38c-6-0.26-8.21-0.44-8.89-0.55
		c-0.74,0.11-3.05,0.29-9.19,0.55c-20.73,0.87-32.16,2.28-34.29,4.21c-2.71,2.91-4.79,36.08-6.25,99.52
		c-1.45,63.45-1.31,96.23,0.44,98.36c1.35,2.32,29.49,3.83,84.41,4.5C-1381.01,2544.19-1363.07,2544.68-1348.52,2544.68z"/>
	<path class="st1" d="M-1050.32,2267.01c-1.94-2.13-11.04-3.53-27.31-4.21c-9.49-0.39-19.48-0.59-29.96-0.59
		c-7.49,0-15.22,0.1-23.21,0.3c-19.18,0.49-36.86,1.07-53.03,1.74c-16.18,0.68-25.53,1.31-28.04,1.89
		c-2.32,0.39-3.78,90.86-4.36,124.08c-0.58,33.23-0.49,66.5,0.29,99.81c0.77,33.32,1.84,50.46,3.2,51.43
		c2.13,1.36,30.03,2.13,83.69,2.32c4.15,0.02,8.15,0.02,11.99,0.02c45.85,0,69.95-1.07,72.27-3.22c2.13-3.1,3.2-17.77,3.2-44.02
		c0-26.25-0.87-71.04-2.62-74.15c-1.36-2.51-4.99-4.45-10.9-5.81c-5.91-1.35-9.73-2.91-11.48-4.65c-3.1-3.29-3.97-6.58-2.62-9.88
		c1.35-3.29,4.45-4.94,9.3-4.94c5.23,0,9.05-0.63,11.48-1.89c2.42-1.26,4.6-3.63,6.54-7.12c0.77-4.26,1.11-11.48,1.02-21.65
		c-0.1-10.17-1.07-64.85-2.91-76.96C-1045.62,2277.42-1047.8,2269.91-1050.32,2267.01z M-1153.33,2335.45
		c0.62-2.8,1.76-4.4,3.42-4.82l2.18-0.62c1.24-0.41,2.96-0.88,5.13-1.4c2.18-0.52,4.46-1.09,6.84-1.71c2.38-0.62,4.71-1.14,7-1.55
		c2.28-0.41,4.14-0.62,5.6-0.62c3.52,0,6.27,1.92,8.24,5.75c1.97,3.84,2.33,7.52,1.09,11.04c-1.78,4.16-11.02,6.24-27.72,6.24
		c-0.8,0-1.62,0-2.45-0.01c-0.83,0-1.45,0-1.87,0c-2.91,0-5.03-1.35-6.38-4.04C-1153.59,2341-1153.95,2338.25-1153.33,2335.45z
		 M-1110.54,2469.9c-2.18,4.85-13.94,7.27-35.26,7.27c-0.97,0-1.7,0-2.18,0c-3.4,0-5.88-1.57-7.45-4.73c-1.58-3.15-2-6.36-1.27-9.63
		c0.73-3.27,2.06-5.15,4-5.63l2.54-0.73c1.45-0.48,3.45-1.03,6-1.64c2.54-0.6,5.21-1.27,8-2c2.78-0.73,5.51-1.33,8.18-1.82
		c2.66-0.48,4.84-0.73,6.54-0.73c4.12,0,7.33,2.24,9.63,6.72C-1109.51,2461.48-1109.08,2465.78-1110.54,2469.9z"/>
	<path class="st1" d="M-1263.31,2544.08c1.93,0.05,3.77,0.07,5.52,0.07c13.17,0,21.21-1.28,24.12-3.85
		c1.35-1.74,1.93-87.11,1.74-107.75c-0.2-20.63-0.25-38.75-2.09-59.19c-1.84-20.44-3.73-31.43-5.67-32.98
		c-1.15-0.92-4.15-1.68-8.81-2.3c-14.53,0-23.47-0.78-31.05-1.71c-4.76-0.08-9.88-0.12-15.37-0.12c-3.96,0-8.11,0.02-12.42,0.06
		c-39.04,0.39-60.88,2.03-65.53,4.94c-2.72,0.78-4.55,17.58-5.52,50.42c-0.32,10.81-0.56,13.56-0.72,13.56
		c-0.14,0-0.22-1.96-0.24-2.67c0.02,0.9,0.1,4.34,0.24,13.43c0.48,33.03,1.31,50.52,2.47,52.45c1.69,2.37,10.92,3.56,27.69,3.56
		c2.39,0,4.93-0.02,7.62-0.07c21.6-0.39,32.59-2.03,32.98-4.94c0.19-1.35,0-8.33-0.58-20.92c-0.58-12.59-0.83-24.79-0.73-36.61
		c0.1-11.81,0.82-18.11,2.18-18.89c1.89-1.31,3.75-1.96,5.58-1.96c0.61,0,1.22,0.07,1.83,0.22c2.42,0.58,4.12,2.32,5.09,5.23
		c0.19,1.55,0.04,8.33-0.44,20.34c-0.49,12.01-0.73,23.59-0.73,34.72c0,11.14,0.77,91.28,2.32,92.05
		C-1289.95,2542.73-1279.78,2543.69-1263.31,2544.08z M-1296.41,2372.33c-1.8,0-3.46,0-4.96,0c-1.5,0-3.16-0.04-4.96-0.13
		c-1.8-0.09-3.28-0.18-4.42-0.27c-1.14-0.09-2.41-0.22-3.79-0.4c-1.38-0.18-2.19-0.27-2.43-0.27c-1.69-0.18-2.86-1.43-3.52-3.76
		c-0.66-2.32-0.78-4.7-0.36-7.11c0.42-2.42,1.23-3.71,2.44-3.89l6.67-0.8c4.96-0.4,8.48-0.7,14.25-1.21
		c3.62-0.32,6.25-0.48,7.89-0.48c0.65,0,1.14,0.02,1.48,0.07c2.16,0.18,3.73,1.92,4.69,5.23c0.96,3.31,1.02,6.49,0.18,9.53
		c-0.24,0.54-0.72,1.07-1.44,1.61c-0.72,0.54-1.71,0.9-2.98,1.07c-1.26,0.18-2.59,0.36-3.97,0.54
		C-1293.02,2372.24-1294.61,2372.33-1296.41,2372.33z"/>
	<path class="st1" d="M-1379.34,2402.57c0-0.18-0.01-0.26-0.01-0.26C-1379.35,2402.31-1379.34,2402.41-1379.34,2402.57z"/>
</g>
<g class="st0">
	<path class="st1" d="M86.92,2268.48c2.71,2.33,4.11,8.14,4.21,17.43c0.09,9.3-0.73,18.31-2.47,27.02
		c-1.74,8.72-3.78,13.47-6.1,14.24c-4.65,0.97-9.25,1.41-13.8,1.31c-4.55-0.1-10.61-0.44-18.16-1.02s-12.01-0.87-13.37-0.87
		c-2.13,0-3.92,0.73-5.38,2.18c-1.45,1.45-2.33,3.15-2.62,5.09c-0.29,1.94,2.86,87.11,4.79,87.88c1.55,0.58,4.84,0.68,9.88,0.29
		c5.04-0.39,10.22-0.97,15.55-1.74c5.33-0.77,10.46-1.02,15.4-0.73c4.94,0.29,8.18,1.41,9.73,3.34c2.13,2.52,3.68,12.64,4.65,30.37
		c0.97,17.73,1.26,35.31,0.87,52.74c-0.39,17.43-1.26,27.22-2.62,29.35c-1.74,3.3-19.23,5.38-52.45,6.25
		c-33.23,0.87-51.29-0.14-54.19-3.05c-3.1-2.32-4.46-9.1-4.07-20.34c0.39-11.23,2.32-19.37,5.81-24.41
		c1.55-2.33,5.52-4.16,11.91-5.52c6.39-1.35,12.64-2.22,18.74-2.62c6.1-0.39,13.27-0.73,21.5-1.02c8.23-0.29,12.93-0.44,14.09-0.44
		c3.87-0.39,6.68-1.5,8.43-3.34c1.74-1.84,2.42-3.87,2.03-6.1c-0.39-2.22-1.65-3.82-3.78-4.79c-1.94-0.77-13.47-0.29-34.58,1.45
		c-21.12,1.74-33.32,1.84-36.61,0.29c-2.71-1.35-4.65-11.96-5.81-31.82c-1.16-19.85-1.02-118.15,0.44-138.3
		c1.45-20.15,3.82-31.38,7.12-33.71c5.42-3.68,22.57-5.42,51.43-5.23C66.39,2262.87,82.86,2264.81,86.92,2268.48z"/>
	<path class="st1" d="M277.41,2490.08c0.97,0.58,1.74,5.91,2.33,15.98c0.58,10.08,0.53,20.29-0.15,30.66
		c-0.68,10.37-38.07,7.89-92.99,7.21c-54.92-0.68-83.06-2.18-84.41-4.5c-1.74-2.13-1.89-34.92-0.44-98.36
		c1.45-63.44,3.53-96.62,6.25-99.52c2.13-1.93,13.56-3.34,34.29-4.21c20.73-0.87-2.16-0.87,18.08,0
		c20.24,0.87,30.75,2.67,31.53,5.38c1.16,2.52,1.5,24.7,1.02,66.54c-0.49,41.84-0.05,74.25,1.31,75.02
		c1.16,1.36,50.5,2.08,61.25,2.18C266.23,2486.55,273.54,2487.76,277.41,2490.08z"/>
	<path class="st1" d="M376.08,2266.14c2.52-0.58,11.86-1.21,28.04-1.89c16.17-0.68,33.85-1.26,53.03-1.74
		c19.18-0.48,36.9-0.39,53.18,0.29c16.27,0.68,25.38,2.08,27.31,4.21c2.52,2.91,4.7,10.42,6.54,22.52
		c1.84,12.11,2.81,66.79,2.91,76.96c0.1,10.17-0.25,17.39-1.02,21.65c-1.94,3.49-4.12,5.86-6.54,7.12
		c-2.42,1.26-6.25,1.89-11.48,1.89c-4.84,0-7.95,1.65-9.3,4.94c-1.36,3.3-0.49,6.59,2.62,9.88c1.74,1.74,5.57,3.3,11.48,4.65
		c5.91,1.36,9.54,3.3,10.9,5.81c1.74,3.1,2.62,47.9,2.62,74.15c0,26.25-1.07,40.93-3.2,44.02c-2.52,2.32-30.61,3.39-84.27,3.2
		c-53.66-0.19-81.56-0.97-83.69-2.32c-1.36-0.97-2.42-18.11-3.2-51.43c-0.78-33.32-0.87-66.59-0.29-99.81
		C372.31,2357,373.76,2266.53,376.08,2266.14z M438.05,2330.63c-1.66,0.42-2.8,2.02-3.42,4.82s-0.26,5.55,1.09,8.24
		c1.35,2.7,3.47,4.04,6.38,4.04c0.41,0,1.03,0,1.87,0c18.24,0.21,28.3-1.87,30.17-6.22c1.24-3.52,0.88-7.2-1.09-11.04
		c-1.97-3.83-4.72-5.75-8.24-5.75c-1.45,0-3.32,0.21-5.6,0.62c-2.29,0.42-4.62,0.93-7,1.55c-2.39,0.62-4.67,1.2-6.84,1.71
		c-2.18,0.52-3.89,0.99-5.13,1.4L438.05,2330.63z M435.26,2457.18c-1.94,0.49-3.27,2.36-4,5.63c-0.73,3.27-0.31,6.49,1.27,9.63
		c1.57,3.15,4.06,4.73,7.45,4.73c0.48,0,1.21,0,2.18,0c21.32,0,33.08-2.42,35.26-7.27c1.45-4.12,1.03-8.42-1.27-12.9
		c-2.31-4.48-5.52-6.72-9.63-6.72c-1.7,0-3.88,0.24-6.54,0.73c-2.67,0.49-5.4,1.09-8.18,1.82c-2.79,0.73-5.45,1.4-8,2
		c-2.54,0.61-4.54,1.15-6,1.64L435.26,2457.18z"/>
	<path class="st1" d="M211.33,2468.45c-1.16-1.93-1.99-19.42-2.47-52.45c-0.49-33.03-0.25,8.52,0.73-24.32
		c0.97-32.84,2.81-49.64,5.52-50.42c4.65-2.91,26.49-4.55,65.53-4.94c39.03-0.39,63.78,0.97,67.65,4.07
		c1.93,1.55,3.82,12.54,5.67,32.98c1.84,20.44,1.89,38.56,2.09,59.19c0.19,20.63-0.39,106-1.74,107.75
		c-3.3,2.91-13.18,4.16-29.64,3.78c-16.47-0.39-26.64-1.36-30.51-2.91c-1.55-0.77-2.32-80.91-2.32-92.05
		c0-11.14,0.24-22.71,0.73-34.72c0.48-12.01,0.63-18.79,0.44-20.34c-0.97-2.91-2.67-4.65-5.09-5.23c-2.42-0.58-4.89,0-7.41,1.74
		c-1.36,0.78-2.08,7.07-2.18,18.89c-0.1,11.82,0.14,24.02,0.73,36.61c0.58,12.59,0.77,19.57,0.58,20.92
		c-0.39,2.91-11.38,4.55-32.98,4.94C225.03,2472.32,213.26,2471.16,211.33,2468.45z M269.54,2356.49c-1.2,0.18-2.01,1.48-2.44,3.89
		c-0.42,2.42-0.3,4.79,0.36,7.11c0.66,2.33,1.83,3.58,3.52,3.76c0.24,0,1.05,0.09,2.43,0.27c1.38,0.18,2.64,0.31,3.79,0.4
		c1.14,0.09,2.61,0.18,4.42,0.27c1.8,0.09,3.45,0.13,4.96,0.13c1.5,0,3.16,0,4.96,0c1.8,0,3.4-0.09,4.78-0.27
		c1.38-0.18,2.71-0.36,3.97-0.54c1.26-0.18,2.25-0.54,2.98-1.07c0.72-0.54,1.2-1.07,1.44-1.61c0.84-3.04,0.78-6.21-0.18-9.53
		c-0.96-3.31-2.53-5.05-4.69-5.23c-1.2-0.18-4.33-0.04-9.38,0.4c-5.77,0.51-9.29,0.81-14.25,1.21L269.54,2356.49z"/>
	<g class="st1">
		<path d="M339.52,2323.09c-35.17,0-35.17-4.74-70.35-4.74c-35.17,0-35.17,1.12-70.35,1.12s-35.17-0.25-70.35-0.25
			c-6.6,0-10.82,0.01-10.82-6.59c0-16.49,3.47-16.49,3.47-32.98c0-6.6,0.75-8.8,7.35-8.8c35.17,0,35.17-5.11,70.35-5.11
			c35.17,0,35.17,0.45,70.35,0.45s35.17,2.56,70.35,2.56c6.6,0,15.25,4.3,15.25,10.9c0,16.49-9.82,16.49-9.82,32.98
			C344.96,2319.24,346.12,2323.09,339.52,2323.09z"/>
	</g>
</g>
</svg>
