<?xml version="1.0" encoding="utf-8"?>
<!-- Generator: Adobe Illustrator 28.1.0, SVG Export Plug-In . SVG Version: 6.00 Build 0)  -->
<svg version="1.1" id="Layer_1" xmlns="http://www.w3.org/2000/svg" xmlns:xlink="http://www.w3.org/1999/xlink" x="0px" y="0px"
	 viewBox="0 0 216 216" style="enable-background:new 0 0 216 216;" xml:space="preserve">
<style type="text/css">
	.st0{fill:#F5DF4E;}
	.st1{fill:#FFFFFF;}
</style>
<g>
	<path class="st0" d="M42.25,179.26c-2.05,1.34-2.69,1.24-3.98-0.49c-6.26-8.42-8.53-17.82-6.53-28.08
		c0.48-2.46,2.05-4.73,3.24-7.02c0.44-0.86,1.42-1.52,0.23-2.47c-0.05-0.04-0.12-0.12-0.11-0.16c0.86-2.27-1.32-3.73-1.54-5.74
		c-0.2-1.84-2.29-3.29-4.01-2.71c-0.45,0.15-0.92,1.22-0.85,1.81c0.41,3.52,1.08,7.01,1.45,10.54c0.19,1.8,0.14,3.69-0.25,5.44
		c-0.18,0.81-1.42,1.93-2.19,1.93c-0.82,0-2.22-1.04-2.35-1.81c-0.37-2.09-0.25-4.28-0.24-6.43c0.03-3.34,0.26-6.69,0.15-10.02
		c-0.05-1.5-0.4-3.16-2.23-3.99c-0.41,1.23-1.02,1.98-2.45,1.29c-0.27-0.13-1.02,0.38-1.34,0.77c-0.51,0.64-0.84,1.43-1.32,2.28
		c-1.89-1.81-2.71-3.9-2.91-6.24c-0.48-5.62-2.04-10.77-4.73-15.87c-2.1-3.99-2.93-8.84-3.5-13.41
		c-1.25-10.06,0.54-19.89,3.44-29.52c2.74-9.08,8.19-16.27,16.03-21.56c1.91-1.29,4.28-2.07,6.55-2.6c3.43-0.8,6.97-1.16,10.45-1.73
		c0.79-0.13,1.56-0.34,2.57-0.56c0.74,0.37,1.78,0.89,2.82,1.41c0.1-0.15,0.21-0.29,0.31-0.44c-0.99-1.54-1.98-3.07-3.16-4.91
		c1.93-0.16,2.69,0.42,3.2,1.81c0.46,1.26,1.31,2.38,2,3.56c0.3-0.18,0.59-0.37,0.89-0.55c-0.5-0.67-1.07-1.29-1.49-2.01
		c-0.34-0.59-0.72-1.32-0.63-1.92c0.05-0.35,0.94-0.7,1.51-0.84c0.82-0.19,1.68-0.19,2.62-0.27c0.16,0.95,0.32,1.86,0.48,2.77
		c0.15,0.02,0.3,0.04,0.45,0.05c0.45-0.8,0.89-1.6,1.36-2.43c1.36,1.2,1.27,1.73-0.29,3.44c0.62,0.86,1.2,1.68,1.78,2.5
		c-1-0.15-2.01-0.31-3.07-0.47c-0.37,1.26,1.75,2.84,4.33,2.83c0.18-2.64,0.25-5.3,0.55-7.93c0.71-6.29,3.66-11.74,6.68-17.14
		c5.45-9.76,14.17-14.9,24.71-17.81c9.02-2.49,17.94-2.16,26.98-0.56c8.27,1.46,15.04,5.47,20.38,11.84
		c7.42,8.85,10.63,18.85,7.78,30.35c-0.19,0.76-0.35,1.53-0.5,2.3c-0.03,0.16,0.08,0.35,0.18,0.75c1.02-1.5,1.81-2.94,2.86-4.16
		c5.62-6.55,13.03-9.43,21.42-8.96c13.35,0.76,23.06,8.15,30.74,18.45c3.9,5.23,7.22,10.93,8.83,17.28
		c2.92,11.53,2.06,22.81-3.73,33.42c-1.36,2.5-3.12,4.78-4.74,7.24c1.47,0.98,2.13-2.79,3.99-0.54c-1.13,0.43-2.16,0.82-3.36,1.27
		c0.31,0.54,0.51,1.01,0.81,1.41c6.2,8.11,8.04,17.46,7.35,27.34c-0.36,5.18-2.97,9.78-5.35,14.3c-5.03,9.53-12.4,17.03-21.57,22.54
		c-7.98,4.79-16.51,8.46-26.09,8.76c-4.2,0.13-8.06-1.14-11.68-3.12c-2.9-1.59-5.15-1.71-7.47,0.53c-0.99,0.95-1.24,2.72-1.68,4.16
		c-0.24,0.78,0.03,1.74-0.27,2.47c-1.31,3.21-3.04,3.45-5.17,0.95c-0.45,0.35-0.89,0.98-1.31,0.97c-1.4-0.03-1.8,0.68-1.99,1.89
		c-0.24,1.52-0.65,3.02-1.03,4.74c0.38,0.05,0.97,0.13,1.14,0.15c-1.05,0.62-2.4,1.48-3.82,2.21c-0.62,0.32-1.37,0.5-2.06,0.52
		c-2.01,0.05-2.5-0.66-1.75-2.48c0.45-1.09,0.51-1.9-0.77-2.1c-0.43,2.35-0.85,4.63-1.27,6.91c-0.17-0.03-0.34-0.06-0.52-0.09
		c0-2.14,0-4.29,0-6.63c-1.98,0.98-3.91,1.91-5.82,2.87c-1.52,0.77-3.06,1.51-4.48,2.43c-0.57,0.37-1,1.15-1.23,1.82
		c-1.02,3.02-2.16,3.7-5.32,3c-0.26-0.06-0.53-0.09-0.76-0.19c-4.02-1.73-7.73-1.18-11.46,1.05c-0.94,0.56-2.76,0.34-3.86-0.18
		c-1.68-0.8-3.11-2.16-4.61-3.33c-0.78-0.6-1.44-1.37-2.25-1.91c-1.82-1.21-2.62-0.86-3.13,1.28c-0.44,1.85-0.74,3.74-1.28,5.56
		c-0.24,0.81-0.93,1.48-1.42,2.21c-0.65-0.74-1.66-1.39-1.88-2.24c-0.47-1.83-0.52-3.76-0.75-5.64c-0.16-1.37-0.44-2.73-0.48-4.11
		c-0.06-2.05-1.02-3.37-2.75-4.43c-7.26-4.42-13.96-9.73-19.13-16.35c-7.31-9.36-10.76-20.12-7.59-32.15
		c0.73-2.77,1.83-5.46,2.83-8.15c0.15-0.4,0.67-0.7,1.07-0.96c0.61-0.4,1.26-0.74,1.9-1.1c-0.1-0.25-0.21-0.5-0.31-0.76
		c-0.79,0.29-1.71,0.41-2.33,0.91c-1.56,1.28-2.58,2.97-4.68,3.92c-1.39,0.63-2.33,3.37-2.54,5.27c-0.56,5.07-1.05,10.23-0.75,15.3
		c0.33,5.43,3.09,10.1,6.58,14.26c0.38,0.45,0.77,0.9,1.12,1.38C42.04,178.67,42.13,178.99,42.25,179.26z M193.1,121.6
		c1.03-1.22,0.47-2.42-0.29-3.38c-0.48-0.62-1.42-0.88-2.15-1.3c-0.07,0.14-0.15,0.28-0.22,0.42c0.47,0.79,0.94,1.58,1.41,2.37
		c-0.88,0.12-1.51,0.18-2.12,0.32c-0.08,0.02-0.14,0.67-0.09,0.69c0.65,0.22,1.31,0.39,1.98,0.55c0.5,0.12,1,0.21,1.5,0.32
		c0.73,2.89,0.55,3.17-2.26,4.35c-1.35,0.57-1.95,0.14-2.13-1.29c0.87-0.34,1.71-0.67,2.94-1.16c-0.56-0.35-0.74-0.57-0.88-0.55
		c-2.06,0.32-3.1-0.88-3.95-2.5c-1.28-2.45-3.22-3.42-6.04-2.8c-2.62,0.57-5.18,0.42-7.54-1.27c-1.18-0.85-2.72-1.2-4.28-1.86
		c-0.31,1.48-0.51,2.7-0.82,3.89c-3.03,11.59-9.65,20.7-19.28,27.74c-2.28,1.67-4.91,2.86-6.33,5.7c-0.57,1.14-2.56,1.59-3.93,2.3
		c-0.39,0.2-0.87,0.22-1.65,0.39c3.25,1.07,3.23,1.08,3.36,4.32c0.09,2.36,0.07,4.76,0.44,7.08c0.26,1.63,0.74,3.49,1.77,4.68
		c2.05,2.36,4.39,4.54,6.9,6.43c3.55,2.68,7.95,3.02,12.2,3.44c7.34,0.73,14.4,0.27,20.7-4.39c9.16-6.77,16.76-14.62,20.99-25.48
		c4.21-10.8,2.54-21.01-2.14-31.05c-0.76-1.63-2.4-2.85-3.64-4.25c-0.19,0.14-0.37,0.28-0.56,0.42c-0.1,3.63,0.75,7.08,2,10.5
		c0.88,2.39,1.74,4.83,2.19,7.32c0.42,2.29-0.47,3.26-2.41,3.52c-1.61,0.22-3.04-0.72-3.36-2.62c-0.41-2.38-0.39-4.83-0.81-7.21
		C194.29,125.33,194.88,123.13,193.1,121.6z M62.14,123.94c-0.14-0.1-0.28-0.21-0.42-0.31c0.27,0.87,0.66,1.72,0.78,2.6
		c0.19,1.51,0.83,2.47,2.35,2.96c0.53,0.17,1,0.91,1.26,1.5c1.05,2.34,1.57,5.06,3.09,7.02c3.36,4.33,7.45,8.07,12.55,10.31
		c4.91,2.15,9.87,4.39,15.03,5.69c7.69,1.94,15.63,2.12,23.56,1.26c9.81-1.06,18.96-4.13,26.88-9.98
		c14.89-11,19.69-26.46,18.65-44.25c-0.33-5.72-2.47-10.99-4.26-16.36c-1.42-4.27-3.14-8.29-5.93-11.84
		C146.6,61,134.47,54.79,120.19,52.36c-2.92-0.5-5.85-0.88-8.8-1.18c-0.66-0.07-1.7,0.23-2.01,0.72c-1.11,1.76-2.46,1.78-4.06,0.94
		c-3.63-1.9-7.11-1.57-10.37,0.8c-2.07,1.5-3.92,3.43-6.88,2.42c-0.24-0.08-0.6,0.21-0.91,0.32c-1.53,0.53-3.03,1.19-4.59,1.57
		c-3.45,0.83-4.17,2.14-2.84,5.47c0.73,1.84,0.12,2.75-1.82,2.74c-1.65-0.01-3.33-0.24-4.93,0.05c-1.32,0.24-2.82,0.81-3.72,1.73
		c-1.25,1.29-2.02,3.04-2.98,4.6c-7.32,11.9-9.32,24.93-8.16,38.61c0.15,1.77,0.69,3.32,1.97,4.77c1.52,1.73,3.33,3.53,3.02,6.18
		C63.06,122.76,62.48,123.34,62.14,123.94z M52.1,124.62c-0.85-1.45-1.29-2.78-2.2-3.58c-0.92-0.81-0.99-1.44-0.82-2.52
		c0.44-2.85,0.83-5.71,0.99-8.59c0.31-5.89-1.16-11.7-0.33-17.68c0.94-6.72,3.45-12.74,6.54-18.63c0.1-0.19,0.39-0.28,0.74-0.51
		c0.12,0.59,0.21,1.02,0.35,1.67c0.46-0.39,0.92-0.57,1-0.87c1.03-3.54,3.69-5.96,6.32-8.11c3.57-2.93,7.62-5.29,11.53-7.81
		c7.78-5.01,16.37-7.84,25.52-8.71c10.65-1.02,21.17-0.31,31.31,3.46c0.6,0.22,1.23,0.37,2,0.6c1.44-4.18,3.29-8.04,2.72-12.63
		c-0.55-4.43-1.57-8.63-3.54-12.63c-0.28-0.57-0.05-1.4-0.06-2.1c0.51,0.41,1.13,0.73,1.52,1.24c3.48,4.51,3.48,9.93,3.79,15.23
		c0.15,2.46,0.03,4.94,0.03,7.41c1.29-2.47,2.72-5.01,3.07-7.69c1.16-9.05-2.25-16.87-7.44-24.01c-1.18-1.62-2.92-2.83-4.3-4.33
		c-2.61-2.84-5.74-4.76-9.49-5.71c-1.59-0.4-3.13-0.99-4.71-1.45c-12.91-3.77-25.3-2.12-36.63,4.8
		c-10.54,6.43-13.88,16.89-13.49,28.67c0.12,3.7,1.51,7.18,3.78,10.23c1.81,2.44,2.66,4.91,0.55,7.7c-1.01,1.34-1.9,2.49-3.84,1.8
		c-0.79-0.28-1.81-0.67-2.49-0.4c-4,1.54-5.81-2.81-9.05-3.2c-0.04-0.01-0.06-0.12-0.11-0.16c-1.13-0.74-2.17-1.71-3.41-2.16
		c-6.03-2.21-12.08-2.27-18.13,0.12c-0.88,0.35-2.01,0.07-3.03,0.09c0.84-0.72,1.6-1.89,2.54-2.07c3.85-0.75,7.74-1.33,11.65-1.7
		c1.69-0.16,3.45,0.34,5.17,0.55c1.7,0.21,3.4,0.43,5.65,0.72c-0.61-0.85-0.81-1.44-1.19-1.6c-3.14-1.33-6.21-3.07-9.49-3.74
		c-5.06-1.04-10.27-0.42-14.74,2.24c-4.3,2.56-8.64,5.42-9.72,10.98c-0.05,0.25-0.18,0.5-0.33,0.71
		c-4.25,6.28-5.06,13.62-6.09,20.79c-1.53,10.64-0.17,21.12,3.39,31.24c1.14,3.25,2.2,7.17,4.63,9.18
		c4.07,3.37,8.95,6.19,13.96,7.86c4.75,1.58,10.1,1.44,15.19,1.91c1.13,0.1,2.32-0.39,3.64-0.64c-1.57-2.95-3.19-4.84-6.57-4.65
		c-2.54,0.14-5.12-0.27-7.67-0.59c-5.37-0.68-10.27-2.71-14.86-5.5c-1.06-0.65-2.27-1.4-1.46-3.38
		C32.57,122.56,41.95,123.9,52.1,124.62z M94.59,155.6c-0.76,0.85-1.15,1.46-1.7,1.86c-3.04,2.26-3.7,4.45-2.64,8.08
		c0.43,1.47,0.48,3.06,0.64,4.61c0.14,1.29,0.18,2.58,0.29,3.88c0.16,1.82,0.56,3.66,0.42,5.45c-0.06,0.78-1.11,1.66-1.92,2.11
		c-0.28,0.16-1.41-0.74-1.8-1.37c-0.5-0.8-0.79-1.81-0.93-2.76c-0.57-3.83-0.98-7.68-1.6-11.5c-0.45-2.78-1.12-5.53-1.69-8.3
		c-0.22-0.05-0.43-0.11-0.65-0.16c-0.59,1.24-1.06,2.7-2.59,1.94c-0.09-1.66-0.11-3.15-0.28-4.63c-0.04-0.34-0.56-0.66-0.92-0.89
		c-0.12-0.07-0.64,0.22-0.63,0.27c0.08,0.39,0.17,0.82,0.4,1.14c1.06,1.47,0.74,2.34-0.93,2.71c-0.14-1.07-0.16-2.18-0.43-3.22
		c-0.95-3.56-3.94-4.1-6.96-4.38c-3.84-0.35-6.75-2.8-7.46-6.56c-0.32-1.72-0.99-2.84-3-3.01c-2.19-0.17-2.44-0.89-1.73-3.06
		c0.2-0.61,0.04-1.41-0.16-2.06c-0.24-0.74-0.75-1.38-1.07-2.09c-0.52-1.14-1.15-1.54-2.23-0.59c-1.98,1.73-3.98,3.44-5.99,5.13
		c-3.31,2.79-5.35,6.49-6.2,10.53c-2.4,11.38,0.83,21.57,7.66,30.7c1.56,2.09,3.55,3.91,5.57,5.58c4.31,3.55,8.65,7.07,13.18,10.33
		c7.57,5.45,16.58,6.31,25.47,7.38c4.78,0.58,8.96-1.02,12.67-3.93c2.9-2.27,5.9-4.46,8.51-7.03c2.37-2.34,4.72-4.9,6.31-7.79
		c3.98-7.23,7.58-14.68,11.21-22.1c0.83-1.7,1.18-3.62,1.76-5.45c-0.18-0.16-0.36-0.31-0.55-0.47c-1.56,3.11-4.32,2.67-6.91,2.72
		c-0.79,0.02-1.66-0.15-2.35,0.12c-2.6,1.03-5.04,0.48-7.48-0.49c-2.51-0.99-4.91-0.65-7.19,0.69c-1.59,0.93-3.18,1.87-4.74,2.84
		c-1.48,0.92-2.87,0.83-4.17-0.31c-1.63-1.44-3.21-2.93-4.85-4.34C96.2,156.59,95.36,156.12,94.59,155.6z M193.68,107.63
		c0.36-2.95,2.27-3.72,4.35-4.04c1.56-0.24,2.41-1,3.1-2.35c5.59-10.95,5.69-22.31,1.76-33.61c-4.89-14.04-14.73-23.52-28.74-28.6
		c-7.77-2.81-18.37,0.81-22.96,7.75c-0.28,0.42-0.04,1.19-0.04,1.64c-0.79,0.8-1.7,1.71-2.61,2.62c0.1,0.24,0.19,0.49,0.29,0.73
		c1.6,0.35,3.19,0.69,4.96,1.08c-0.31,0.63-0.65,1.31-0.97,1.99c-0.84,1.76-1.81,3.49-2.45,5.32c-0.22,0.64,0.1,1.9,0.63,2.32
		c7.42,5.9,11.7,14.09,16.29,22.05c0.29,0.5,0.44,1.11,0.51,1.69c0.51,3.9,1.04,7.81,1.45,11.72c0.3,2.85,0.42,5.71,0.65,9.01
		c3.83-2.05,7.72-2.99,11.86-2.71C185.84,104.51,189.8,105.28,193.68,107.63z M178.64,106.55c-1.17,0.35-3.34,0.82-5.34,1.69
		c-0.73,0.32-1.49,1.62-1.42,2.4c0.07,0.78,1.05,1.94,1.82,2.11c5.93,1.32,11.84,1.39,17.54-1.13c0.33-0.15,0.86-0.52,0.82-0.67
		c-0.09-0.38-0.38-0.83-0.72-1C187.68,108.09,183.84,106.86,178.64,106.55z M67.08,66.7c-6.82,2.93-16.88,28.84-13.13,34.46
		C55.12,88.45,58.99,76.79,67.08,66.7z M168.82,182.94c-6.47,0-13.15,0-19.45,0C153.29,186.05,163.89,185.28,168.82,182.94z
		 M148.44,52.41c-0.19-0.09-0.38-0.18-0.58-0.27c0.45,3.61-1.37,4.93-4.96,4.81c2.01,1.13,3.44,1.93,5.03,2.83
		c1.08-2.08,2.2-4.23,3.34-6.42C150.16,52.98,149.3,52.69,148.44,52.41z M11.92,103.8c0.2-0.03,0.39-0.07,0.59-0.1
		c-0.57-3.49-1.14-6.98-1.71-10.47c-0.15,0.02-0.3,0.04-0.45,0.07C10.88,96.79,11.4,100.29,11.92,103.8z M36.75,140.74
		c1.12-2.42,0.51-4.51-1.73-5.45C35.61,137.15,36.2,139.01,36.75,140.74z M10.09,89.9c0.23,0.03,0.46,0.06,0.7,0.09
		c0.15-1.92,0.3-3.83,0.45-5.75c-0.18-0.02-0.36-0.04-0.53-0.06C10.5,86.09,10.29,88,10.09,89.9z M123.13,184.89
		c0.11-0.09,0.22-0.18,0.34-0.27c1.45,1.62,2.91,3.24,4.36,4.85c-0.02,0.01-0.04,0.03-0.06,0.04
		C126.23,187.97,124.68,186.43,123.13,184.89z"/>
	<path class="st1" d="M3.81,75.46c-0.34,1.98-0.63,3.83-0.97,5.67c-2.03,10.9-1.08,21.56,2.74,31.95c0.65,1.77,1.75,3.38,2.47,5.13
		c0.43,1.06,0.52,2.25,0.77,3.39c-0.29,0.13-0.58,0.27-0.88,0.4c-0.66-0.86-1.5-1.64-1.96-2.59c-5.3-11.06-6.97-22.69-5.43-34.82
		c0.3-2.34,0.43-4.7,0.66-7.05C1.34,76.23,1.83,75.25,3.81,75.46z"/>
	<path class="st1" d="M215.67,146.54c-0.81,13.46-16.13,36.1-35.19,41.66c3.76-2.31,8.27-4.86,12.52-7.78
		c2.41-1.65,4.6-3.74,6.54-5.93c6.57-7.43,11.4-15.83,13.7-25.58c0.24-1.02,1.18-1.88,1.8-2.81
		C215.25,146.25,215.46,146.39,215.67,146.54z"/>
	<path class="st1" d="M158.35,35.27c0.34-0.48,0.59-1.24,1.05-1.39c3.35-1.1,6.74-2.09,10.12-3.09c0.37-0.11,0.79-0.09,1.18-0.04
		c0.99,0.12,2.36-0.13,2.32,1.37c-0.01,0.33-1.39,0.81-2.17,0.89c-3.59,0.37-7.2,0.6-10.5,2.31c-0.45,0.23-0.97,0.31-1.46,0.46
		C158.71,35.61,158.53,35.44,158.35,35.27z"/>
	<path class="st1" d="M0.45,112.91c1.03,2.36,1.97,4.45,2.84,6.57c0.11,0.26-0.12,0.92-0.31,0.98c-0.37,0.11-0.92,0.05-1.25-0.16
		C0.53,119.51-0.42,114.76,0.45,112.91z"/>
	<path class="st1" d="M215.6,94.76c1.01,1.61-0.01,4.91-1.82,6.28C212.93,99.55,213.76,96.56,215.6,94.76z"/>
	<path class="st1" d="M160.93,32.11c0.1-0.9,0.03-2.19,0.28-2.25c1.06-0.27,2.22-0.18,3.34-0.22c-0.16,0.5-0.17,1.26-0.5,1.44
		C163.23,31.52,162.27,31.69,160.93,32.11z"/>
	<path class="st0" d="M137.77,115.87c-0.57-1.29-1.18-2.56-1.71-3.86c-0.73-1.82-1.39-3.68-2.1-5.51c-0.57-1.48-1.4-2.61-3.17-2.89
		c-0.4-0.06-0.89-0.95-0.96-1.51c-0.86-6.69-1.57-13.4-2.5-20.08c-0.38-2.71-1.64-5-3.9-6.84c-4.2-3.41-3.13-7.65,0.16-11.13
		c2.66-2.82,8.24-1.51,10.19,1.97c2.42,4.34,4.14,8.8,4.76,13.84c0.62,5.07,2.32,9.94,5.79,13.99c1.12,1.31,0.74,3.11-0.32,4.5
		c-1.57,2.06-2.98,4.24-4.37,6.42c-0.25,0.39-0.14,1.02-0.14,1.54c0,2.1,0.11,4.21-0.01,6.3c-0.06,1.09-0.5,2.16-0.77,3.24
		C138.4,115.86,138.08,115.87,137.77,115.87z"/>
	<path class="st0" d="M81.86,127.33c0.6,0.27,1.23,0.49,1.8,0.81c3.65,2.07,7.28,4.16,10.92,6.24c3.08,1.76,6.2,3.46,9.24,5.3
		c1.06,0.64,1.92,0.87,3.09,0.31c1.88-0.9,3.84-1.35,5.89-0.34c0.5,0.24,1.2,0.31,1.74,0.17c3.6-0.95,7.21-1.92,10.77-3.01
		c2.5-0.77,4.88-2.22,7.42-2.57c8.16-1.1,16.33-8.83,17.57-18.89c0.45-3.65,0.77-7.31,1.18-10.97c0.09-0.78,0.13-1.64,0.5-2.28
		c0.37-0.64,1.17-1.51,1.72-1.46c0.61,0.05,1.59,0.97,1.65,1.58c0.19,2.2,0.22,4.45,0.02,6.65c-0.56,6.24-2.76,12.03-5.51,17.57
		c-2.71,5.47-7.78,8.49-13.1,10.87c-3.55,1.59-6.76,3.27-9.04,6.63c-2.06,3.04-5.08,4.35-8.94,3.68c-2.91-0.51-5.89-0.79-8.84-0.8
		c-3.33-0.02-5.99-1.59-8.88-2.86c-7.09-3.12-12.82-7.95-18.01-13.53c-0.67-0.73-1.15-1.64-1.72-2.47
		C81.5,127.75,81.68,127.54,81.86,127.33z"/>
	<path class="st1" d="M108.27,106.79c-3.06,1.75-3.71,1.59-5.3-1.06c-2.08-3.47-4.16-6.95-6.37-10.62c-0.66,0.55-1.2,0.85-1.52,1.29
		c-2.45,3.4-5.21,6.65-7.18,10.32c-1.88,3.5-4.74,4.39-8.57,4.84c0.33-0.91,0.43-1.68,0.83-2.24c3.37-4.77,6.79-9.5,10.2-14.23
		c0.27-0.37,0.67-0.66,0.88-1.06c1.75-3.32,2.55-5.59-2.03-6.23c-0.36-0.05-0.68-0.34-1.03-0.52c1.37-3.96-3.02-4.8-4.02-7.78
		c0.84-0.36,1.7-0.77,2.6-1.09c1.28-0.45,1.94,0.22,2.4,1.35c0.36,0.89,0.73,1.83,1.32,2.56c1.58,1.92,3.3,3.72,4.93,5.6
		c0.85,0.98,1.65,0.81,2.57,0.15c3.04-2.17,6.16-4.26,9.14-6.51c2.61-1.97,5.59-2.44,8.88-2.26c-0.5,0.31-1,0.63-1.51,0.91
		c-5.15,2.85-9.92,6.18-14.04,10.43c-1.19,1.22-1.37,2.22-0.34,3.72C102.91,98.38,105.51,102.55,108.27,106.79z"/>
	<path class="st0" d="M131.43,142.01c10.23-4.32,19.67-9.54,23.84-20.67c0.17,0.08,0.35,0.16,0.52,0.24
		c-0.39,1.15-0.61,2.4-1.19,3.44c-3.53,6.28-8.35,11.22-15.05,14.19c-2.55,1.13-5.07,2.34-7.61,3.51
		C131.77,142.48,131.6,142.25,131.43,142.01z"/>
	<path class="st0" d="M150.6,76.22c3.36,3.14,4.82,7.37,6.55,11.45c0.53,1.26,0.99,2.56,1.37,3.88c0.11,0.4-0.18,0.92-0.29,1.39
		c-0.45-0.27-1.15-0.45-1.3-0.84c-0.61-1.58-0.86-3.32-1.59-4.83c-1.43-2.93-3.13-5.72-4.66-8.6c-0.37-0.69-0.48-1.52-0.7-2.29
		C150.17,76.33,150.38,76.28,150.6,76.22z"/>
	<path class="st0" d="M159.78,107.17c-0.34,2.05-0.67,4.1-1.01,6.16c-0.26-0.04-0.51-0.09-0.77-0.13c0.34-2.06,0.68-4.11,1.02-6.17
		C159.28,107.07,159.53,107.12,159.78,107.17z"/>
	<path class="st0" d="M146.54,71.71c-2.1,0.46-3.54-0.67-3.79-2.88C144.26,69.98,145.4,70.84,146.54,71.71z"/>
	<path class="st1" d="M74.38,43.4c-0.69,0.08-1.19,0.14-2.12,0.24c1.17,2.75,2.27,5.34,3.37,7.93c-4.89-4.18-6.84-19.64-3.5-26.17
		C70.2,31.69,73.23,37.3,74.38,43.4z"/>
	<path class="st1" d="M51.23,80.32c-0.48,1.87-0.63,3.92-1.51,5.59c-3.06,5.79-3.06,11.97-2.76,18.22c0.02,0.39,0.02,0.79,0,1.18
		c-0.01,0.1-0.14,0.19-0.48,0.62c-0.52-4.63-0.8-8.98,0.15-13.21c0.96-4.24,2.52-8.34,3.81-12.51
		C50.71,80.25,50.97,80.29,51.23,80.32z"/>
	<path class="st1" d="M127.15,14.56c1.04,1.24,2.08,2.47,3.11,3.71c-0.48,0.32-1.27,1.01-1.39,0.91c-1.02-0.88-1.99-1.84-2.82-2.9
		c-0.2-0.26,0.15-0.94,0.24-1.43C126.59,14.75,126.87,14.65,127.15,14.56z"/>
	<path class="st1" d="M41.54,56.01c-1.04,0-2.09,0.06-3.13-0.03c-0.34-0.03-0.65-0.46-0.97-0.7c0.24-0.26,0.44-0.72,0.71-0.76
		c1.21-0.16,2.44-0.32,3.65-0.24c0.52,0.04,1,0.67,1.5,1.03c-0.52,0.37-1.04,0.74-1.57,1.12C41.67,56.29,41.6,56.15,41.54,56.01z"/>
	<path class="st1" d="M41.6,120.35c1.39,0.12,2.63,0.13,3.82,0.37c0.39,0.08,0.66,0.77,0.98,1.19c-0.37,0.27-0.71,0.72-1.1,0.77
		C42.93,122.93,41.74,122.19,41.6,120.35z"/>
	<path class="st1" d="M54.62,69.43c1.05-1.14,2.1-2.28,3.15-3.42c0.15,0.14,0.3,0.28,0.45,0.42c-1.15,1.04-2.3,2.08-3.46,3.12
		C54.72,69.51,54.67,69.47,54.62,69.43z"/>
	<path class="st1" d="M65.56,61.26c-1.04,1.14-1.87,2.05-2.79,3.06C62.73,62.31,63.58,61.33,65.56,61.26z"/>
	<path class="st1" d="M79.73,195.91c1.01,0.18,2.07,0.21,3.01,0.56c3.75,1.37,7.6,1.35,11.49,1.07c0.46-0.03,0.96-0.15,1.37-0.01
		c0.43,0.14,0.77,0.54,1.14,0.83c-0.3,0.39-0.54,1.04-0.9,1.12c-1.6,0.34-3.28,0.86-4.84,0.66c-3.29-0.43-6.55-1.22-9.78-2.01
		c-0.69-0.17-1.23-0.95-1.84-1.46C79.5,196.41,79.61,196.16,79.73,195.91z"/>
	<path class="st1" d="M103.5,196.53c-0.31,1.4-1.45,1.58-2.66,1.44c-0.29-0.03-0.5-0.73-0.75-1.12c1.02-0.36,2.04-0.73,3.06-1.09
		C103.27,196.02,103.38,196.27,103.5,196.53z"/>
	<path class="st1" d="M160.41,174.65c-1.04-0.2-2.21-0.17-3.09-0.65c-2.47-1.34-4.91-2.78-7.2-4.4c-3.22-2.28-4.17-5.93-5.18-9.46
		c-0.12-0.42,0.43-1.02,0.67-1.54c0.64,0.39,1.57,0.63,1.87,1.2c1.16,2.18,2.05,4.5,3.18,6.7c1.39,2.69,3.85,4.21,6.51,5.46
		c1.2,0.57,2.37,1.23,3.55,1.84C160.62,174.08,160.51,174.37,160.41,174.65z"/>
	<path class="st1" d="M159.87,170.32c-1.2-0.23-2.51-0.24-3.58-0.76c-1.46-0.71-2.77-1.75-4.06-2.76c-1.07-0.83-1.32-1.8,0.09-2.62
		c2.53,1.84,5.05,3.68,7.58,5.52C159.89,169.91,159.88,170.12,159.87,170.32z"/>
	<path class="st1" d="M155.9,142.25c4.12-4.31,8.24-8.62,12.16-12.72C167.84,131.98,158.64,141.82,155.9,142.25z"/>
	<path class="st1" d="M165.63,135.54c-0.46,2.17-4.8,6.22-7.11,6.48C160.98,139.77,163.27,137.68,165.63,135.54z"/>
	<path class="st1" d="M169.44,43.13c1.39,0.1,2.84-0.01,4.17,0.34c7.93,2.1,14.69,6.2,20.35,12.12c0.64,0.67,1.68,1.46,0.6,2.46
		c-1.07,0.99-1.95,0.4-2.79-0.6c-5.72-6.82-12.63-11.79-21.57-13.5c-0.29-0.05-0.54-0.25-0.82-0.37
		C169.4,43.43,169.42,43.28,169.44,43.13z"/>
	<path class="st1" d="M155.02,50.05c0.77-1.1,1.35-2.09,2.1-2.91c0.26-0.28,0.96-0.16,1.46-0.22c0.05,0.48,0.27,1.02,0.12,1.42
		C158.17,49.83,157.23,50.76,155.02,50.05z"/>
</g>
</svg>
