<?xml version="1.0" encoding="utf-8"?>
<!-- Generator: Adobe Illustrator 28.1.0, SVG Export Plug-In . SVG Version: 6.00 Build 0)  -->
<svg version="1.1" id="Layer_1" xmlns="http://www.w3.org/2000/svg" xmlns:xlink="http://www.w3.org/1999/xlink" x="0px" y="0px"
	 viewBox="0 0 216 216" style="enable-background:new 0 0 216 216;" xml:space="preserve">
<style type="text/css">
	.st0{fill:#1A1A1A;}
	.st1{fill:#F5DF4E;}
	.st2{fill:#FFFFFF;}
</style>
<path class="st0" d="M186.6,216H29.4C13.2,216,0,202.8,0,186.6V29.4C0,13.2,13.2,0,29.4,0h157.2C202.8,0,216,13.2,216,29.4v157.2
	C216,202.8,202.8,216,186.6,216z"/>
<g>
	<path class="st1" d="M49.9,171c-1.8,1.2-2.4,1.1-3.5-0.4c-5.5-7.4-7.5-15.7-5.8-24.8c0.4-2.2,1.8-4.2,2.9-6.2
		c0.4-0.8,1.3-1.3,0.2-2.2c0,0-0.1-0.1-0.1-0.1c0.8-2-1.2-3.3-1.4-5.1c-0.2-1.6-2-2.9-3.5-2.4c-0.4,0.1-0.8,1.1-0.8,1.6
		c0.4,3.1,1,6.2,1.3,9.3c0.2,1.6,0.1,3.3-0.2,4.8c-0.2,0.7-1.3,1.7-1.9,1.7c-0.7,0-2-0.9-2.1-1.6c-0.3-1.8-0.2-3.8-0.2-5.7
		c0-3,0.2-5.9,0.1-8.9c0-1.3-0.4-2.8-2-3.5c-0.4,1.1-0.9,1.7-2.2,1.1c-0.2-0.1-0.9,0.3-1.2,0.7c-0.5,0.6-0.7,1.3-1.2,2
		c-1.7-1.6-2.4-3.4-2.6-5.5c-0.4-5-1.8-9.5-4.2-14c-1.9-3.5-2.6-7.8-3.1-11.8c-1.1-8.9,0.5-17.6,3-26.1c2.4-8,7.2-14.4,14.2-19.1
		c1.7-1.1,3.8-1.8,5.8-2.3c3-0.7,6.2-1,9.2-1.5c0.7-0.1,1.4-0.3,2.3-0.5c0.7,0.3,1.6,0.8,2.5,1.2c0.1-0.1,0.2-0.3,0.3-0.4
		C55,50,54.1,48.6,53,47c1.7-0.1,2.4,0.4,2.8,1.6c0.4,1.1,1.2,2.1,1.8,3.1c0.3-0.2,0.5-0.3,0.8-0.5c-0.4-0.6-0.9-1.1-1.3-1.8
		c-0.3-0.5-0.6-1.2-0.6-1.7c0-0.3,0.8-0.6,1.3-0.7c0.7-0.2,1.5-0.2,2.3-0.2c0.1,0.8,0.3,1.6,0.4,2.4c0.1,0,0.3,0,0.4,0
		c0.4-0.7,0.8-1.4,1.2-2.1c1.2,1.1,1.1,1.5-0.3,3c0.5,0.8,1.1,1.5,1.6,2.2c-0.9-0.1-1.8-0.3-2.7-0.4c-0.3,1.1,1.5,2.5,3.8,2.5
		c0.2-2.3,0.2-4.7,0.5-7c0.6-5.6,3.2-10.4,5.9-15.1c4.8-8.6,12.5-13.2,21.8-15.7c8-2.2,15.9-1.9,23.8-0.5c7.3,1.3,13.3,4.8,18,10.5
		c6.6,7.8,9.4,16.7,6.9,26.8c-0.2,0.7-0.3,1.4-0.4,2c0,0.1,0.1,0.3,0.2,0.7c0.9-1.3,1.6-2.6,2.5-3.7c5-5.8,11.5-8.3,18.9-7.9
		c11.8,0.7,20.4,7.2,27.2,16.3c3.4,4.6,6.4,9.7,7.8,15.3c2.6,10.2,1.8,20.2-3.3,29.5c-1.2,2.2-2.8,4.2-4.2,6.4
		c1.3,0.9,1.9-2.5,3.5-0.5c-1,0.4-1.9,0.7-3,1.1c0.3,0.5,0.5,0.9,0.7,1.2c5.5,7.2,7.1,15.4,6.5,24.2c-0.3,4.6-2.6,8.6-4.7,12.6
		c-4.4,8.4-11,15-19.1,19.9c-7.1,4.2-14.6,7.5-23.1,7.7c-3.7,0.1-7.1-1-10.3-2.8c-2.6-1.4-4.6-1.5-6.6,0.5c-0.9,0.8-1.1,2.4-1.5,3.7
		c-0.2,0.7,0,1.5-0.2,2.2c-1.2,2.8-2.7,3-4.6,0.8c-0.4,0.3-0.8,0.9-1.2,0.9c-1.2,0-1.6,0.6-1.8,1.7c-0.2,1.3-0.6,2.7-0.9,4.2
		c0.3,0,0.9,0.1,1,0.1c-0.9,0.5-2.1,1.3-3.4,2c-0.5,0.3-1.2,0.4-1.8,0.5c-1.8,0-2.2-0.6-1.5-2.2c0.4-1,0.5-1.7-0.7-1.9
		c-0.4,2.1-0.8,4.1-1.1,6.1c-0.2,0-0.3-0.1-0.5-0.1c0-1.9,0-3.8,0-5.9c-1.7,0.9-3.5,1.7-5.1,2.5c-1.3,0.7-2.7,1.3-4,2.1
		c-0.5,0.3-0.9,1-1.1,1.6c-0.9,2.7-1.9,3.3-4.7,2.7c-0.2-0.1-0.5-0.1-0.7-0.2c-3.6-1.5-6.8-1-10.1,0.9c-0.8,0.5-2.4,0.3-3.4-0.2
		c-1.5-0.7-2.7-1.9-4.1-2.9c-0.7-0.5-1.3-1.2-2-1.7c-1.6-1.1-2.3-0.8-2.8,1.1c-0.4,1.6-0.7,3.3-1.1,4.9c-0.2,0.7-0.8,1.3-1.3,2
		c-0.6-0.7-1.5-1.2-1.7-2c-0.4-1.6-0.5-3.3-0.7-5c-0.1-1.2-0.4-2.4-0.4-3.6c-0.1-1.8-0.9-3-2.4-3.9c-6.4-3.9-12.3-8.6-16.9-14.4
		c-6.5-8.3-9.5-17.8-6.7-28.4c0.6-2.4,1.6-4.8,2.5-7.2c0.1-0.4,0.6-0.6,0.9-0.8c0.5-0.4,1.1-0.7,1.7-1c-0.1-0.2-0.2-0.4-0.3-0.7
		c-0.7,0.3-1.5,0.4-2.1,0.8c-1.4,1.1-2.3,2.6-4.1,3.5c-1.2,0.6-2.1,3-2.2,4.7c-0.5,4.5-0.9,9-0.7,13.5c0.3,4.8,2.7,8.9,5.8,12.6
		c0.3,0.4,0.7,0.8,1,1.2C49.7,170.4,49.8,170.7,49.9,171z M183.2,120c0.9-1.1,0.4-2.1-0.3-3c-0.4-0.5-1.3-0.8-1.9-1.1
		c-0.1,0.1-0.1,0.2-0.2,0.4c0.4,0.7,0.8,1.4,1.2,2.1c-0.8,0.1-1.3,0.2-1.9,0.3c-0.1,0-0.1,0.6-0.1,0.6c0.6,0.2,1.2,0.3,1.7,0.5
		C182.3,119.8,182.8,119.9,183.2,120c0.7,2.5,0.5,2.8-2,3.8c-1.2,0.5-1.7,0.1-1.9-1.1c0.8-0.3,1.5-0.6,2.6-1
		c-0.5-0.3-0.7-0.5-0.8-0.5c-1.8,0.3-2.7-0.8-3.5-2.2c-1.1-2.2-2.8-3-5.3-2.5c-2.3,0.5-4.6,0.4-6.7-1.1c-1-0.8-2.4-1.1-3.8-1.6
		c-0.3,1.3-0.5,2.4-0.7,3.4c-2.7,10.2-8.5,18.3-17,24.5c-2,1.5-4.3,2.5-5.6,5c-0.5,1-2.3,1.4-3.5,2c-0.3,0.2-0.8,0.2-1.5,0.3
		c2.9,0.9,2.9,1,3,3.8c0.1,2.1,0.1,4.2,0.4,6.3c0.2,1.4,0.7,3.1,1.6,4.1c1.8,2.1,3.9,4,6.1,5.7c3.1,2.4,7,2.7,10.8,3
		c6.5,0.6,12.7,0.2,18.3-3.9c8.1-6,14.8-12.9,18.5-22.5c3.7-9.5,2.2-18.6-1.9-27.4c-0.7-1.4-2.1-2.5-3.2-3.8
		c-0.2,0.1-0.3,0.2-0.5,0.4c-0.1,3.2,0.7,6.3,1.8,9.3c0.8,2.1,1.5,4.3,1.9,6.5c0.4,2-0.4,2.9-2.1,3.1c-1.4,0.2-2.7-0.6-3-2.3
		c-0.4-2.1-0.3-4.3-0.7-6.4C184.2,123.3,184.8,121.4,183.2,120z M67.5,122.1c-0.1-0.1-0.2-0.2-0.4-0.3c0.2,0.8,0.6,1.5,0.7,2.3
		c0.2,1.3,0.7,2.2,2.1,2.6c0.5,0.2,0.9,0.8,1.1,1.3c0.9,2.1,1.4,4.5,2.7,6.2c3,3.8,6.6,7.1,11.1,9.1c4.3,1.9,8.7,3.9,13.3,5
		c6.8,1.7,13.8,1.9,20.8,1.1c8.7-0.9,16.8-3.6,23.8-8.8c13.2-9.7,17.4-23.4,16.5-39.1c-0.3-5.1-2.2-9.7-3.8-14.5
		c-1.3-3.8-2.8-7.3-5.2-10.5c-8-10.2-18.7-15.7-31.4-17.8c-2.6-0.4-5.2-0.8-7.8-1c-0.6-0.1-1.5,0.2-1.8,0.6c-1,1.6-2.2,1.6-3.6,0.8
		c-3.2-1.7-6.3-1.4-9.2,0.7c-1.8,1.3-3.5,3-6.1,2.1c-0.2-0.1-0.5,0.2-0.8,0.3c-1.4,0.5-2.7,1.1-4.1,1.4c-3,0.7-3.7,1.9-2.5,4.8
		c0.6,1.6,0.1,2.4-1.6,2.4c-1.5,0-2.9-0.2-4.4,0c-1.2,0.2-2.5,0.7-3.3,1.5c-1.1,1.1-1.8,2.7-2.6,4.1c-6.5,10.5-8.2,22-7.2,34.1
		c0.1,1.6,0.6,2.9,1.7,4.2c1.3,1.5,2.9,3.1,2.7,5.5C68.3,121,67.8,121.6,67.5,122.1z M58.6,122.7c-0.8-1.3-1.1-2.5-1.9-3.2
		c-0.8-0.7-0.9-1.3-0.7-2.2c0.4-2.5,0.7-5,0.9-7.6c0.3-5.2-1-10.3-0.3-15.6c0.8-5.9,3-11.3,5.8-16.5c0.1-0.2,0.3-0.2,0.7-0.5
		c0.1,0.5,0.2,0.9,0.3,1.5c0.4-0.3,0.8-0.5,0.9-0.8c0.9-3.1,3.3-5.3,5.6-7.2c3.2-2.6,6.7-4.7,10.2-6.9c6.9-4.4,14.5-6.9,22.5-7.7
		c9.4-0.9,18.7-0.3,27.7,3.1c0.5,0.2,1.1,0.3,1.8,0.5c1.3-3.7,2.9-7.1,2.4-11.2c-0.5-3.9-1.4-7.6-3.1-11.2c-0.2-0.5,0-1.2-0.1-1.9
		c0.5,0.4,1,0.6,1.3,1.1c3.1,4,3.1,8.8,3.3,13.5c0.1,2.2,0,4.4,0,6.5c1.1-2.2,2.4-4.4,2.7-6.8c1-8-2-14.9-6.6-21.2
		c-1-1.4-2.6-2.5-3.8-3.8c-2.3-2.5-5.1-4.2-8.4-5c-1.4-0.4-2.8-0.9-4.2-1.3c-11.4-3.3-22.4-1.9-32.4,4.2C74,28.4,71,37.6,71.3,48
		c0.1,3.3,1.3,6.3,3.3,9c1.6,2.2,2.4,4.3,0.5,6.8c-0.9,1.2-1.7,2.2-3.4,1.6c-0.7-0.2-1.6-0.6-2.2-0.4c-3.5,1.4-5.1-2.5-8-2.8
		c0,0-0.1-0.1-0.1-0.1c-1-0.7-1.9-1.5-3-1.9c-5.3-2-10.7-2-16,0.1c-0.8,0.3-1.8,0.1-2.7,0.1c0.7-0.6,1.4-1.7,2.2-1.8
		c3.4-0.7,6.8-1.2,10.3-1.5c1.5-0.1,3,0.3,4.6,0.5c1.5,0.2,3,0.4,5,0.6c-0.5-0.8-0.7-1.3-1.1-1.4c-2.8-1.2-5.5-2.7-8.4-3.3
		c-4.5-0.9-9.1-0.4-13,2c-3.8,2.3-7.6,4.8-8.6,9.7c0,0.2-0.2,0.4-0.3,0.6c-3.8,5.5-4.5,12-5.4,18.4c-1.4,9.4-0.2,18.7,3,27.6
		c1,2.9,1.9,6.3,4.1,8.1c3.6,3,7.9,5.5,12.3,6.9c4.2,1.4,8.9,1.3,13.4,1.7c1,0.1,2-0.3,3.2-0.6c-1.4-2.6-2.8-4.3-5.8-4.1
		c-2.2,0.1-4.5-0.2-6.8-0.5c-4.7-0.6-9.1-2.4-13.1-4.9c-0.9-0.6-2-1.2-1.3-3C41.4,120.9,49.6,122.1,58.6,122.7z M96.2,150.1
		c-0.7,0.8-1,1.3-1.5,1.6c-2.7,2-3.3,3.9-2.3,7.1c0.4,1.3,0.4,2.7,0.6,4.1c0.1,1.1,0.2,2.3,0.3,3.4c0.1,1.6,0.5,3.2,0.4,4.8
		c-0.1,0.7-1,1.5-1.7,1.9c-0.2,0.1-1.2-0.7-1.6-1.2c-0.4-0.7-0.7-1.6-0.8-2.4c-0.5-3.4-0.9-6.8-1.4-10.2c-0.4-2.5-1-4.9-1.5-7.3
		c-0.2,0-0.4-0.1-0.6-0.1c-0.5,1.1-0.9,2.4-2.3,1.7c-0.1-1.5-0.1-2.8-0.2-4.1c0-0.3-0.5-0.6-0.8-0.8c-0.1-0.1-0.6,0.2-0.6,0.2
		c0.1,0.3,0.2,0.7,0.4,1c0.9,1.3,0.7,2.1-0.8,2.4c-0.1-0.9-0.1-1.9-0.4-2.8c-0.8-3.1-3.5-3.6-6.1-3.9c-3.4-0.3-6-2.5-6.6-5.8
		c-0.3-1.5-0.9-2.5-2.7-2.7c-1.9-0.2-2.2-0.8-1.5-2.7c0.2-0.5,0-1.2-0.1-1.8c-0.2-0.7-0.7-1.2-0.9-1.8c-0.5-1-1-1.4-2-0.5
		c-1.7,1.5-3.5,3-5.3,4.5c-2.9,2.5-4.7,5.7-5.5,9.3c-2.1,10.1,0.7,19.1,6.8,27.1c1.4,1.8,3.1,3.5,4.9,4.9c3.8,3.1,7.6,6.2,11.6,9.1
		c6.7,4.8,14.6,5.6,22.5,6.5c4.2,0.5,7.9-0.9,11.2-3.5c2.6-2,5.2-3.9,7.5-6.2c2.1-2.1,4.2-4.3,5.6-6.9c3.5-6.4,6.7-13,9.9-19.5
		c0.7-1.5,1-3.2,1.6-4.8c-0.2-0.1-0.3-0.3-0.5-0.4c-1.4,2.7-3.8,2.4-6.1,2.4c-0.7,0-1.5-0.1-2.1,0.1c-2.3,0.9-4.5,0.4-6.6-0.4
		c-2.2-0.9-4.3-0.6-6.4,0.6c-1.4,0.8-2.8,1.7-4.2,2.5c-1.3,0.8-2.5,0.7-3.7-0.3c-1.4-1.3-2.8-2.6-4.3-3.8
		C97.6,150.9,96.8,150.5,96.2,150.1z M183.7,107.7c0.3-2.6,2-3.3,3.8-3.6c1.4-0.2,2.1-0.9,2.7-2.1c4.9-9.7,5-19.7,1.6-29.7
		c-4.3-12.4-13-20.8-25.4-25.3c-6.9-2.5-16.2,0.7-20.3,6.8c-0.2,0.4,0,1.1,0,1.4c-0.7,0.7-1.5,1.5-2.3,2.3c0.1,0.2,0.2,0.4,0.3,0.6
		c1.4,0.3,2.8,0.6,4.4,1c-0.3,0.6-0.6,1.2-0.9,1.8c-0.7,1.6-1.6,3.1-2.2,4.7c-0.2,0.6,0.1,1.7,0.6,2c6.6,5.2,10.3,12.4,14.4,19.5
		c0.3,0.4,0.4,1,0.5,1.5c0.5,3.4,0.9,6.9,1.3,10.4c0.3,2.5,0.4,5,0.6,8c3.4-1.8,6.8-2.6,10.5-2.4
		C176.8,104.9,180.3,105.6,183.7,107.7z M170.4,106.7c-1,0.3-3,0.7-4.7,1.5c-0.6,0.3-1.3,1.4-1.3,2.1s0.9,1.7,1.6,1.9
		c5.2,1.2,10.5,1.2,15.5-1c0.3-0.1,0.8-0.5,0.7-0.6c-0.1-0.3-0.3-0.7-0.6-0.9C178.4,108.1,175,107,170.4,106.7z M71.8,71.5
		c-6,2.6-14.9,25.5-11.6,30.4C61.3,90.7,64.7,80.4,71.8,71.5z M161.7,174.2c-5.7,0-11.6,0-17.2,0C148,177,157.4,176.3,161.7,174.2z
		 M143.7,58.9c-0.2-0.1-0.3-0.2-0.5-0.2c0.4,3.2-1.2,4.4-4.4,4.3c1.8,1,3,1.7,4.4,2.5c1-1.8,1.9-3.7,3-5.7
		C145.3,59.4,144.5,59.1,143.7,58.9z M23.1,104.3c0.2,0,0.3-0.1,0.5-0.1c-0.5-3.1-1-6.2-1.5-9.3c-0.1,0-0.3,0-0.4,0.1
		C22.2,98.1,22.6,101.2,23.1,104.3z M45,136.9c1-2.1,0.5-4-1.5-4.8C44,133.8,44.6,135.4,45,136.9z M21.5,92c0.2,0,0.4,0.1,0.6,0.1
		c0.1-1.7,0.3-3.4,0.4-5.1c-0.2,0-0.3,0-0.5-0.1C21.9,88.6,21.7,90.3,21.5,92z M121.4,175.9c0.1-0.1,0.2-0.2,0.3-0.2
		c1.3,1.4,2.6,2.9,3.9,4.3c0,0,0,0-0.1,0C124.1,178.7,122.7,177.3,121.4,175.9z"/>
	<path class="st2" d="M15.9,79.2c-0.3,1.7-0.6,3.4-0.9,5c-1.8,9.6-1,19.1,2.4,28.2c0.6,1.6,1.5,3,2.2,4.5c0.4,0.9,0.5,2,0.7,3
		c-0.3,0.1-0.5,0.2-0.8,0.4c-0.6-0.8-1.3-1.4-1.7-2.3c-4.7-9.8-6.2-20-4.8-30.8c0.3-2.1,0.4-4.2,0.6-6.2
		C13.8,79.9,14.2,79.1,15.9,79.2z"/>
	<path class="st2" d="M203.1,142.1c-0.7,11.9-14.3,31.9-31.1,36.8c3.3-2,7.3-4.3,11.1-6.9c2.1-1.5,4.1-3.3,5.8-5.2
		c5.8-6.6,10.1-14,12.1-22.6c0.2-0.9,1-1.7,1.6-2.5C202.8,141.8,202.9,141.9,203.1,142.1z"/>
	<path class="st2" d="M152.5,43.7c0.3-0.4,0.5-1.1,0.9-1.2c3-1,6-1.8,8.9-2.7c0.3-0.1,0.7-0.1,1,0c0.9,0.1,2.1-0.1,2,1.2
		c0,0.3-1.2,0.7-1.9,0.8c-3.2,0.3-6.4,0.5-9.3,2c-0.4,0.2-0.9,0.3-1.3,0.4C152.8,44,152.6,43.9,152.5,43.7z"/>
	<path class="st2" d="M13,112.3c0.9,2.1,1.7,3.9,2.5,5.8c0.1,0.2-0.1,0.8-0.3,0.9c-0.3,0.1-0.8,0-1.1-0.1
		C13,118.2,12.2,114,13,112.3z"/>
	<path class="st2" d="M203.1,96.3c0.9,1.4,0,4.3-1.6,5.5C200.7,100.5,201.4,97.9,203.1,96.3z"/>
	<path class="st2" d="M154.8,40.9c0.1-0.8,0-1.9,0.2-2c0.9-0.2,2-0.2,3-0.2c-0.1,0.4-0.2,1.1-0.4,1.3
		C156.8,40.4,156,40.6,154.8,40.9z"/>
	<path class="st1" d="M134.3,115c-0.5-1.1-1-2.3-1.5-3.4c-0.6-1.6-1.2-3.3-1.9-4.9c-0.5-1.3-1.2-2.3-2.8-2.6
		c-0.4-0.1-0.8-0.8-0.8-1.3c-0.8-5.9-1.4-11.8-2.2-17.7c-0.3-2.4-1.4-4.4-3.4-6c-3.7-3-2.8-6.8,0.1-9.8c2.4-2.5,7.3-1.3,9,1.7
		c2.1,3.8,3.7,7.8,4.2,12.2c0.5,4.5,2,8.8,5.1,12.4c1,1.2,0.7,2.7-0.3,4c-1.4,1.8-2.6,3.7-3.9,5.7c-0.2,0.3-0.1,0.9-0.1,1.4
		c0,1.9,0.1,3.7,0,5.6c-0.1,1-0.4,1.9-0.7,2.9C134.9,114.9,134.6,115,134.3,115z"/>
	<path class="st1" d="M84.9,125.1c0.5,0.2,1.1,0.4,1.6,0.7c3.2,1.8,6.4,3.7,9.6,5.5c2.7,1.6,5.5,3.1,8.2,4.7
		c0.9,0.6,1.7,0.8,2.7,0.3c1.7-0.8,3.4-1.2,5.2-0.3c0.4,0.2,1.1,0.3,1.5,0.2c3.2-0.8,6.4-1.7,9.5-2.7c2.2-0.7,4.3-2,6.6-2.3
		c7.2-1,14.4-7.8,15.5-16.7c0.4-3.2,0.7-6.5,1-9.7c0.1-0.7,0.1-1.4,0.4-2c0.3-0.6,1-1.3,1.5-1.3c0.5,0,1.4,0.9,1.5,1.4
		c0.2,1.9,0.2,3.9,0,5.9c-0.5,5.5-2.4,10.6-4.9,15.5c-2.4,4.8-6.9,7.5-11.6,9.6c-3.1,1.4-6,2.9-8,5.9c-1.8,2.7-4.5,3.8-7.9,3.3
		c-2.6-0.5-5.2-0.7-7.8-0.7c-2.9,0-5.3-1.4-7.8-2.5c-6.3-2.8-11.3-7-15.9-12c-0.6-0.6-1-1.4-1.5-2.2
		C84.6,125.5,84.7,125.3,84.9,125.1z"/>
	<path class="st2" d="M108.2,106.9c-2.7,1.5-3.3,1.4-4.7-0.9c-1.8-3.1-3.7-6.1-5.6-9.4c-0.6,0.5-1.1,0.8-1.3,1.1
		c-2.2,3-4.6,5.9-6.3,9.1c-1.7,3.1-4.2,3.9-7.6,4.3c0.3-0.8,0.4-1.5,0.7-2c3-4.2,6-8.4,9-12.6c0.2-0.3,0.6-0.6,0.8-0.9
		c1.5-2.9,2.3-4.9-1.8-5.5c-0.3,0-0.6-0.3-0.9-0.5c1.2-3.5-2.7-4.2-3.6-6.9c0.7-0.3,1.5-0.7,2.3-1c1.1-0.4,1.7,0.2,2.1,1.2
		c0.3,0.8,0.6,1.6,1.2,2.3c1.4,1.7,2.9,3.3,4.4,4.9c0.8,0.9,1.5,0.7,2.3,0.1c2.7-1.9,5.4-3.8,8.1-5.8c2.3-1.7,4.9-2.2,7.8-2
		c-0.4,0.3-0.9,0.6-1.3,0.8c-4.6,2.5-8.8,5.5-12.4,9.2c-1.1,1.1-1.2,2-0.3,3.3C103.5,99.5,105.8,103.2,108.2,106.9z"/>
	<path class="st1" d="M128.7,138.1c9-3.8,17.4-8.4,21.1-18.3c0.2,0.1,0.3,0.1,0.5,0.2c-0.3,1-0.5,2.1-1.1,3
		c-3.1,5.5-7.4,9.9-13.3,12.5c-2.3,1-4.5,2.1-6.7,3.1C129,138.5,128.9,138.3,128.7,138.1z"/>
	<path class="st1" d="M145.6,79.9c3,2.8,4.3,6.5,5.8,10.1c0.5,1.1,0.9,2.3,1.2,3.4c0.1,0.4-0.2,0.8-0.3,1.2c-0.4-0.2-1-0.4-1.1-0.7
		c-0.5-1.4-0.8-2.9-1.4-4.3c-1.3-2.6-2.8-5.1-4.1-7.6c-0.3-0.6-0.4-1.3-0.6-2C145.3,80,145.4,80,145.6,79.9z"/>
	<path class="st1" d="M153.8,107.3c-0.3,1.8-0.6,3.6-0.9,5.4c-0.2,0-0.5-0.1-0.7-0.1c0.3-1.8,0.6-3.6,0.9-5.5
		C153.3,107.2,153.5,107.2,153.8,107.3z"/>
	<path class="st1" d="M142.1,75.9c-1.9,0.4-3.1-0.6-3.3-2.5C140,74.4,141,75.2,142.1,75.9z"/>
	<path class="st2" d="M78.3,50.9c-0.6,0.1-1.1,0.1-1.9,0.2c1,2.4,2,4.7,3,7c-4.3-3.7-6-17.4-3.1-23.1C74.6,40.6,77.3,45.5,78.3,50.9
		z"/>
	<path class="st2" d="M57.8,83.5c-0.4,1.7-0.6,3.5-1.3,4.9c-2.7,5.1-2.7,10.6-2.4,16.1c0,0.3,0,0.7,0,1c0,0.1-0.1,0.2-0.4,0.5
		c-0.5-4.1-0.7-7.9,0.1-11.7c0.8-3.7,2.2-7.4,3.4-11.1C57.4,83.5,57.6,83.5,57.8,83.5z"/>
	<path class="st2" d="M124.9,25.4c0.9,1.1,1.8,2.2,2.7,3.3c-0.4,0.3-1.1,0.9-1.2,0.8c-0.9-0.8-1.8-1.6-2.5-2.6
		c-0.2-0.2,0.1-0.8,0.2-1.3C124.4,25.6,124.7,25.5,124.9,25.4z"/>
	<path class="st2" d="M49.3,62.1c-0.9,0-1.8,0.1-2.8,0c-0.3,0-0.6-0.4-0.9-0.6c0.2-0.2,0.4-0.6,0.6-0.7c1.1-0.1,2.2-0.3,3.2-0.2
		c0.5,0,0.9,0.6,1.3,0.9c-0.5,0.3-0.9,0.7-1.4,1C49.4,62.3,49.3,62.2,49.3,62.1z"/>
	<path class="st2" d="M49.3,118.9c1.2,0.1,2.3,0.1,3.4,0.3c0.3,0.1,0.6,0.7,0.9,1.1c-0.3,0.2-0.6,0.6-1,0.7
		C50.5,121.2,49.5,120.5,49.3,118.9z"/>
	<path class="st2" d="M60.8,73.9c0.9-1,1.9-2,2.8-3c0.1,0.1,0.3,0.2,0.4,0.4c-1,0.9-2,1.8-3.1,2.8C60.9,74,60.9,74,60.8,73.9z"/>
	<path class="st2" d="M70.5,66.7c-0.9,1-1.7,1.8-2.5,2.7C68,67.6,68.8,66.8,70.5,66.7z"/>
	<path class="st2" d="M83,185.7c0.9,0.2,1.8,0.2,2.7,0.5c3.3,1.2,6.7,1.2,10.2,0.9c0.4,0,0.8-0.1,1.2,0c0.4,0.1,0.7,0.5,1,0.7
		c-0.3,0.3-0.5,0.9-0.8,1c-1.4,0.3-2.9,0.8-4.3,0.6c-2.9-0.4-5.8-1.1-8.6-1.8c-0.6-0.2-1.1-0.8-1.6-1.3
		C82.8,186.1,82.9,185.9,83,185.7z"/>
	<path class="st2" d="M104,186.2c-0.3,1.2-1.3,1.4-2.4,1.3c-0.3,0-0.4-0.6-0.7-1c0.9-0.3,1.8-0.6,2.7-1
		C103.8,185.8,103.9,186,104,186.2z"/>
	<path class="st2" d="M154.3,166.9c-0.9-0.2-2-0.2-2.7-0.6c-2.2-1.2-4.3-2.5-6.4-3.9c-2.8-2-3.7-5.2-4.6-8.4
		c-0.1-0.4,0.4-0.9,0.6-1.4c0.6,0.3,1.4,0.6,1.7,1.1c1,1.9,1.8,4,2.8,5.9c1.2,2.4,3.4,3.7,5.8,4.8c1.1,0.5,2.1,1.1,3.1,1.6
		C154.5,166.4,154.4,166.6,154.3,166.9z"/>
	<path class="st2" d="M153.8,163.1c-1.1-0.2-2.2-0.2-3.2-0.7c-1.3-0.6-2.4-1.5-3.6-2.4c-0.9-0.7-1.2-1.6,0.1-2.3
		c2.2,1.6,4.5,3.3,6.7,4.9C153.8,162.7,153.8,162.9,153.8,163.1z"/>
	<path class="st2" d="M150.3,138.3c3.6-3.8,7.3-7.6,10.7-11.2C160.9,129.2,152.7,137.9,150.3,138.3z"/>
	<path class="st2" d="M158.9,132.3c-0.4,1.9-4.2,5.5-6.3,5.7C154.8,136.1,156.8,134.2,158.9,132.3z"/>
	<path class="st2" d="M162.3,50.7c1.2,0.1,2.5,0,3.7,0.3c7,1.9,13,5.5,18,10.7c0.6,0.6,1.5,1.3,0.5,2.2c-0.9,0.9-1.7,0.4-2.5-0.5
		c-5.1-6-11.2-10.4-19.1-11.9c-0.3,0-0.5-0.2-0.7-0.3C162.3,50.9,162.3,50.8,162.3,50.7z"/>
	<path class="st2" d="M149.5,56.8c0.7-1,1.2-1.8,1.9-2.6c0.2-0.2,0.8-0.1,1.3-0.2c0,0.4,0.2,0.9,0.1,1.3
		C152.3,56.6,151.5,57.4,149.5,56.8z"/>
</g>
</svg>
